<?xml version="1.0" standalone="no"?>
<!DOCTYPE svg PUBLIC "-//W3C//DTD SVG 1.1//EN" "http://www.w3.org/Graphics/SVG/1.1/DTD/svg11.dtd" >
<svg xmlns="http://www.w3.org/2000/svg" xmlns:xlink="http://www.w3.org/1999/xlink" version="1.1">
<metadata>
Created by FontForge 20161003 at Tue Jan 17 09:53:16 2017
 By www-data
Copyright 2008 Jonas Schudel Dalton Maag Ltd. All rights reserved. This font may not be altered in any way without prior permission of Dalton Maag Ltd. 
</metadata>
<defs>
<font id="EffraMedium" horiz-adv-x="360" >
  <font-face 
    font-family="EffraMedium"
    font-weight="400"
    font-stretch="normal"
    units-per-em="1000"
    panose-1="2 11 6 6 8 2 2 2 2 4"
    ascent="800"
    descent="-200"
    x-height="469"
    cap-height="667"
    bbox="-157 -230 1255 931"
    underline-thickness="55"
    underline-position="-146"
    unicode-range="U+0008-FB04"
  />
<missing-glyph horiz-adv-x="500" 
d="M50 0v750h400v-750h-400zM400 50v650h-300v-650h300z" />
    <glyph glyph-name="f_f" unicode="ff" horiz-adv-x="651" 
d="M93 373h-80v96h80v25q0 59 18 96t44.5 58t55.5 29t52 8q32 0 66.5 -10t69.5 -39l-55 -78q-14 11 -31 18t-33 7q-34 0 -52 -22t-18 -61v-31h194v29q0 51 16 86.5t41 58t56 32.5t61 10q32 0 71 -9t75 -40l-55 -78q-16 11 -34.5 18t-37.5 7q-35 0 -55.5 -22.5t-20.5 -64.5
v-27h121v-96h-120v-373h-118v373h-193v-373h-118v373z" />
    <glyph glyph-name="f_i" unicode="fi" horiz-adv-x="565" 
d="M93 373h-80v96h80v5q0 61 19.5 101.5t52 65t75 34.5t89.5 10q18 0 40.5 -3t46.5 -9t48.5 -15.5t45.5 -22.5l-49 -89q-23 14 -60 26t-73 12q-62 0 -90 -21t-28 -69v-25h292v-469h-118v373h-173v-373h-118v373z" />
    <glyph glyph-name="f_l" unicode="fl" horiz-adv-x="570" 
d="M93 373h-80v96h80v14q0 58 17.5 96.5t48 62t71 33.5t85.5 10q36 0 69 -6t59 -14.5t44 -17t25 -12.5v-635h-118v572q-13 5 -36.5 8.5t-44.5 3.5q-58 0 -80.5 -22t-22.5 -77v-16h121v-96h-120v-373h-118v373z" />
    <glyph glyph-name="f_f_i" unicode="ffi" horiz-adv-x="876" 
d="M93 373h-80v96h80v25q0 59 18 96t44.5 58t55.5 29t52 8q32 0 66.5 -10t69.5 -39l-55 -78q-14 11 -31 18t-33 7q-34 0 -52 -22t-18 -61v-31h194v5q0 61 19 101.5t51 65t73.5 34.5t85.5 10q42 0 93.5 -12t94.5 -38l-49 -89q-23 14 -60 26t-73 12q-62 0 -90 -23t-28 -82v-10
h292v-469h-118v373h-173v-373h-118v373h-193v-373h-118v373z" />
    <glyph glyph-name="f_f_l" unicode="ffl" horiz-adv-x="881" 
d="M93 373h-80v96h80v25q0 59 18 96t44.5 58t55.5 29t52 8q32 0 66.5 -10t69.5 -39l-55 -78q-14 11 -31 18t-33 7q-34 0 -52 -22t-18 -61v-31h194v14q0 58 17.5 96.5t48 62t71 33.5t85.5 10q36 0 69 -6t59 -14.5t44 -17t25 -12.5v-635h-118v572q-13 5 -36.5 8.5t-44.5 3.5
q-58 0 -80.5 -22t-22.5 -77v-16h121v-96h-120v-373h-118v373h-193v-373h-118v373z" />
    <glyph glyph-name=".notdef" horiz-adv-x="500" 
d="M50 0v750h400v-750h-400zM400 50v650h-300v-650h300z" />
    <glyph glyph-name=".null" horiz-adv-x="0" 
 />
    <glyph glyph-name=".null" horiz-adv-x="0" 
 />
    <glyph glyph-name=".null" horiz-adv-x="0" 
 />
    <glyph glyph-name="nonmarkingreturn" unicode="&#x9;" horiz-adv-x="181" 
 />
    <glyph glyph-name="nonmarkingreturn" unicode="&#xd;" horiz-adv-x="181" 
 />
    <glyph glyph-name="space" unicode=" " horiz-adv-x="181" 
 />
    <glyph glyph-name="exclam" unicode="!" horiz-adv-x="279" 
d="M74 667h131l-2 -458h-127zM68 138h143v-138h-143v138z" />
    <glyph glyph-name="quotedbl" unicode="&#x22;" horiz-adv-x="388" 
d="M53 667h112v-232h-112v232zM223 667h112v-232h-112v232z" />
    <glyph glyph-name="numbersign" unicode="#" horiz-adv-x="745" 
d="M161 151h-93v93h118l38 142h-95v93h120l40 150h106l-40 -150h123l40 150h106l-40 -150h93v-93h-118l-38 -142h95v-93h-120l-40 -151h-106l40 151h-123l-40 -151h-106zM415 244l38 142h-123l-38 -142h123z" />
    <glyph glyph-name="dollar" unicode="$" horiz-adv-x="545" 
d="M97 181q11 -12 25 -26t32 -27t39 -23t47 -14v184q-5 2 -8.5 2t-8.5 2q-48 13 -81.5 32t-54.5 42t-30.5 50.5t-9.5 58.5q0 33 11.5 63t35.5 53.5t60.5 39t85.5 19.5v92h75v-92q42 -5 72 -17t50.5 -25.5t32.5 -26.5t18 -19l-83 -75q-8 9 -30 28.5t-60 29.5v-164
q37 -9 72 -23.5t61 -38t42 -57t16 -78.5q0 -37 -14 -68.5t-39.5 -55t-60.5 -39t-77 -21.5v-93h-75v91q-43 4 -78.5 16.5t-64 29.5t-49.5 36t-35 37zM315 93q40 7 58 27t18 54q0 26 -15 45t-61 35v-161zM240 536q-44 -6 -62 -26.5t-18 -47.5q0 -29 17 -46t63 -31v151z" />
    <glyph glyph-name="percent" unicode="%" horiz-adv-x="925" 
d="M609 630h107l-406 -630h-107zM210 285q-69 0 -114 45.5t-45 135.5t45 135.5t114 45.5t114 -45.5t45 -135.5t-45 -135.5t-114 -45.5zM210 364q11 0 22 5t19.5 17t14 31.5t5.5 48.5t-5.5 48.5t-14 31.5t-19.5 17t-22 5t-22 -5t-19.5 -17t-14 -31.5t-5.5 -48.5t5.5 -48.5
t14 -31.5t19.5 -17t22 -5zM715 -6q-69 0 -114 45.5t-45 135.5t45 135.5t114 45.5t114 -45.5t45 -135.5t-45 -135.5t-114 -45.5zM715 73q11 0 22 5t19.5 17t14 31.5t5.5 48.5t-5.5 48.5t-14 31.5t-19.5 17t-22 5t-22 -5t-19.5 -17t-14 -31.5t-5.5 -48.5t5.5 -48.5t14 -31.5
t19.5 -17t22 -5z" />
    <glyph glyph-name="ampersand" unicode="&#x26;" horiz-adv-x="643" 
d="M429 61q-32 -33 -76 -55t-109 -22q-54 0 -95 15.5t-68 41.5t-40.5 61t-13.5 73q0 56 29 107.5t102 103.5l-2 3q-26 31 -37.5 63.5t-11.5 66.5q0 33 12.5 63t37 53t60 36.5t81.5 13.5q43 0 73 -11.5t51 -28.5t34 -36.5t21 -35.5l-88 -56q-25 41 -45 53t-39 12
q-35 0 -54 -18t-19 -45q0 -23 12 -44.5t30 -41.5l160 -194l86 105l88 -71l-101 -123l125 -150h-152zM226 304q-45 -34 -60.5 -61.5t-15.5 -60.5q0 -38 24.5 -62.5t75.5 -24.5q36 0 61 15t46 38z" />
    <glyph glyph-name="quotesingle" unicode="'" horiz-adv-x="218" 
d="M53 667h112v-232h-112v232z" />
    <glyph glyph-name="parenleft" unicode="(" horiz-adv-x="297" 
d="M153 -93q-12 23 -28.5 60.5t-31 88t-25 113.5t-10.5 137t10.5 137t25 114t31 88.5t28.5 60.5h116q-17 -29 -32.5 -72t-27.5 -95.5t-19 -112t-7 -120.5t7 -120t19 -111.5t27.5 -96t32.5 -71.5h-116z" />
    <glyph glyph-name="parenright" unicode=")" horiz-adv-x="297" 
d="M28 -93q16 28 31.5 71.5t27.5 96t19.5 111.5t7.5 120t-7.5 120.5t-19.5 112t-27.5 95.5t-31.5 72h116q12 -23 28.5 -60.5t31 -88.5t25 -114t10.5 -137t-10.5 -137t-25 -113.5t-31 -88t-28.5 -60.5h-116z" />
    <glyph glyph-name="asterisk" unicode="*" horiz-adv-x="501" 
d="M58 460l111 58l-111 58l46 80l106 -67l-5 125h92l-4 -125l104 67l46 -80l-109 -58l109 -58l-46 -80l-104 67l4 -125h-92l5 125l-106 -67z" />
    <glyph glyph-name="plus" unicode="+" horiz-adv-x="545" 
d="M74 371h149v147h100v-147h149v-99h-149v-146h-100v146h-149v99z" />
    <glyph glyph-name="comma" unicode="," horiz-adv-x="279" 
d="M129 0h-51v139h143v-137l-85 -145h-70z" />
    <glyph glyph-name="hyphen" unicode="-" horiz-adv-x="441" 
d="M68 335h305v-112h-305v112z" />
    <glyph glyph-name="period" unicode="." horiz-adv-x="279" 
d="M68 138h143v-138h-143v138z" />
    <glyph glyph-name="slash" unicode="/" horiz-adv-x="426" 
d="M289 685h114l-263 -701h-117z" />
    <glyph glyph-name="zero" unicode="0" horiz-adv-x="545" 
d="M272 -16q-61 0 -107 25t-77 69.5t-46.5 107t-15.5 137.5q0 73 15.5 133t46.5 102.5t77.5 66t107.5 23.5t107 -23.5t77 -66t46.5 -102.5t15.5 -133q0 -75 -15.5 -137.5t-46.5 -107t-77.5 -69.5t-107.5 -25zM273 92q31 0 54.5 18t39 49t23.5 73t8 91q0 47 -8 87t-24 68.5
t-39.5 44.5t-54.5 16t-54.5 -16t-39 -44.5t-23.5 -68.5t-8 -87q0 -49 8 -91t24 -73t39.5 -49t54.5 -18z" />
    <glyph glyph-name="one" unicode="1" horiz-adv-x="545" 
d="M131 103h108v398l-121 -64l-49 92l185 101h103v-527h104v-103h-330v103z" />
    <glyph glyph-name="two" unicode="2" horiz-adv-x="545" 
d="M63 79q0 43 14.5 78t37.5 64.5t51 54.5t56 49t49.5 41t36.5 32.5t22.5 31.5t7.5 37q0 13 -4.5 27t-15 24.5t-27.5 17.5t-43 7q-23 0 -41.5 -7t-33 -18t-25 -24t-17.5 -25l-88 63q12 20 30 40.5t44 37.5t61 27.5t80 10.5q54 0 93 -14.5t64 -38.5t37 -54.5t12 -62.5
q0 -34 -11 -63t-29 -54t-41 -47t-47 -42q-29 -24 -54.5 -44t-44.5 -39t-30 -38.5t-11 -43.5h272v-107h-405v79z" />
    <glyph glyph-name="three" unicode="3" horiz-adv-x="545" 
d="M89 138q27 -24 59.5 -38.5t74.5 -14.5q54 0 86 29.5t32 77.5q0 21 -5.5 39.5t-18.5 32t-34 21.5t-51 8q-14 0 -29 -3t-27 -6l-35 56l161 181h-236v108h377v-90l-140 -164q84 -10 123.5 -60t39.5 -124q0 -49 -18.5 -88t-51.5 -66t-77 -41t-95 -14q-68 0 -118 20.5
t-85 52.5z" />
    <glyph glyph-name="four" unicode="4" horiz-adv-x="545" 
d="M40 220l275 410h118v-409h65v-100h-65v-121h-113v121h-280v99zM320 221v243l-166 -243h166z" />
    <glyph glyph-name="five" unicode="5" horiz-adv-x="545" 
d="M90 139q27 -24 58 -38t79 -14q32 0 54.5 9.5t37 26t21 37.5t6.5 44q0 15 -5.5 33.5t-19.5 34.5t-38.5 27t-61.5 11q-34 0 -54 -6.5t-37 -12.5l-60 46l63 292h327v-110h-242l-25 -121q7 3 24 6t41 3q46 0 84.5 -14t66.5 -39.5t43.5 -62.5t15.5 -82q0 -44 -13 -85
t-42.5 -72.5t-77 -50.5t-115.5 -19q-67 0 -114 20t-82 52z" />
    <glyph glyph-name="six" unicode="6" horiz-adv-x="545" 
d="M442 513q-13 8 -30 15q-14 6 -34 11t-44 5q-36 0 -65 -15.5t-50 -41t-32.5 -57.5t-11.5 -66q22 13 53 28.5t79 15.5q43 0 79.5 -14t62 -40.5t40 -64.5t14.5 -87q0 -44 -14 -84t-41 -70t-67.5 -48t-92.5 -18q-50 0 -92.5 18t-73.5 56t-48.5 96.5t-17.5 139.5
q0 78 18 143.5t53 113t87 73.5t121 26q28 0 52 -4.5t44.5 -11t36 -13.5t25.5 -13zM174 269q0 -53 9 -88.5t24.5 -56.5t36.5 -30t44 -9q47 0 75.5 33.5t28.5 87.5q0 46 -26.5 73.5t-69.5 27.5q-45 0 -74.5 -13t-47.5 -25z" />
    <glyph glyph-name="seven" unicode="7" horiz-adv-x="545" 
d="M127 0q21 67 51 144.5t62 150t62 132.5t50 92h-287v111h408v-106q-13 -21 -31.5 -57t-39.5 -81.5t-42.5 -97t-41.5 -103t-36.5 -99.5t-26.5 -86h-128z" />
    <glyph glyph-name="eight" unicode="8" horiz-adv-x="545" 
d="M273 391q40 11 64 37.5t24 55.5q0 33 -24.5 54.5t-63.5 21.5q-37 0 -62.5 -22t-25.5 -57q0 -26 24 -52.5t64 -37.5zM271 294q-23 -5 -44 -15.5t-36.5 -25t-25 -33.5t-9.5 -40q0 -27 10.5 -45.5t27.5 -30.5t38 -17.5t41 -5.5t41 5.5t38 17.5t27.5 30.5t10.5 45.5
q0 21 -10 40t-26.5 33.5t-38 25t-44.5 15.5zM153 349q-31 18 -55 53.5t-24 78.5q0 37 14.5 68t40.5 53t62.5 34t81.5 12q49 0 86 -12t62 -33.5t38 -51.5t13 -65q0 -47 -25 -81.5t-57 -51.5q57 -24 88.5 -68.5t31.5 -105.5q0 -32 -13 -66.5t-41.5 -63t-73.5 -47t-109 -18.5
q-65 0 -110 18t-73.5 46t-41 62.5t-12.5 66.5q0 61 32 105t85 67z" />
    <glyph glyph-name="nine" unicode="9" horiz-adv-x="545" 
d="M104 121q17 -10 37 -17q17 -6 39.5 -11t46.5 -5q36 0 62.5 14.5t45 39t28 56t10.5 65.5q-16 -13 -47.5 -28t-87.5 -15q-44 0 -80 16.5t-62 45t-40.5 66t-14.5 80.5q0 44 14.5 84t42.5 70t68.5 48t93.5 18q50 0 92.5 -18t73.5 -56t48.5 -96.5t17.5 -139.5
q0 -77 -16 -141.5t-49 -112t-83 -74t-119 -26.5q-28 0 -54 4.5t-48 11t-39.5 13.5t-27.5 13zM374 361q0 53 -9 88.5t-24.5 56.5t-36.5 30t-44 9q-47 0 -77.5 -32t-30.5 -86q0 -44 27.5 -73t74.5 -29q49 0 75.5 12t44.5 24z" />
    <glyph glyph-name="colon" unicode=":" horiz-adv-x="279" 
d="M68 138h143v-138h-143v138zM68 469h143v-138h-143v138z" />
    <glyph glyph-name="semicolon" unicode=";" horiz-adv-x="291" 
d="M131 0h-51v139h143v-137l-85 -145h-70zM80 469h143v-138h-143v138z" />
    <glyph glyph-name="less" unicode="&#x3c;" horiz-adv-x="545" 
d="M71 357l357 193l43 -85l-267 -144l267 -144l-43 -85l-357 193v72z" />
    <glyph glyph-name="equal" unicode="=" horiz-adv-x="545" 
d="M74 454h398v-99h-398v99zM74 286h398v-99h-398v99z" />
    <glyph glyph-name="greater" unicode="&#x3e;" horiz-adv-x="545" 
d="M74 177l267 144l-267 144l43 85l357 -193v-72l-357 -193z" />
    <glyph glyph-name="question" unicode="?" horiz-adv-x="512" 
d="M155 138h143v-138h-143v138zM166 231q0 19 2.5 40.5t10.5 44t24.5 44.5t45.5 42q16 11 32 23t29 25t21 27t8 31q0 30 -23 49.5t-64 19.5q-27 0 -50 -8t-40.5 -18t-29 -20.5t-16.5 -14.5l-78 70q5 7 20 23t41 32.5t64.5 29.5t89.5 13q49 0 87 -14t64.5 -38t40.5 -55.5
t14 -65.5q0 -56 -22 -91t-66 -67q-22 -16 -38 -28t-26.5 -25.5t-15.5 -29.5t-5 -39v-22h-120v22z" />
    <glyph glyph-name="at" unicode="@" horiz-adv-x="958" 
d="M575 212q-18 1 -35 2q-14 1 -29.5 1.5t-26.5 0.5q-53 0 -79.5 -22.5t-26.5 -51.5q0 -30 23 -47t65 -17q21 0 40.5 7t34.5 19t24.5 28t9.5 34v46zM182 -18q-23 16 -47.5 43.5t-45 65t-33.5 84t-13 101.5q0 105 37 182.5t98.5 128t140 75.5t162.5 25q91 0 170.5 -24
t138 -72.5t92 -122t33.5 -173.5q0 -92 -23 -152.5t-56 -95.5t-71 -49t-68 -14q-34 0 -62 14t-41 46q-21 -19 -41 -30.5t-40.5 -18t-43 -9t-49.5 -2.5q-22 0 -48.5 9t-49.5 28t-38.5 48t-15.5 68q0 40 15 71.5t42 53t65 32.5t84 11q14 0 31 -0.5t33 -1.5q18 -1 37 -2v11
q0 35 -26.5 55t-68.5 20q-54 0 -85 -13t-54 -28l-54 80q16 12 34 22.5t42 18.5t55.5 13t75.5 5q43 0 79 -12.5t61.5 -35t39.5 -54t14 -68.5v-196q0 -15 8.5 -24.5t22.5 -9.5q13 0 29 11t29.5 36t23 66.5t9.5 101.5q0 79 -28.5 135t-75.5 91t-107 51t-123 16
q-53 0 -110.5 -16.5t-104.5 -53t-77.5 -95t-30.5 -143.5q0 -48 10 -86t25 -66.5t32 -48.5t31 -31z" />
    <glyph glyph-name="A" unicode="A" horiz-adv-x="646" 
d="M258 667h130l253 -667h-140l-58 169h-248l-58 -169h-132zM407 273l-88 259l-89 -259h177z" />
    <glyph glyph-name="B" unicode="B" horiz-adv-x="596" 
d="M70 667h229q53 0 93.5 -13.5t67.5 -37t41 -55t14 -68.5q0 -35 -13 -61t-30.5 -43.5t-35 -26t-27.5 -8.5q18 -2 42 -11t45.5 -28t36.5 -49.5t15 -74.5q0 -54 -19 -90.5t-52.5 -59t-79 -32t-98.5 -9.5h-229v667zM293 401q19 0 37 4t32.5 14t23 25t8.5 38t-9 38t-23.5 24
t-32.5 12.5t-36 3.5h-102v-159h102zM298 107q18 0 39.5 2.5t40.5 12t32 28t13 50.5q0 30 -12.5 48.5t-31 29t-40.5 14.5t-41 4h-107v-189h107z" />
    <glyph glyph-name="C" unicode="C" horiz-adv-x="680" 
d="M657 122q-15 -23 -41.5 -47t-62.5 -44.5t-79 -33.5t-91 -13q-75 0 -137 26t-107 72.5t-70 109.5t-25 138q0 73 25 137t70.5 112t108.5 76t139 28q49 0 90 -10.5t74.5 -28.5t59.5 -42.5t46 -52.5l-89 -79q-32 46 -74.5 74t-106.5 28q-49 0 -88 -19.5t-66.5 -52t-42 -76
t-14.5 -91.5t14.5 -90t41.5 -73t64.5 -49t84.5 -18q43 0 73.5 10t52 25t36 31.5t26.5 28.5z" />
    <glyph glyph-name="D" unicode="D" horiz-adv-x="726" 
d="M70 667h249q78 0 143 -20t112 -61t73 -105t26 -151q0 -83 -26.5 -144.5t-74 -103t-112.5 -62t-142 -20.5h-248v667zM307 112q114 0 174 55t60 161q0 105 -55.5 166t-178.5 61h-111v-443h111z" />
    <glyph glyph-name="E" unicode="E" horiz-adv-x="568" 
d="M70 667h432v-111h-306v-157h225v-112h-225v-174h329v-113h-455v667z" />
    <glyph glyph-name="F" unicode="F" horiz-adv-x="534" 
d="M70 667h431v-111h-305v-173h228v-112h-228v-271h-126v667z" />
    <glyph glyph-name="G" unicode="G" horiz-adv-x="723" 
d="M421 353h239v-276q-39 -37 -103 -65t-164 -28q-82 0 -146.5 27t-109.5 73.5t-69 109.5t-24 136t25 137t70.5 112t108.5 76t139 28q49 0 90 -10.5t74.5 -28.5t59.5 -42.5t46 -52.5l-89 -79q-32 46 -74.5 74t-106.5 28q-49 0 -88 -19.5t-66.5 -52t-42 -76t-14.5 -91.5
q0 -54 17.5 -97t48 -74t71 -47.5t85.5 -16.5q92 0 142 44v104h-119v107z" />
    <glyph glyph-name="H" unicode="H" horiz-adv-x="723" 
d="M70 667h126v-268h331v268h126v-667h-126v287h-331v-287h-126v667z" />
    <glyph glyph-name="I" unicode="I" horiz-adv-x="266" 
d="M70 667h126v-667h-126v667z" />
    <glyph glyph-name="J" unicode="J" horiz-adv-x="508" 
d="M98 157q32 -35 59 -46.5t62 -11.5q18 0 35.5 6.5t31.5 19.5t22.5 32.5t8.5 45.5v464h126v-471q0 -60 -19.5 -101t-50.5 -66t-70 -36t-78 -11q-78 0 -128.5 24.5t-86.5 70.5z" />
    <glyph glyph-name="K" unicode="K" horiz-adv-x="621" 
d="M70 667h126v-274l247 274h143l-246 -273l273 -394h-152l-203 303l-62 -69v-234h-126v667z" />
    <glyph glyph-name="L" unicode="L" horiz-adv-x="553" 
d="M70 667h126v-555h329v-112h-455v667z" />
    <glyph glyph-name="M" unicode="M" horiz-adv-x="789" 
d="M94 667h117l185 -315l182 315h117l32 -667h-123l-22 462l-160 -272h-59l-161 265l-22 -455h-118z" />
    <glyph glyph-name="N" unicode="N" horiz-adv-x="713" 
d="M70 667h127l323 -474v474h123v-667h-124l-326 480v-480h-123v667z" />
    <glyph glyph-name="O" unicode="O" horiz-adv-x="782" 
d="M391 -18q-73 0 -136 27.5t-110 75.5t-74 112t-27 137t27 137t73.5 111.5t110 75t136.5 27.5t136 -27.5t110 -75t74 -111.5t27 -137t-27 -137t-74 -112t-110 -75.5t-136 -27.5zM391 101q49 0 89 19t68 51.5t43 75.5t15 90q0 48 -15 90.5t-43 74.5t-68 50.5t-89 18.5
q-50 0 -89.5 -18.5t-67.5 -50.5t-43 -74.5t-15 -90.5q0 -47 15 -90t43 -75.5t67.5 -51.5t89.5 -19z" />
    <glyph glyph-name="P" unicode="P" horiz-adv-x="558" 
d="M70 667h214q70 0 114.5 -21.5t70.5 -53t36 -67.5t10 -66q0 -56 -20 -96t-52 -65.5t-72 -37.5t-79 -12h-101v-248h-121v667zM282 354q48 0 76.5 28t28.5 73q0 47 -30 76.5t-75 29.5h-91v-207h91z" />
    <glyph glyph-name="Q" unicode="Q" horiz-adv-x="782" 
d="M548 19q-35 -17 -75 -27t-82 -10q-73 0 -136 27.5t-110 75.5t-74 112t-27 137t27 137t73.5 111.5t110 75t136.5 27.5t136 -27.5t110 -75t74 -111.5t27 -137q0 -77 -29.5 -143t-80.5 -115l75 -96l-75 -63zM396 214l75 63l79 -102q27 32 41.5 73.5t14.5 88.5q0 48 -15 90.5
t-43 74.5t-68 50.5t-89 18.5q-50 0 -89.5 -18.5t-67.5 -50.5t-43 -74.5t-15 -90.5q0 -47 15 -90t43 -75.5t67.5 -51.5t89.5 -19q43 0 81 15z" />
    <glyph glyph-name="R" unicode="R" horiz-adv-x="586" 
d="M70 667h221q63 0 107 -19t71 -48.5t39.5 -64.5t12.5 -67q0 -63 -27.5 -111.5t-84.5 -77.5l154 -279h-142l-135 263h-95v-263h-121v667zM292 367q48 0 74.5 28t26.5 68q0 43 -28 70t-73 27h-101v-193h101z" />
    <glyph glyph-name="S" unicode="S" horiz-adv-x="593" 
d="M119 188q12 -14 28.5 -29.5t37 -29t46 -22.5t57.5 -9q59 0 87.5 27t28.5 65q0 21 -8 37.5t-27 29t-49.5 22.5t-75.5 19q-46 9 -79.5 28t-55.5 45t-33 57.5t-11 64.5q0 38 14 72.5t43 61t72.5 42.5t102.5 16q53 0 91 -12t63.5 -28t39.5 -31.5t20 -22.5l-83 -78
q-5 4 -16 14.5t-27.5 20.5t-39.5 18t-52 8q-26 0 -45 -7t-31.5 -18t-18.5 -24.5t-6 -25.5q0 -18 6.5 -32t22 -26t42.5 -21.5t68 -17.5q39 -8 75 -24t63.5 -41.5t44 -62t16.5 -87.5q0 -44 -18 -81t-50 -65t-76 -43.5t-96 -15.5q-50 0 -90.5 12t-73 30.5t-56 40.5t-39.5 42z
" />
    <glyph glyph-name="T" unicode="T" horiz-adv-x="624" 
d="M249 556h-226v111h578v-111h-226v-556h-126v556z" />
    <glyph glyph-name="U" unicode="U" horiz-adv-x="674" 
d="M65 667h126v-399q0 -38 7.5 -68.5t24.5 -52t45 -33t69 -11.5t69 11.5t45 33t24.5 52t7.5 68.5v399h126v-421q0 -56 -18 -104t-53 -83.5t-85.5 -56t-115.5 -20.5t-115.5 20.5t-85.5 56t-53 83.5t-18 104v421z" />
    <glyph glyph-name="V" unicode="V" horiz-adv-x="636" 
d="M5 667h140l177 -509l177 509h132l-248 -667h-130z" />
    <glyph glyph-name="W" unicode="W" horiz-adv-x="880" 
d="M10 667h138l109 -499l129 480h114l130 -480l108 499h132l-175 -667h-132l-124 441l-126 -441h-130z" />
    <glyph glyph-name="X" unicode="X" horiz-adv-x="605" 
d="M227 345l-213 322h152l139 -218l134 218h137l-205 -319l229 -348h-152l-154 243l-152 -243h-137z" />
    <glyph glyph-name="Y" unicode="Y" horiz-adv-x="600" 
d="M236 293l-231 374h138l160 -266l160 266h132l-231 -374v-293h-128v293z" />
    <glyph glyph-name="Z" unicode="Z" horiz-adv-x="658" 
d="M53 110l393 446h-375v111h526v-111l-385 -446h393v-110h-552v110z" />
    <glyph glyph-name="bracketleft" unicode="[" horiz-adv-x="330" 
d="M73 706h234v-105h-116v-587h116v-107h-234v799z" />
    <glyph glyph-name="backslash" unicode="\" horiz-adv-x="426" 
d="M23 685h114l266 -701h-117z" />
    <glyph glyph-name="bracketright" unicode="]" horiz-adv-x="330" 
d="M23 14h116v587h-116v105h234v-799h-234v107z" />
    <glyph glyph-name="asciicircum" unicode="^" horiz-adv-x="562" 
d="M226 667h110l173 -359h-117l-111 245l-111 -245h-117z" />
    <glyph glyph-name="underscore" unicode="_" horiz-adv-x="500" 
d="M0 -65h500v-55h-500v55z" />
    <glyph glyph-name="grave" unicode="`" horiz-adv-x="502" 
d="M144 682h126l48 -142h-95z" />
    <glyph glyph-name="a" unicode="a" horiz-adv-x="504" 
d="M335 44q-19 -23 -58 -41t-87 -18q-29 0 -57.5 9t-52 27.5t-38 47.5t-14.5 68q0 40 15 71.5t42 53t65 32.5t84 11q14 0 31 -0.5t33 -1.5q18 -1 37 -2v11q0 35 -28 55t-73 20q-50 0 -80 -13t-53 -28l-54 80q14 10 32 20.5t42 19t55.5 14t73.5 5.5q45 0 81.5 -12.5t62.5 -35
t40 -54t14 -68.5v-315h-110zM335 212q-18 1 -35 2q-14 1 -29.5 1.5t-26.5 0.5q-57 0 -80 -22.5t-23 -51.5q0 -30 21.5 -47t63.5 -17q21 0 40.5 7t34.5 19t24.5 28t9.5 34v46z" />
    <glyph glyph-name="b" unicode="b" horiz-adv-x="555" 
d="M58 667h118v-230q12 12 46 27t82 15q51 0 90.5 -19t67.5 -51t42.5 -76t14.5 -93q0 -53 -18.5 -99.5t-53 -81t-83.5 -55t-110 -20.5t-112.5 10t-83.5 21v652zM176 96q14 -5 29 -7.5t47 -2.5q36 0 63 12.5t46 33.5t28.5 48.5t9.5 56.5q0 27 -6.5 52t-20.5 44.5t-35.5 31
t-51.5 11.5q-54 0 -81.5 -27.5t-27.5 -75.5v-177z" />
    <glyph glyph-name="c" unicode="c" horiz-adv-x="492" 
d="M471 62q-33 -35 -78 -56t-105 -21t-107 18t-79 51t-49 79t-17 102q0 51 18.5 96.5t51.5 79.5t79.5 54t102.5 20q57 0 104 -20.5t80 -55.5l-75 -76q-20 23 -47 36t-62 13q-34 0 -59 -12.5t-41.5 -32.5t-24.5 -47t-8 -55q0 -27 8 -53t24.5 -47t41.5 -34t59 -13
q35 0 64 13.5t49 36.5z" />
    <glyph glyph-name="d" unicode="d" horiz-adv-x="557" 
d="M382 46q-9 -10 -22 -21t-30.5 -20t-39 -15t-48.5 -6q-38 0 -75 16t-66 47t-47 76t-18 103q0 55 16 96.5t40 70.5q20 24 44 40t48.5 26.5t47.5 15t40 4.5q23 0 38 -1.5t27 -4t22 -6.5t23 -9v209h117v-667h-114zM382 352q-17 14 -39.5 19.5t-57.5 5.5t-58 -13.5t-40 -35.5
q-15 -20 -23.5 -46.5t-8.5 -55.5q0 -60 30 -100t87 -40q30 0 51 11.5t34 29.5t19 39.5t6 41.5v144z" />
    <glyph glyph-name="e" unicode="e" horiz-adv-x="538" 
d="M499 68l-16.5 -16.5t-39 -28.5t-65 -27t-94.5 -12q-56 0 -102 19t-78.5 52.5t-50 80.5t-17.5 104q0 52 17.5 96.5t49 77.5t75 52t96.5 19q64 0 108.5 -23.5t71.5 -61.5t39 -86t12 -98v-17h-350q0 -26 11.5 -47t30 -36t42 -23t46.5 -8q34 0 59.5 6.5t43.5 15t29.5 18
t17.5 15.5zM384 284q0 18 -7 36t-20.5 32.5t-34.5 24t-48 9.5q-29 0 -51.5 -9.5t-37.5 -24t-23 -32.5t-8 -36h230z" />
    <glyph glyph-name="f" unicode="f" horiz-adv-x="340" 
d="M93 373h-80v96h80v29q0 51 16 86.5t41 58t56 32.5t61 10q32 0 71 -9t75 -40l-55 -78q-16 11 -34.5 18t-37.5 7q-35 0 -55.5 -22.5t-20.5 -64.5v-27h121v-96h-120v-373h-118v373z" />
    <glyph glyph-name="g" unicode="g" horiz-adv-x="555" 
d="M134 -76q28 -19 60.5 -27.5t76.5 -8.5q46 0 77 28t31 78v51q-24 -20 -52.5 -32.5t-75.5 -12.5q-51 0 -90.5 17t-67.5 47.5t-42.5 72t-14.5 91.5q0 52 18.5 98t53 80t83.5 53.5t110 19.5t112.5 -10t83.5 -21v-456q0 -49 -17 -87t-47 -64t-71 -39.5t-89 -13.5
q-37 0 -65.5 3.5t-51 9.5t-41 15t-34.5 21zM379 367q-14 5 -29 7.5t-47 2.5q-36 0 -63 -12t-46 -32t-28.5 -46.5t-9.5 -55.5q0 -54 27 -91t87 -37q54 0 81.5 23t27.5 73v168z" />
    <glyph glyph-name="h" unicode="h" horiz-adv-x="551" 
d="M58 667h116v-246q18 20 52.5 39t88.5 19q43 0 77 -14t56.5 -39.5t34.5 -61.5t12 -79v-285h-118v284q0 45 -24.5 69.5t-63.5 24.5q-24 0 -45 -9.5t-36 -26.5t-23.5 -39.5t-8.5 -48.5v-254h-118v667z" />
    <glyph glyph-name="i" unicode="i" horiz-adv-x="244" 
d="M59 667h126v-124h-126v124zM63 469h118v-469h-118v469z" />
    <glyph glyph-name="j" unicode="j" horiz-adv-x="244" 
d="M58 667h126v-124h-126v124zM-43 -83q9 -5 22 -10.5t32 -5.5q23 0 37.5 19t14.5 56v493h118v-470q0 -35 -5.5 -70t-22 -64t-46.5 -47t-80 -18q-42 0 -69.5 12.5t-44.5 24.5z" />
    <glyph glyph-name="k" unicode="k" horiz-adv-x="512" 
d="M58 667h118v-364l169 166h139l-176 -173l196 -296h-141l-136 216l-51 -50v-166h-118v667z" />
    <glyph glyph-name="l" unicode="l" horiz-adv-x="234" 
d="M58 667h118v-667h-118v667z" />
    <glyph glyph-name="m" unicode="m" horiz-adv-x="852" 
d="M58 469h113l3 -53q9 10 20.5 21.5t28 20.5t38 15t49.5 6q93 0 141 -68q36 37 73.5 52.5t87.5 15.5q89 0 136.5 -52.5t47.5 -141.5v-285h-118v284q0 45 -22.5 69.5t-61.5 24.5q-24 0 -44 -9.5t-34.5 -26.5t-22 -39.5t-7.5 -48.5v-254h-118v284q0 45 -22.5 69.5t-61.5 24.5
q-24 0 -44 -9.5t-34.5 -26.5t-22 -39.5t-7.5 -48.5v-254h-118v469z" />
    <glyph glyph-name="n" unicode="n" horiz-adv-x="551" 
d="M58 469h113l3 -53q9 10 21.5 21t30 20.5t39.5 15.5t50 6q88 0 134 -52.5t46 -141.5v-285h-118v284q0 45 -24.5 69.5t-63.5 24.5q-24 0 -45 -9.5t-36 -26.5t-23.5 -39.5t-8.5 -48.5v-254h-118v469z" />
    <glyph glyph-name="o" unicode="o" horiz-adv-x="576" 
d="M36 235q0 51 18.5 96.5t51.5 79.5t79.5 54t102.5 20t102.5 -20t79.5 -54t51.5 -79.5t18.5 -96.5t-18.5 -96.5t-51.5 -80t-79.5 -54.5t-102.5 -20t-102.5 20t-79.5 54.5t-51.5 80t-18.5 96.5zM288 86q34 0 59 13.5t41.5 35.5t24.5 48t8 52q0 25 -8 51.5t-24.5 48t-41.5 35
t-59 13.5t-59 -13.5t-41.5 -35t-24.5 -48t-8 -51.5q0 -26 8 -52t24.5 -48t41.5 -35.5t59 -13.5z" />
    <glyph glyph-name="p" unicode="p" horiz-adv-x="571" 
d="M58 469h114l3 -53q9 10 22.5 21t32 20t42 15t52.5 6q54 0 93.5 -21t65.5 -55.5t39 -78.5t13 -91q0 -55 -16 -94t-40 -68q-40 -48 -87.5 -67t-97.5 -19q-23 0 -39.5 2t-30 5.5t-25 8t-24.5 9.5v-209h-117v669zM175 115q35 -29 106 -29q32 0 57 12.5t42.5 33t26.5 46.5
t9 54q0 30 -6.5 56t-21 45.5t-37.5 31t-57 11.5q-27 0 -49 -11.5t-37.5 -29.5t-24 -39.5t-8.5 -41.5v-139z" />
    <glyph glyph-name="q" unicode="q" horiz-adv-x="555" 
d="M379 27q-14 -14 -43.5 -28.5t-73.5 -14.5q-55 0 -97 19.5t-70.5 53t-43.5 77.5t-15 94q0 52 18.5 98t53 80t83.5 53.5t110 19.5t112.5 -10t83.5 -21v-648h-118v227zM379 367q-14 5 -29 7.5t-47 2.5q-39 0 -67 -11.5t-45.5 -31t-26 -46.5t-8.5 -57q0 -27 6.5 -53t20.5 -46
t35.5 -32.5t51.5 -12.5q54 0 81.5 24t27.5 84v172z" />
    <glyph glyph-name="r" unicode="r" horiz-adv-x="382" 
d="M58 469h113l3 -59q8 10 20.5 22t29.5 22t39.5 17t51.5 7q17 0 30.5 -2t27.5 -7l-24 -111q-12 5 -24.5 7t-29.5 2q-24 0 -46 -8t-38 -23t-25.5 -36t-9.5 -47v-253h-118v469z" />
    <glyph glyph-name="s" unicode="s" horiz-adv-x="478" 
d="M106 134q22 -22 55.5 -36.5t76.5 -14.5q38 0 61 10t23 33q0 10 -4 18.5t-17 16.5t-36 16t-62 17q-24 6 -50 16t-48.5 27.5t-37 42t-14.5 58.5q0 35 17 62.5t44.5 46t62 28.5t69.5 10q62 0 105.5 -13t78.5 -39l-61 -83q-19 14 -50 25.5t-73 11.5t-58.5 -12.5t-16.5 -30.5
q0 -22 27.5 -34.5t85.5 -26.5q36 -8 64.5 -20t49 -30t31.5 -42.5t11 -58.5t-16 -61.5t-43.5 -46.5t-64 -29.5t-77.5 -10.5q-66 0 -119 18.5t-85 54.5z" />
    <glyph glyph-name="t" unicode="t" horiz-adv-x="402" 
d="M98 373h-80v96h80v152h118v-152h126v-96h-126v-205q0 -40 13.5 -61.5t43.5 -21.5q28 0 44.5 8t31.5 19l50 -73q-35 -29 -69 -41.5t-76 -12.5q-43 0 -73 12.5t-48.5 35.5t-26.5 55.5t-8 71.5v213z" />
    <glyph glyph-name="u" unicode="u" horiz-adv-x="551" 
d="M56 469h118v-284q0 -45 24.5 -69.5t63.5 -24.5q24 0 45 9.5t36 26.5t23.5 39.5t8.5 48.5v254h118v-469h-113l-3 53q-9 -10 -22 -21t-30 -20.5t-39 -15.5t-50 -6q-88 0 -134 52.5t-46 141.5v285z" />
    <glyph glyph-name="v" unicode="v" horiz-adv-x="527" 
d="M5 469h136l126 -336l126 336h129l-198 -469h-120z" />
    <glyph glyph-name="w" unicode="w" horiz-adv-x="749" 
d="M9 469h130l90 -326l99 326h99l100 -326l89 326h124l-159 -469h-114l-96 283l-93 -283h-110z" />
    <glyph glyph-name="x" unicode="x" horiz-adv-x="507" 
d="M183 237l-170 232h149l94 -136l95 136h133l-165 -220l183 -249h-149l-107 153l-108 -153h-133z" />
    <glyph glyph-name="y" unicode="y" horiz-adv-x="527" 
d="M77 -93q10 -8 22 -15.5t30 -7.5q24 0 39.5 20t32.5 62l15 38l-211 465h136l134 -321l118 321h129l-196 -469q-14 -35 -28 -72t-34.5 -68.5t-50.5 -51.5t-76 -20q-40 0 -66.5 9.5t-46.5 26.5z" />
    <glyph glyph-name="z" unicode="z" horiz-adv-x="472" 
d="M46 90l239 280h-232v99h379v-92l-247 -281h247v-96h-386v90z" />
    <glyph glyph-name="braceleft" unicode="{" horiz-adv-x="304" 
d="M104 199q-2 31 -18.5 52t-54.5 21v70q38 0 54.5 21t18.5 52l14 170q4 44 15 73t34 48h124q-18 -18 -32 -49.5t-16 -60.5l-16 -195q-3 -36 -22.5 -61t-47.5 -33q28 -8 47.5 -33t22.5 -61l16 -195q2 -29 16 -61t32 -50h-124q-23 19 -34 48.5t-15 73.5z" />
    <glyph glyph-name="bar" unicode="|" horiz-adv-x="245" 
d="M68 833h109v-997h-109v997z" />
    <glyph glyph-name="braceright" unicode="}" horiz-adv-x="304" 
d="M13 -93q18 18 32 50t16 61l16 195q3 36 22.5 61t47.5 33q-28 8 -47.5 33t-22.5 61l-16 195q-2 29 -16 60.5t-32 49.5h124q23 -19 34 -48t15 -73l14 -170q2 -31 18.5 -52t54.5 -21v-70q-38 0 -54.5 -21t-18.5 -52l-14 -170q-4 -44 -15 -73.5t-34 -48.5h-124z" />
    <glyph glyph-name="asciitilde" unicode="~" horiz-adv-x="499" 
d="M38 314q9 10 23 21.5t31 21t37 16t42 6.5q23 0 40 -7t32.5 -16t32 -16t38.5 -7q18 0 33 4.5t26.5 10.5t20.5 13t17 12l50 -76q-9 -10 -22.5 -22t-30.5 -22t-37 -16.5t-42 -6.5q-23 0 -40 7.5t-33 16.5t-32.5 16.5t-38.5 7.5q-37 0 -59.5 -14.5t-37.5 -25.5z" />
    <glyph glyph-name="uni00A0" unicode="&#xa0;" horiz-adv-x="181" 
 />
    <glyph glyph-name="exclamdown" unicode="&#xa1;" horiz-adv-x="279" 
d="M76 260h127l2 -458h-131zM68 469h143v-138h-143v138z" />
    <glyph glyph-name="cent" unicode="&#xa2;" horiz-adv-x="545" 
d="M277 67q-49 7 -87 28.5t-64.5 54t-40 74.5t-13.5 90q0 45 14.5 86.5t41.5 74t64.5 55t84.5 30.5v89h75v-87q48 -5 87.5 -24t68.5 -50l-75 -76q-16 18 -36 30.5t-45 17.5v-291q52 9 85 48l70 -76q-29 -32 -67.5 -51.5t-87.5 -24.5v-84h-75v86zM277 453q-44 -17 -65 -57
t-21 -82q0 -19 5.5 -39.5t16 -39.5t26.5 -35t38 -25v278z" />
    <glyph glyph-name="sterling" unicode="&#xa3;" horiz-adv-x="545" 
d="M117 269h-76v96h76v77q0 27 9 63t32.5 67.5t64.5 53.5t106 22q39 0 68 -8t50.5 -19t37 -24.5t26.5 -23.5l-77 -83q-11 11 -21.5 19.5t-22 14.5t-26 9.5t-33.5 3.5q-24 0 -41 -10t-27.5 -27t-15 -38.5t-4.5 -43.5v-53h194v-96h-194v-157h274v-112h-400v269z" />
    <glyph glyph-name="currency" unicode="&#xa4;" horiz-adv-x="545" 
d="M95 226q-28 47 -28 103q0 55 28 103l-63 64l69 69l63 -63q23 15 50.5 23.5t57.5 8.5q29 0 56.5 -8.5t51.5 -23.5l63 63l69 -69l-64 -64q14 -23 21.5 -49t7.5 -54q0 -29 -7.5 -54.5t-21.5 -48.5l64 -64l-69 -69l-63 62q-50 -31 -108 -31q-60 0 -108 31l-63 -62l-69 69z
M163 329q0 -23 8.5 -42.5t23.5 -34.5t34.5 -23.5t42.5 -8.5q22 0 42 8.5t35 23.5t23.5 34.5t8.5 42.5q0 22 -8.5 42t-23.5 35t-35 23.5t-42 8.5q-23 0 -42.5 -8.5t-34.5 -23.5t-23.5 -35t-8.5 -42z" />
    <glyph glyph-name="yen" unicode="&#xa5;" horiz-adv-x="545" 
d="M74 190h139v77h-139v74h97l-165 290h138l132 -266l131 266h132l-165 -290h108v-74h-149v-77h149v-74h-149v-116h-120v116h-139v74z" />
    <glyph glyph-name="brokenbar" unicode="&#xa6;" horiz-adv-x="245" 
d="M68 215h109v-379h-109v379zM68 833h109v-379h-109v379z" />
    <glyph glyph-name="section" unicode="&#xa7;" horiz-adv-x="452" 
d="M141 327q-50 32 -73.5 76.5t-22.5 91.5q0 36 12.5 70.5t37 61t61 42.5t83.5 16q27 0 50 -6.5t41.5 -15.5t32.5 -18.5t22 -15.5l-57 -86q-26 18 -46 26.5t-45 8.5q-18 0 -32.5 -6.5t-24 -16.5t-15 -23t-5.5 -25q0 -11 1.5 -21.5t7 -21t16 -21t28.5 -22.5l193 -131l-64 -95
zM114 -70q26 -18 46 -26.5t45 -8.5q18 0 32.5 6.5t24 16.5t15 23t5.5 25q0 22 -8.5 42t-44.5 44l-193 131l64 95l201 -132q50 -32 73.5 -76.5t22.5 -91.5q0 -36 -12.5 -70.5t-37 -61t-61 -42.5t-83.5 -16q-27 0 -50 6.5t-41.5 15.5t-32.5 18.5t-22 15.5z" />
    <glyph glyph-name="dieresis" unicode="&#xa8;" horiz-adv-x="346" 
d="M207 666h115v-109h-115v109zM22 666h115v-109h-115v109z" />
    <glyph glyph-name="copyright" unicode="&#xa9;" horiz-adv-x="809" 
d="M404 -14q-73 0 -136 27t-109.5 74.5t-73.5 111t-27 136.5t27 136.5t73.5 110.5t110 74.5t136.5 27.5t136 -27.5t109.5 -74.5t73.5 -110.5t27 -136.5t-27 -136.5t-74 -111t-110 -74.5t-136 -27zM404 69q55 0 102 20.5t81.5 56t54 84t19.5 105.5q0 56 -19.5 104.5t-54 84.5
t-81.5 56.5t-101 20.5q-55 0 -102 -20.5t-81.5 -56.5t-54.5 -84.5t-20 -104.5q0 -57 19.5 -105.5t54 -84t81.5 -56t102 -20.5zM562 227q-23 -33 -62 -56.5t-90 -23.5q-43 0 -78 14.5t-60 40t-38.5 60.5t-13.5 76q0 39 14 73.5t39.5 60t60 40.5t76.5 15q51 0 90 -23.5
t62 -56.5l-65 -50q-12 17 -32.5 32t-49.5 15q-47 0 -74.5 -31t-27.5 -76q0 -21 7.5 -40t21 -33.5t32 -23t41.5 -8.5q29 0 49.5 15t32.5 32z" />
    <glyph glyph-name="ordfeminine" unicode="&#xaa;" horiz-adv-x="379" 
d="M48 606q25 19 55 30.5t83 11.5q63 0 100.5 -33t37.5 -85v-208h-81q-1 5 -1 9t-0.5 8t-0.5 8q-12 -12 -36.5 -22.5t-47.5 -10.5q-22 0 -43 5.5t-37.5 18t-27 32t-10.5 46.5q0 56 39 81.5t102 25.5q26 0 61 -3v8q0 20 -13.5 33.5t-44.5 13.5q-35 0 -55 -9t-38 -20zM241 454
q-10 2 -27 2.5t-28 0.5q-35 0 -50.5 -10.5t-15.5 -27.5q0 -20 13 -27.5t41 -7.5q27 0 47 16t20 36v18z" />
    <glyph glyph-name="guillemotleft" unicode="&#xab;" horiz-adv-x="536" 
d="M58 241l104 194h115l-99 -194l99 -194h-115zM254 241l104 194h115l-99 -194l99 -194h-115z" />
    <glyph glyph-name="logicalnot" unicode="&#xac;" horiz-adv-x="545" 
d="M74 371h398v-245h-100v146h-298v99z" />
    <glyph glyph-name="uni00AD" unicode="&#xad;" horiz-adv-x="441" 
d="M68 335h305v-112h-305v112z" />
    <glyph glyph-name="registered" unicode="&#xae;" horiz-adv-x="809" 
d="M274 511h145q35 0 59.5 -10t40 -25.5t22.5 -34t7 -34.5q0 -30 -15.5 -56.5t-47.5 -41.5l83 -143h-92l-75 131h-44v-131h-83v345zM416 361q27 0 37.5 11.5t10.5 28.5q0 20 -11 31t-37 11h-59v-82h59zM404 -14q-73 0 -136 27t-109.5 74.5t-73.5 111t-27 136.5t27 136.5
t73.5 110.5t110 74.5t136.5 27.5t136 -27.5t109.5 -74.5t73.5 -110.5t27 -136.5t-27 -136.5t-74 -111t-110 -74.5t-136 -27zM404 69q55 0 102 20.5t81.5 56t54 84t19.5 105.5q0 56 -19.5 104.5t-54 84.5t-81.5 56.5t-101 20.5q-55 0 -102 -20.5t-81.5 -56.5t-54.5 -84.5
t-20 -104.5q0 -57 19.5 -105.5t54 -84t81.5 -56t102 -20.5z" />
    <glyph glyph-name="macron" unicode="&#xaf;" horiz-adv-x="347" 
d="M43 649h261v-92h-261v92z" />
    <glyph glyph-name="degree" unicode="&#xb0;" horiz-adv-x="337" 
d="M28 530q0 30 11 55t30 43t44.5 28.5t54.5 10.5q30 0 55.5 -10.5t44.5 -28.5t30 -43t11 -54q0 -30 -11 -55t-30 -43t-44.5 -28.5t-54.5 -10.5q-30 0 -55.5 10.5t-44.5 28.5t-30 43t-11 54zM169 467q27 0 44.5 18t17.5 46q0 27 -17.5 45t-45.5 18q-27 0 -44.5 -18
t-17.5 -46q0 -27 17.5 -45t45.5 -18z" />
    <glyph glyph-name="plusminus" unicode="&#xb1;" horiz-adv-x="545" 
d="M74 99h398v-99h-398v99zM74 371h149v147h100v-147h149v-99h-149v-136h-100v136h-149v99z" />
    <glyph glyph-name="twosuperior" unicode="&#xb2;" 
d="M49 340q0 26 12.5 46.5t30.5 37.5t40 31t40 26.5t30.5 24.5t12.5 25q0 18 -11 25.5t-28 7.5q-23 0 -50 -11t-47 -24l-36 70q25 17 63 32.5t82 15.5q66 0 97 -30.5t31 -75.5q0 -36 -17 -58.5t-41 -39.5t-51 -32t-47 -36h157v-80h-268v45z" />
    <glyph glyph-name="threesuperior" unicode="&#xb3;" 
d="M74 395q18 -14 40.5 -23t47.5 -9q24 0 39 10t15 31q0 26 -19 34t-47 8q-13 0 -26 -2t-23 -5l-16 35l106 84h-133v79h240v-76l-77 -61q52 -10 71.5 -39t19.5 -67q0 -48 -40.5 -78.5t-108.5 -30.5q-42 0 -75.5 11.5t-57.5 30.5z" />
    <glyph glyph-name="acute" unicode="&#xb4;" horiz-adv-x="502" 
d="M259 682h126l-79 -142h-95z" />
    <glyph glyph-name="mu" unicode="&#xb5;" horiz-adv-x="551" 
d="M59 469h118v-284q0 -45 24.5 -69.5t63.5 -24.5q49 0 81 33.5t32 85.5v259h118v-469h-113l-3 48q-18 -20 -50 -39t-77 -19q-20 0 -36.5 5t-39.5 19v-214h-118v669z" />
    <glyph glyph-name="paragraph" unicode="&#xb6;" horiz-adv-x="557" 
d="M362 667h122v-789h-122v789zM273 299q-50 0 -93 9t-74.5 30.5t-49.5 56.5t-18 88q0 52 18 87.5t49.5 57t74.5 30.5t93 9h30v-368h-30zM183 255q20 -6 44.5 -8t45.5 -2h30v-367h-120v377z" />
    <glyph glyph-name="periodcentered" unicode="&#xb7;" horiz-adv-x="279" 
d="M68 392h143v-138h-143v138z" />
    <glyph glyph-name="cedilla" unicode="&#xb8;" horiz-adv-x="705" 
d="M105 -149q19 -7 36 -9.5t33 -2.5q58 0 58 32q0 12 -12.5 21t-41.5 9q-17 0 -33.5 -3t-29.5 -8l11 67q18 5 36.5 8.5t47.5 3.5q54 0 84.5 -26t30.5 -67q0 -26 -11 -46t-29.5 -33.5t-42 -20t-48.5 -6.5q-24 0 -42.5 2t-32.5 5q-16 3 -27 7z" />
    <glyph glyph-name="onesuperior" unicode="&#xb9;" 
d="M173 533l-78 -39l-36 72l126 71h86v-342h-98v238z" />
    <glyph glyph-name="ordmasculine" unicode="&#xba;" horiz-adv-x="423" 
d="M43 481q0 36 12.5 66.5t35 53t53.5 35t68 12.5q36 0 67 -12.5t53.5 -35t35 -53t12.5 -66.5t-12.5 -66.5t-35 -53t-53.5 -35t-67 -12.5q-37 0 -68 12.5t-53.5 35t-35 53t-12.5 66.5zM212 394q38 0 57 26t19 61t-19 61t-57 26t-57.5 -26t-19.5 -61t19.5 -61t57.5 -26z" />
    <glyph glyph-name="guillemotright" unicode="&#xbb;" horiz-adv-x="536" 
d="M162 241l-99 194h115l104 -194l-104 -194h-115zM358 241l-99 194h115l104 -194l-104 -194h-115z" />
    <glyph glyph-name="onequarter" unicode="&#xbc;" horiz-adv-x="925" 
d="M200 533l-78 -39l-36 72l126 71h86v-342h-98v238zM616 630h107l-406 -630h-107zM535 135l172 211h96v-211h41v-71h-41v-60h-87v60h-181v71zM716 135v122l-103 -122h103z" />
    <glyph glyph-name="onehalf" unicode="&#xbd;" horiz-adv-x="925" 
d="M180 533l-78 -39l-36 72l126 71h86v-342h-98v238zM596 630h107l-406 -630h-107zM591 49q0 26 12.5 46.5t30.5 37.5t40 31t40 26.5t30.5 24.5t12.5 25q0 18 -11 25.5t-28 7.5q-23 0 -50 -11t-47 -24l-36 70q25 17 63 32.5t82 15.5q66 0 97 -30.5t31 -75.5q0 -36 -17 -58.5
t-41 -39.5t-51 -32t-47 -36h157v-80h-268v45z" />
    <glyph glyph-name="threequarters" unicode="&#xbe;" horiz-adv-x="925" 
d="M114 395q18 -14 40.5 -23t47.5 -9q24 0 39 10t15 31q0 26 -19 34t-47 8q-13 0 -26 -2t-23 -5l-16 35l106 84h-133v79h240v-76l-77 -61q52 -10 71.5 -39t19.5 -67q0 -48 -40.5 -78.5t-108.5 -30.5q-42 0 -75.5 11.5t-57.5 30.5zM634 630h107l-406 -630h-107zM553 135
l172 211h96v-211h41v-71h-41v-60h-87v60h-181v71zM734 135v122l-103 -122h103z" />
    <glyph glyph-name="questiondown" unicode="&#xbf;" horiz-adv-x="512" 
d="M229 469h143v-138h-143v138zM489 -117q-5 -7 -20 -23t-41 -32.5t-64.5 -29.5t-89.5 -13q-49 0 -87 14t-64.5 38t-40.5 55.5t-14 65.5q0 56 22 91t66 67q22 16 38 28t26.5 25.5t15.5 29.5t5 39v22h120v-22q0 -19 -2.5 -40.5t-10.5 -44t-25 -44.5t-45 -42q-16 -11 -32 -23
t-29 -25t-21 -27.5t-8 -30.5q0 -30 23 -49.5t64 -19.5q27 0 50 8t40.5 18t29 20t16.5 15z" />
    <glyph glyph-name="Agrave" unicode="&#xc0;" horiz-adv-x="646" 
d="M258 667h130l253 -667h-140l-58 169h-248l-58 -169h-132zM407 273l-88 259l-89 -259h177zM179 873h146l73 -156h-105z" />
    <glyph glyph-name="Aacute" unicode="&#xc1;" horiz-adv-x="646" 
d="M258 667h130l253 -667h-140l-58 169h-248l-58 -169h-132zM407 273l-88 259l-89 -259h177zM338 873h146l-114 -156h-105z" />
    <glyph glyph-name="Acircumflex" unicode="&#xc2;" horiz-adv-x="646" 
d="M258 667h130l253 -667h-140l-58 169h-248l-58 -169h-132zM407 273l-88 259l-89 -259h177zM267 873h111l110 -156h-104l-62 82l-61 -82h-104z" />
    <glyph glyph-name="Atilde" unicode="&#xc3;" horiz-adv-x="646" 
d="M258 667h130l253 -667h-140l-58 169h-248l-58 -169h-132zM407 273l-88 259l-89 -259h177zM121 804q9 9 22 20t29.5 20t35.5 15t41 6t38 -6.5t30.5 -14.5t30 -14.5t36.5 -6.5q35 0 56.5 13t35.5 24l49 -75q-9 -9 -22 -20t-29 -20.5t-35 -16t-41 -6.5t-38 7t-31 15
t-30.5 15t-36.5 7q-35 0 -56.5 -13t-35.5 -24z" />
    <glyph glyph-name="Adieresis" unicode="&#xc4;" horiz-adv-x="646" 
d="M258 667h130l253 -667h-140l-58 169h-248l-58 -169h-132zM407 273l-88 259l-89 -259h177zM367 854h123v-117h-123v117zM154 854h123v-117h-123v117z" />
    <glyph glyph-name="Aring" unicode="&#xc5;" horiz-adv-x="646" 
d="M251 649q-26 17 -42 44.5t-16 62.5q0 28 10 51.5t28 40.5t42 26.5t51 9.5q28 0 52 -9.5t42 -26.5t28 -40.5t10 -50.5q0 -36 -16.5 -64t-44.5 -45l246 -648h-140l-58 169h-248l-58 -169h-132zM407 273l-88 259l-89 -259h177zM325 704q23 0 36.5 14.5t13.5 38.5
q0 23 -13.5 37.5t-37.5 14.5q-23 0 -36.5 -14.5t-13.5 -38.5q0 -23 13.5 -37.5t37.5 -14.5z" />
    <glyph glyph-name="AE" unicode="&#xc6;" horiz-adv-x="954" 
d="M383 667h505v-111h-308v-157h227v-112h-227v-174h331v-113h-455v169h-230l-97 -169h-129zM456 272v298l-171 -298h171z" />
    <glyph glyph-name="Ccedilla" unicode="&#xc7;" horiz-adv-x="680" 
d="M657 122q-15 -23 -41.5 -47t-62.5 -44.5t-79 -33.5t-91 -13q-75 0 -137 26t-107 72.5t-70 109.5t-25 138q0 73 25 137t70.5 112t108.5 76t139 28q49 0 90 -10.5t74.5 -28.5t59.5 -42.5t46 -52.5l-89 -79q-32 46 -74.5 74t-106.5 28q-49 0 -88 -19.5t-66.5 -52t-42 -76
t-14.5 -91.5t14.5 -90t41.5 -73t64.5 -49t84.5 -18q43 0 73.5 10t52 25t36 31.5t26.5 28.5zM264 -147q19 -7 36.5 -9.5t33.5 -2.5q26 0 41 7.5t15 22.5q0 12 -12.5 20.5t-39.5 8.5q-17 0 -34 -3t-30 -8l11 68q18 5 37 8.5t48 3.5q54 0 85.5 -26t31.5 -67q0 -26 -11.5 -46
t-30 -33.5t-42.5 -20t-49 -6.5q-24 0 -42.5 2t-32.5 5q-16 3 -28 7z" />
    <glyph glyph-name="Egrave" unicode="&#xc8;" horiz-adv-x="568" 
d="M70 667h432v-111h-306v-157h225v-112h-225v-174h329v-113h-455v667zM150 873h146l73 -156h-105z" />
    <glyph glyph-name="Eacute" unicode="&#xc9;" horiz-adv-x="568" 
d="M70 667h432v-111h-306v-157h225v-112h-225v-174h329v-113h-455v667zM303 873h146l-114 -156h-105z" />
    <glyph glyph-name="Ecircumflex" unicode="&#xca;" horiz-adv-x="568" 
d="M70 667h432v-111h-306v-157h225v-112h-225v-174h329v-113h-455v667zM230 873h111l110 -156h-104l-62 82l-61 -82h-104z" />
    <glyph glyph-name="Edieresis" unicode="&#xcb;" horiz-adv-x="568" 
d="M70 667h432v-111h-306v-157h225v-112h-225v-174h329v-113h-455v667zM330 854h123v-117h-123v117zM117 854h123v-117h-123v117z" />
    <glyph glyph-name="Igrave" unicode="&#xcc;" horiz-adv-x="266" 
d="M70 667h126v-667h-126v667zM-19 873h146l73 -156h-105z" />
    <glyph glyph-name="Iacute" unicode="&#xcd;" horiz-adv-x="266" 
d="M70 667h126v-667h-126v667zM143 873h146l-114 -156h-105z" />
    <glyph glyph-name="Icircumflex" unicode="&#xce;" horiz-adv-x="266" 
d="M70 667h126v-667h-126v667zM81 873h111l110 -156h-104l-62 82l-61 -82h-104z" />
    <glyph glyph-name="Idieresis" unicode="&#xcf;" horiz-adv-x="266" 
d="M70 667h126v-667h-126v667zM181 854h123v-117h-123v117zM-32 854h123v-117h-123v117z" />
    <glyph glyph-name="Eth" unicode="&#xd0;" horiz-adv-x="726" 
d="M70 287h-67v102h67v278h249q78 0 143 -20t112 -61t73 -105t26 -151q0 -83 -26.5 -144.5t-74 -103t-112.5 -62t-142 -20.5h-248v287zM310 113q114 0 174 55t60 161q0 105 -55.5 166t-178.5 61h-114v-167h155v-102h-155v-174h114z" />
    <glyph glyph-name="Ntilde" unicode="&#xd1;" horiz-adv-x="713" 
d="M70 667h127l323 -474v474h123v-667h-124l-326 480v-480h-123v667zM134 804q9 9 22 20t29.5 20t35.5 15t41 6t38 -6.5t30.5 -14.5t30 -14.5t36.5 -6.5q35 0 56.5 13t35.5 24l49 -75q-9 -9 -22 -20t-29 -20.5t-35 -16t-41 -6.5t-38 7t-31 15t-30.5 15t-36.5 7
q-35 0 -56.5 -13t-35.5 -24z" />
    <glyph glyph-name="Ograve" unicode="&#xd2;" horiz-adv-x="782" 
d="M391 -18q-73 0 -136 27.5t-110 75.5t-74 112t-27 137t27 137t73.5 111.5t110 75t136.5 27.5t136 -27.5t110 -75t74 -111.5t27 -137t-27 -137t-74 -112t-110 -75.5t-136 -27.5zM391 101q49 0 89 19t68 51.5t43 75.5t15 90q0 48 -15 90.5t-43 74.5t-68 50.5t-89 18.5
q-50 0 -89.5 -18.5t-67.5 -50.5t-43 -74.5t-15 -90.5q0 -47 15 -90t43 -75.5t67.5 -51.5t89.5 -19zM246 873h146l73 -156h-105z" />
    <glyph glyph-name="Oacute" unicode="&#xd3;" horiz-adv-x="782" 
d="M391 -18q-73 0 -136 27.5t-110 75.5t-74 112t-27 137t27 137t73.5 111.5t110 75t136.5 27.5t136 -27.5t110 -75t74 -111.5t27 -137t-27 -137t-74 -112t-110 -75.5t-136 -27.5zM391 101q49 0 89 19t68 51.5t43 75.5t15 90q0 48 -15 90.5t-43 74.5t-68 50.5t-89 18.5
q-50 0 -89.5 -18.5t-67.5 -50.5t-43 -74.5t-15 -90.5q0 -47 15 -90t43 -75.5t67.5 -51.5t89.5 -19zM401 873h146l-114 -156h-105z" />
    <glyph glyph-name="Ocircumflex" unicode="&#xd4;" horiz-adv-x="782" 
d="M391 -18q-73 0 -136 27.5t-110 75.5t-74 112t-27 137t27 137t73.5 111.5t110 75t136.5 27.5t136 -27.5t110 -75t74 -111.5t27 -137t-27 -137t-74 -112t-110 -75.5t-136 -27.5zM391 101q49 0 89 19t68 51.5t43 75.5t15 90q0 48 -15 90.5t-43 74.5t-68 50.5t-89 18.5
q-50 0 -89.5 -18.5t-67.5 -50.5t-43 -74.5t-15 -90.5q0 -47 15 -90t43 -75.5t67.5 -51.5t89.5 -19zM336 873h111l110 -156h-104l-62 82l-61 -82h-104z" />
    <glyph glyph-name="Otilde" unicode="&#xd5;" horiz-adv-x="782" 
d="M391 -18q-73 0 -136 27.5t-110 75.5t-74 112t-27 137t27 137t73.5 111.5t110 75t136.5 27.5t136 -27.5t110 -75t74 -111.5t27 -137t-27 -137t-74 -112t-110 -75.5t-136 -27.5zM391 101q49 0 89 19t68 51.5t43 75.5t15 90q0 48 -15 90.5t-43 74.5t-68 50.5t-89 18.5
q-50 0 -89.5 -18.5t-67.5 -50.5t-43 -74.5t-15 -90.5q0 -47 15 -90t43 -75.5t67.5 -51.5t89.5 -19zM190 804q9 9 22 20t29.5 20t35.5 15t41 6t38 -6.5t30.5 -14.5t30 -14.5t36.5 -6.5q35 0 56.5 13t35.5 24l49 -75q-9 -9 -22 -20t-29 -20.5t-35 -16t-41 -6.5t-38 7t-31 15
t-30.5 15t-36.5 7q-35 0 -56.5 -13t-35.5 -24z" />
    <glyph glyph-name="Odieresis" unicode="&#xd6;" horiz-adv-x="782" 
d="M391 -18q-73 0 -136 27.5t-110 75.5t-74 112t-27 137t27 137t73.5 111.5t110 75t136.5 27.5t136 -27.5t110 -75t74 -111.5t27 -137t-27 -137t-74 -112t-110 -75.5t-136 -27.5zM391 101q49 0 89 19t68 51.5t43 75.5t15 90q0 48 -15 90.5t-43 74.5t-68 50.5t-89 18.5
q-50 0 -89.5 -18.5t-67.5 -50.5t-43 -74.5t-15 -90.5q0 -47 15 -90t43 -75.5t67.5 -51.5t89.5 -19zM436 854h123v-117h-123v117zM223 854h123v-117h-123v117z" />
    <glyph glyph-name="multiply" unicode="&#xd7;" horiz-adv-x="545" 
d="M204 321l-111 112l69 69l112 -111l113 113l68 -69l-113 -113l111 -111l-69 -69l-111 111l-113 -113l-69 68z" />
    <glyph glyph-name="Oslash" unicode="&#xd8;" horiz-adv-x="782" 
d="M146 84q-48 48 -75 112t-27 138q0 73 27 137t73.5 111.5t110 75t136.5 27.5q80 0 150 -34l58 82l89 -56l-60 -86q51 -48 80.5 -114.5t29.5 -142.5q0 -73 -27 -137t-74 -112t-110 -75.5t-136 -27.5q-44 0 -84.5 10.5t-76.5 28.5l-61 -88l-89 56zM300 121q40 -20 91 -20
q49 0 89 19t68 51.5t43 75.5t15 90q0 44 -13 82.5t-36 70.5zM474 555q-40 16 -83 16q-50 0 -89.5 -18.5t-67.5 -50.5t-43 -74.5t-15 -90.5q0 -42 11 -79.5t33 -68.5z" />
    <glyph glyph-name="Ugrave" unicode="&#xd9;" horiz-adv-x="674" 
d="M65 667h126v-399q0 -38 7.5 -68.5t24.5 -52t45 -33t69 -11.5t69 11.5t45 33t24.5 52t7.5 68.5v399h126v-421q0 -56 -18 -104t-53 -83.5t-85.5 -56t-115.5 -20.5t-115.5 20.5t-85.5 56t-53 83.5t-18 104v421zM199 873h146l73 -156h-105z" />
    <glyph glyph-name="Uacute" unicode="&#xda;" horiz-adv-x="674" 
d="M65 667h126v-399q0 -38 7.5 -68.5t24.5 -52t45 -33t69 -11.5t69 11.5t45 33t24.5 52t7.5 68.5v399h126v-421q0 -56 -18 -104t-53 -83.5t-85.5 -56t-115.5 -20.5t-115.5 20.5t-85.5 56t-53 83.5t-18 104v421zM351 873h146l-114 -156h-105z" />
    <glyph glyph-name="Ucircumflex" unicode="&#xdb;" horiz-adv-x="674" 
d="M65 667h126v-399q0 -38 7.5 -68.5t24.5 -52t45 -33t69 -11.5t69 11.5t45 33t24.5 52t7.5 68.5v399h126v-421q0 -56 -18 -104t-53 -83.5t-85.5 -56t-115.5 -20.5t-115.5 20.5t-85.5 56t-53 83.5t-18 104v421zM283 873h111l110 -156h-104l-62 82l-61 -82h-104z" />
    <glyph glyph-name="Udieresis" unicode="&#xdc;" horiz-adv-x="674" 
d="M65 667h126v-399q0 -38 7.5 -68.5t24.5 -52t45 -33t69 -11.5t69 11.5t45 33t24.5 52t7.5 68.5v399h126v-421q0 -56 -18 -104t-53 -83.5t-85.5 -56t-115.5 -20.5t-115.5 20.5t-85.5 56t-53 83.5t-18 104v421zM382 854h123v-117h-123v117zM169 854h123v-117h-123v117z" />
    <glyph glyph-name="Yacute" unicode="&#xdd;" horiz-adv-x="600" 
d="M236 293l-231 374h138l160 -266l160 266h132l-231 -374v-293h-128v293zM321 873h146l-114 -156h-105z" />
    <glyph glyph-name="Thorn" unicode="&#xde;" horiz-adv-x="558" 
d="M70 667h121v-114h93q70 0 114.5 -21.5t70.5 -53t36 -67.5t10 -66q0 -56 -20 -96t-52 -65.5t-72 -37.5t-79 -12h-101v-134h-121v667zM282 240q48 0 76.5 28t28.5 73q0 47 -30 76.5t-75 29.5h-91v-207h91z" />
    <glyph glyph-name="germandbls" unicode="&#xdf;" horiz-adv-x="604" 
d="M58 474q0 60 16.5 100t47 64.5t72.5 35t93 10.5q37 0 71.5 -10.5t61 -30.5t42 -48t15.5 -63q0 -38 -17.5 -66.5t-38.5 -51.5t-38.5 -42.5t-17.5 -38.5q0 -18 21 -29.5t56 -19.5q61 -14 93.5 -47t32.5 -100q0 -69 -48.5 -108.5t-136.5 -39.5q-101 0 -166 57l71 82
q21 -19 45.5 -29t45.5 -10q40 0 57.5 9.5t17.5 32.5q0 10 -2.5 19.5t-11.5 17.5t-26 16t-46 17q-23 7 -44.5 15.5t-38 23.5t-26.5 37.5t-10 56.5q0 31 16.5 56.5t36.5 47.5t36.5 40.5t16.5 35.5q0 29 -19 49t-61 20q-54 0 -76.5 -31t-22.5 -83v-469h-118v474z" />
    <glyph glyph-name="agrave" unicode="&#xe0;" horiz-adv-x="504" 
d="M335 44q-19 -23 -58 -41t-87 -18q-29 0 -57.5 9t-52 27.5t-38 47.5t-14.5 68q0 40 15 71.5t42 53t65 32.5t84 11q14 0 31 -0.5t33 -1.5q18 -1 37 -2v11q0 35 -28 55t-73 20q-50 0 -80 -13t-53 -28l-54 80q14 10 32 20.5t42 19t55.5 14t73.5 5.5q45 0 81.5 -12.5t62.5 -35
t40 -54t14 -68.5v-315h-110zM335 212q-18 1 -35 2q-14 1 -29.5 1.5t-26.5 0.5q-57 0 -80 -22.5t-23 -51.5q0 -30 21.5 -47t63.5 -17q21 0 40.5 7t34.5 19t24.5 28t9.5 34v46zM137 682h126l48 -142h-95z" />
    <glyph glyph-name="aacute" unicode="&#xe1;" horiz-adv-x="504" 
d="M335 44q-19 -23 -58 -41t-87 -18q-29 0 -57.5 9t-52 27.5t-38 47.5t-14.5 68q0 40 15 71.5t42 53t65 32.5t84 11q14 0 31 -0.5t33 -1.5q18 -1 37 -2v11q0 35 -28 55t-73 20q-50 0 -80 -13t-53 -28l-54 80q14 10 32 20.5t42 19t55.5 14t73.5 5.5q45 0 81.5 -12.5t62.5 -35
t40 -54t14 -68.5v-315h-110zM335 212q-18 1 -35 2q-14 1 -29.5 1.5t-26.5 0.5q-57 0 -80 -22.5t-23 -51.5q0 -30 21.5 -47t63.5 -17q21 0 40.5 7t34.5 19t24.5 28t9.5 34v46zM250 682h126l-79 -142h-95z" />
    <glyph glyph-name="acircumflex" unicode="&#xe2;" horiz-adv-x="504" 
d="M335 44q-19 -23 -58 -41t-87 -18q-29 0 -57.5 9t-52 27.5t-38 47.5t-14.5 68q0 40 15 71.5t42 53t65 32.5t84 11q14 0 31 -0.5t33 -1.5q18 -1 37 -2v11q0 35 -28 55t-73 20q-50 0 -80 -13t-53 -28l-54 80q14 10 32 20.5t42 19t55.5 14t73.5 5.5q45 0 81.5 -12.5t62.5 -35
t40 -54t14 -68.5v-315h-110zM335 212q-18 1 -35 2q-14 1 -29.5 1.5t-26.5 0.5q-57 0 -80 -22.5t-23 -51.5q0 -30 21.5 -47t63.5 -17q21 0 40.5 7t34.5 19t24.5 28t9.5 34v46zM188 682h111l104 -142h-104l-56 76l-55 -76h-104z" />
    <glyph glyph-name="atilde" unicode="&#xe3;" horiz-adv-x="504" 
d="M335 44q-19 -23 -58 -41t-87 -18q-29 0 -57.5 9t-52 27.5t-38 47.5t-14.5 68q0 40 15 71.5t42 53t65 32.5t84 11q14 0 31 -0.5t33 -1.5q18 -1 37 -2v11q0 35 -28 55t-73 20q-50 0 -80 -13t-53 -28l-54 80q14 10 32 20.5t42 19t55.5 14t73.5 5.5q45 0 81.5 -12.5t62.5 -35
t40 -54t14 -68.5v-315h-110zM335 212q-18 1 -35 2q-14 1 -29.5 1.5t-26.5 0.5q-57 0 -80 -22.5t-23 -51.5q0 -30 21.5 -47t63.5 -17q21 0 40.5 7t34.5 19t24.5 28t9.5 34v46zM49 615q8 9 20.5 19t28 18.5t34 14.5t38.5 6q21 0 36 -6.5t29 -14t29 -14t35 -6.5q34 0 54 13
t34 23l45 -70q-8 -9 -20.5 -19.5t-27.5 -19.5t-33.5 -15t-38.5 -6q-21 0 -36.5 6.5t-29.5 15t-29 15t-35 6.5q-34 0 -54 -13t-34 -23z" />
    <glyph glyph-name="adieresis" unicode="&#xe4;" horiz-adv-x="504" 
d="M335 44q-19 -23 -58 -41t-87 -18q-29 0 -57.5 9t-52 27.5t-38 47.5t-14.5 68q0 40 15 71.5t42 53t65 32.5t84 11q14 0 31 -0.5t33 -1.5q18 -1 37 -2v11q0 35 -28 55t-73 20q-50 0 -80 -13t-53 -28l-54 80q14 10 32 20.5t42 19t55.5 14t73.5 5.5q45 0 81.5 -12.5t62.5 -35
t40 -54t14 -68.5v-315h-110zM335 212q-18 1 -35 2q-14 1 -29.5 1.5t-26.5 0.5q-57 0 -80 -22.5t-23 -51.5q0 -30 21.5 -47t63.5 -17q21 0 40.5 7t34.5 19t24.5 28t9.5 34v46zM287 666h115v-109h-115v109zM102 666h115v-109h-115v109z" />
    <glyph glyph-name="aring" unicode="&#xe5;" horiz-adv-x="504" 
d="M335 44q-19 -23 -58 -41t-87 -18q-29 0 -57.5 9t-52 27.5t-38 47.5t-14.5 68q0 40 15 71.5t42 53t65 32.5t84 11q14 0 31 -0.5t33 -1.5q18 -1 37 -2v11q0 35 -28 55t-73 20q-50 0 -80 -13t-53 -28l-54 80q14 10 32 20.5t42 19t55.5 14t73.5 5.5q45 0 81.5 -12.5t62.5 -35
t40 -54t14 -68.5v-315h-110zM335 212q-18 1 -35 2q-14 1 -29.5 1.5t-26.5 0.5q-57 0 -80 -22.5t-23 -51.5q0 -30 21.5 -47t63.5 -17q21 0 40.5 7t34.5 19t24.5 28t9.5 34v46zM137 644q0 24 9.5 45t25 36t37 23.5t45.5 8.5t45.5 -8.5t37.5 -23.5t25.5 -35.5t9.5 -44.5
t-9.5 -45t-25 -36t-37 -23.5t-45.5 -8.5t-45.5 8.5t-37.5 23.5t-25.5 35.5t-9.5 44.5zM254 600q19 0 31.5 12.5t12.5 31.5q0 18 -12.5 30.5t-30.5 12.5q-19 0 -31.5 -12.5t-12.5 -30.5q0 -19 12.5 -31.5t30.5 -12.5z" />
    <glyph glyph-name="ae" unicode="&#xe6;" horiz-adv-x="831" 
d="M47 426q13 10 30.5 20.5t41 19t54 14t69.5 5.5q59 0 98.5 -16.5t67.5 -49.5q27 31 69 48.5t90 17.5q64 0 108.5 -23.5t71.5 -61.5t39 -86t12 -98v-17h-350q0 -26 11.5 -47t30 -36t42 -23t46.5 -8q34 0 59.5 6.5t43.5 15t29.5 18t17.5 15.5l64 -72l-16.5 -16.5t-39 -28.5
t-65 -27t-94.5 -12q-60 0 -107 22t-80 60q-18 -22 -37.5 -37.5t-42 -25t-48.5 -14t-59 -4.5q-34 0 -65.5 9t-56 27.5t-39 47.5t-14.5 68q0 40 15 70t42 49.5t65 29.5t84 10q13 0 30 -0.5t32 -1.5t26 -1.5t13 -0.5v20q0 35 -26.5 55t-68.5 20q-54 0 -85 -13t-54 -28zM335 203
q-4 0 -15 1t-24.5 1.5t-27.5 1t-24 0.5q-53 0 -79.5 -18t-26.5 -47q0 -30 23 -47t65 -17q49 0 79 26t30 62v37zM677 284q0 18 -7 36t-20.5 32.5t-34.5 24t-48 9.5q-29 0 -51.5 -9.5t-37.5 -24t-23 -32.5t-8 -36h230z" />
    <glyph glyph-name="ccedilla" unicode="&#xe7;" horiz-adv-x="492" 
d="M471 62q-33 -35 -78 -56t-105 -21t-107 18t-79 51t-49 79t-17 102q0 51 18.5 96.5t51.5 79.5t79.5 54t102.5 20q57 0 104 -20.5t80 -55.5l-75 -76q-20 23 -47 36t-62 13q-34 0 -59 -12.5t-41.5 -32.5t-24.5 -47t-8 -55q0 -27 8 -53t24.5 -47t41.5 -34t59 -13
q35 0 64 13.5t49 36.5zM163 -149q19 -7 36 -9.5t33 -2.5q58 0 58 32q0 12 -12.5 21t-41.5 9q-17 0 -33.5 -3t-29.5 -8l11 67q18 5 36.5 8.5t47.5 3.5q54 0 84.5 -26t30.5 -67q0 -26 -11 -46t-29.5 -33.5t-42 -20t-48.5 -6.5q-24 0 -42.5 2t-32.5 5q-16 3 -27 7z" />
    <glyph glyph-name="egrave" unicode="&#xe8;" horiz-adv-x="538" 
d="M499 68l-16.5 -16.5t-39 -28.5t-65 -27t-94.5 -12q-56 0 -102 19t-78.5 52.5t-50 80.5t-17.5 104q0 52 17.5 96.5t49 77.5t75 52t96.5 19q64 0 108.5 -23.5t71.5 -61.5t39 -86t12 -98v-17h-350q0 -26 11.5 -47t30 -36t42 -23t46.5 -8q34 0 59.5 6.5t43.5 15t29.5 18
t17.5 15.5zM384 284q0 18 -7 36t-20.5 32.5t-34.5 24t-48 9.5q-29 0 -51.5 -9.5t-37.5 -24t-23 -32.5t-8 -36h230zM159 682h126l48 -142h-95z" />
    <glyph glyph-name="eacute" unicode="&#xe9;" horiz-adv-x="538" 
d="M499 68l-16.5 -16.5t-39 -28.5t-65 -27t-94.5 -12q-56 0 -102 19t-78.5 52.5t-50 80.5t-17.5 104q0 52 17.5 96.5t49 77.5t75 52t96.5 19q64 0 108.5 -23.5t71.5 -61.5t39 -86t12 -98v-17h-350q0 -26 11.5 -47t30 -36t42 -23t46.5 -8q34 0 59.5 6.5t43.5 15t29.5 18
t17.5 15.5zM384 284q0 18 -7 36t-20.5 32.5t-34.5 24t-48 9.5q-29 0 -51.5 -9.5t-37.5 -24t-23 -32.5t-8 -36h230zM274 682h126l-79 -142h-95z" />
    <glyph glyph-name="ecircumflex" unicode="&#xea;" horiz-adv-x="538" 
d="M499 68l-16.5 -16.5t-39 -28.5t-65 -27t-94.5 -12q-56 0 -102 19t-78.5 52.5t-50 80.5t-17.5 104q0 52 17.5 96.5t49 77.5t75 52t96.5 19q64 0 108.5 -23.5t71.5 -61.5t39 -86t12 -98v-17h-350q0 -26 11.5 -47t30 -36t42 -23t46.5 -8q34 0 59.5 6.5t43.5 15t29.5 18
t17.5 15.5zM384 284q0 18 -7 36t-20.5 32.5t-34.5 24t-48 9.5q-29 0 -51.5 -9.5t-37.5 -24t-23 -32.5t-8 -36h230zM215 682h111l104 -142h-104l-56 76l-55 -76h-104z" />
    <glyph glyph-name="edieresis" unicode="&#xeb;" horiz-adv-x="538" 
d="M499 68l-16.5 -16.5t-39 -28.5t-65 -27t-94.5 -12q-56 0 -102 19t-78.5 52.5t-50 80.5t-17.5 104q0 52 17.5 96.5t49 77.5t75 52t96.5 19q64 0 108.5 -23.5t71.5 -61.5t39 -86t12 -98v-17h-350q0 -26 11.5 -47t30 -36t42 -23t46.5 -8q34 0 59.5 6.5t43.5 15t29.5 18
t17.5 15.5zM384 284q0 18 -7 36t-20.5 32.5t-34.5 24t-48 9.5q-29 0 -51.5 -9.5t-37.5 -24t-23 -32.5t-8 -36h230zM305 666h115v-109h-115v109zM120 666h115v-109h-115v109z" />
    <glyph glyph-name="igrave" unicode="&#xec;" horiz-adv-x="244" 
d="M63 469h118v-469h-118v469zM-1 682h126l48 -142h-95z" />
    <glyph glyph-name="iacute" unicode="&#xed;" horiz-adv-x="244" 
d="M63 469h118v-469h-118v469zM125 682h126l-79 -142h-95z" />
    <glyph glyph-name="icircumflex" unicode="&#xee;" horiz-adv-x="244" 
d="M63 469h118v-469h-118v469zM71 682h111l104 -142h-104l-56 76l-55 -76h-104z" />
    <glyph glyph-name="idieresis" unicode="&#xef;" horiz-adv-x="244" 
d="M63 469h118v-469h-118v469zM158 666h115v-109h-115v109zM-27 666h115v-109h-115v109z" />
    <glyph glyph-name="eth" unicode="&#xf0;" horiz-adv-x="555" 
d="M197 577q-36 9 -80 12l14 88q67 -5 121 -18l43 64l64 -38l-35 -53q102 -49 148.5 -143t46.5 -219q0 -74 -20 -127.5t-54 -89t-79.5 -52.5t-96.5 -17q-45 0 -87.5 15t-74.5 45t-51.5 74t-19.5 102q0 48 17.5 90.5t48.5 75t74.5 51.5t94.5 19q42 0 66.5 -6.5t37.5 -11.5
q-15 34 -41.5 63t-64.5 49l-47 -70l-64 38zM393 328q-14 8 -39.5 18t-59.5 10q-61 0 -100 -36.5t-39 -99.5q0 -30 9 -54.5t25 -42.5t38.5 -27.5t48.5 -9.5q23 0 45.5 10.5t40.5 32.5t29 56.5t11 82.5q0 13 -1.5 27.5t-7.5 32.5z" />
    <glyph glyph-name="ntilde" unicode="&#xf1;" horiz-adv-x="551" 
d="M58 469h113l3 -53q9 10 21.5 21t30 20.5t39.5 15.5t50 6q88 0 134 -52.5t46 -141.5v-285h-118v284q0 45 -24.5 69.5t-63.5 24.5q-24 0 -45 -9.5t-36 -26.5t-23.5 -39.5t-8.5 -48.5v-254h-118v469zM87 615q8 9 20.5 19t28 18.5t34 14.5t38.5 6q21 0 36 -6.5t29 -14t29 -14
t35 -6.5q34 0 54 13t34 23l45 -70q-8 -9 -20.5 -19.5t-27.5 -19.5t-33.5 -15t-38.5 -6q-21 0 -36.5 6.5t-29.5 15t-29 15t-35 6.5q-34 0 -54 -13t-34 -23z" />
    <glyph glyph-name="ograve" unicode="&#xf2;" horiz-adv-x="576" 
d="M36 235q0 51 18.5 96.5t51.5 79.5t79.5 54t102.5 20t102.5 -20t79.5 -54t51.5 -79.5t18.5 -96.5t-18.5 -96.5t-51.5 -80t-79.5 -54.5t-102.5 -20t-102.5 20t-79.5 54.5t-51.5 80t-18.5 96.5zM288 86q34 0 59 13.5t41.5 35.5t24.5 48t8 52q0 25 -8 51.5t-24.5 48t-41.5 35
t-59 13.5t-59 -13.5t-41.5 -35t-24.5 -48t-8 -51.5q0 -26 8 -52t24.5 -48t41.5 -35.5t59 -13.5zM174 682h126l48 -142h-95z" />
    <glyph glyph-name="oacute" unicode="&#xf3;" horiz-adv-x="576" 
d="M36 235q0 51 18.5 96.5t51.5 79.5t79.5 54t102.5 20t102.5 -20t79.5 -54t51.5 -79.5t18.5 -96.5t-18.5 -96.5t-51.5 -80t-79.5 -54.5t-102.5 -20t-102.5 20t-79.5 54.5t-51.5 80t-18.5 96.5zM288 86q34 0 59 13.5t41.5 35.5t24.5 48t8 52q0 25 -8 51.5t-24.5 48t-41.5 35
t-59 13.5t-59 -13.5t-41.5 -35t-24.5 -48t-8 -51.5q0 -26 8 -52t24.5 -48t41.5 -35.5t59 -13.5zM284 682h126l-79 -142h-95z" />
    <glyph glyph-name="ocircumflex" unicode="&#xf4;" horiz-adv-x="576" 
d="M36 235q0 51 18.5 96.5t51.5 79.5t79.5 54t102.5 20t102.5 -20t79.5 -54t51.5 -79.5t18.5 -96.5t-18.5 -96.5t-51.5 -80t-79.5 -54.5t-102.5 -20t-102.5 20t-79.5 54.5t-51.5 80t-18.5 96.5zM288 86q34 0 59 13.5t41.5 35.5t24.5 48t8 52q0 25 -8 51.5t-24.5 48t-41.5 35
t-59 13.5t-59 -13.5t-41.5 -35t-24.5 -48t-8 -51.5q0 -26 8 -52t24.5 -48t41.5 -35.5t59 -13.5zM233 682h111l104 -142h-104l-56 76l-55 -76h-104z" />
    <glyph glyph-name="otilde" unicode="&#xf5;" horiz-adv-x="576" 
d="M36 235q0 51 18.5 96.5t51.5 79.5t79.5 54t102.5 20t102.5 -20t79.5 -54t51.5 -79.5t18.5 -96.5t-18.5 -96.5t-51.5 -80t-79.5 -54.5t-102.5 -20t-102.5 20t-79.5 54.5t-51.5 80t-18.5 96.5zM288 86q34 0 59 13.5t41.5 35.5t24.5 48t8 52q0 25 -8 51.5t-24.5 48t-41.5 35
t-59 13.5t-59 -13.5t-41.5 -35t-24.5 -48t-8 -51.5q0 -26 8 -52t24.5 -48t41.5 -35.5t59 -13.5zM99 615q8 9 20.5 19t28 18.5t34 14.5t38.5 6q21 0 36 -6.5t29 -14t29 -14t35 -6.5q34 0 54 13t34 23l45 -70q-8 -9 -20.5 -19.5t-27.5 -19.5t-33.5 -15t-38.5 -6
q-21 0 -36.5 6.5t-29.5 15t-29 15t-35 6.5q-34 0 -54 -13t-34 -23z" />
    <glyph glyph-name="odieresis" unicode="&#xf6;" horiz-adv-x="576" 
d="M36 235q0 51 18.5 96.5t51.5 79.5t79.5 54t102.5 20t102.5 -20t79.5 -54t51.5 -79.5t18.5 -96.5t-18.5 -96.5t-51.5 -80t-79.5 -54.5t-102.5 -20t-102.5 20t-79.5 54.5t-51.5 80t-18.5 96.5zM288 86q34 0 59 13.5t41.5 35.5t24.5 48t8 52q0 25 -8 51.5t-24.5 48t-41.5 35
t-59 13.5t-59 -13.5t-41.5 -35t-24.5 -48t-8 -51.5q0 -26 8 -52t24.5 -48t41.5 -35.5t59 -13.5zM324 666h115v-109h-115v109zM139 666h115v-109h-115v109z" />
    <glyph glyph-name="divide" unicode="&#xf7;" horiz-adv-x="543" 
d="M72 371h398v-99h-398v99zM218 214h106v-100h-106v100zM218 530h106v-100h-106v100z" />
    <glyph glyph-name="oslash" unicode="&#xf8;" horiz-adv-x="576" 
d="M111 53q-36 35 -55.5 81.5t-19.5 100.5q0 51 18.5 96.5t51.5 79.5t79.5 54t102.5 20q58 0 107 -23l47 68l73 -45l-49 -71q35 -35 54.5 -80.5t19.5 -98.5q0 -51 -18.5 -96.5t-51.5 -80t-79.5 -54.5t-102.5 -20q-29 0 -56 5.5t-50 15.5l-44 -63l-72 45zM334 375
q-22 8 -46 8q-34 0 -59 -13.5t-41.5 -35t-24.5 -48t-8 -51.5q0 -22 5.5 -44t17.5 -42zM243 93q18 -7 45 -7q34 0 59 13.5t41.5 35.5t24.5 48t8 52q0 42 -22 83z" />
    <glyph glyph-name="ugrave" unicode="&#xf9;" horiz-adv-x="551" 
d="M56 469h118v-284q0 -45 24.5 -69.5t63.5 -24.5q24 0 45 9.5t36 26.5t23.5 39.5t8.5 48.5v254h118v-469h-113l-3 53q-9 -10 -22 -21t-30 -20.5t-39 -15.5t-50 -6q-88 0 -134 52.5t-46 141.5v285zM159 682h126l48 -142h-95z" />
    <glyph glyph-name="uacute" unicode="&#xfa;" horiz-adv-x="551" 
d="M56 469h118v-284q0 -45 24.5 -69.5t63.5 -24.5q24 0 45 9.5t36 26.5t23.5 39.5t8.5 48.5v254h118v-469h-113l-3 53q-9 -10 -22 -21t-30 -20.5t-39 -15.5t-50 -6q-88 0 -134 52.5t-46 141.5v285zM270 682h126l-79 -142h-95z" />
    <glyph glyph-name="ucircumflex" unicode="&#xfb;" horiz-adv-x="551" 
d="M56 469h118v-284q0 -45 24.5 -69.5t63.5 -24.5q24 0 45 9.5t36 26.5t23.5 39.5t8.5 48.5v254h118v-469h-113l-3 53q-9 -10 -22 -21t-30 -20.5t-39 -15.5t-50 -6q-88 0 -134 52.5t-46 141.5v285zM221 682h111l104 -142h-104l-56 76l-55 -76h-104z" />
    <glyph glyph-name="udieresis" unicode="&#xfc;" horiz-adv-x="551" 
d="M56 469h118v-284q0 -45 24.5 -69.5t63.5 -24.5q24 0 45 9.5t36 26.5t23.5 39.5t8.5 48.5v254h118v-469h-113l-3 53q-9 -10 -22 -21t-30 -20.5t-39 -15.5t-50 -6q-88 0 -134 52.5t-46 141.5v285zM315 666h115v-109h-115v109zM130 666h115v-109h-115v109z" />
    <glyph glyph-name="yacute" unicode="&#xfd;" horiz-adv-x="527" 
d="M77 -93q10 -8 22 -15.5t30 -7.5q24 0 39.5 20t32.5 62l15 38l-211 465h136l134 -321l118 321h129l-196 -469q-14 -35 -28 -72t-34.5 -68.5t-50.5 -51.5t-76 -20q-40 0 -66.5 9.5t-46.5 26.5zM270 682h126l-79 -142h-95z" />
    <glyph glyph-name="thorn" unicode="&#xfe;" horiz-adv-x="571" 
d="M58 667h117v-246q18 20 56.5 38.5t92.5 18.5t93.5 -20t65.5 -54t39 -77.5t13 -90.5q0 -55 -16 -96.5t-40 -70.5q-40 -48 -87.5 -66.5t-97.5 -18.5q-23 0 -39.5 2t-30 5.5t-25 8t-24.5 9.5v-211h-117v869zM175 115q35 -29 106 -29q32 0 57 12t42.5 33t26.5 48t9 57
t-6.5 55.5t-21 44.5t-37.5 29.5t-57 10.5q-27 0 -49 -11.5t-37.5 -29.5t-24 -39.5t-8.5 -41.5v-139z" />
    <glyph glyph-name="ydieresis" unicode="&#xff;" horiz-adv-x="527" 
d="M77 -93q10 -8 22 -15.5t30 -7.5q24 0 39.5 20t32.5 62l15 38l-211 465h136l134 -321l118 321h129l-196 -469q-14 -35 -28 -72t-34.5 -68.5t-50.5 -51.5t-76 -20q-40 0 -66.5 9.5t-46.5 26.5zM304 666h115v-109h-115v109zM119 666h115v-109h-115v109z" />
    <glyph glyph-name="Amacron" unicode="&#x100;" horiz-adv-x="646" 
d="M258 667h130l253 -667h-140l-58 169h-248l-58 -169h-132zM407 273l-88 259l-89 -259h177zM166 844h315v-97h-315v97z" />
    <glyph glyph-name="amacron" unicode="&#x101;" horiz-adv-x="504" 
d="M335 44q-19 -23 -58 -41t-87 -18q-29 0 -57.5 9t-52 27.5t-38 47.5t-14.5 68q0 40 15 71.5t42 53t65 32.5t84 11q14 0 31 -0.5t33 -1.5q18 -1 37 -2v11q0 35 -28 55t-73 20q-50 0 -80 -13t-53 -28l-54 80q14 10 32 20.5t42 19t55.5 14t73.5 5.5q45 0 81.5 -12.5t62.5 -35
t40 -54t14 -68.5v-315h-110zM335 212q-18 1 -35 2q-14 1 -29.5 1.5t-26.5 0.5q-57 0 -80 -22.5t-23 -51.5q0 -30 21.5 -47t63.5 -17q21 0 40.5 7t34.5 19t24.5 28t9.5 34v46zM128 649h261v-92h-261v92z" />
    <glyph glyph-name="Abreve" unicode="&#x102;" horiz-adv-x="646" 
d="M258 667h130l253 -667h-140l-58 169h-248l-58 -169h-132zM407 273l-88 259l-89 -259h177zM255 863q0 -26 17.5 -46.5t49.5 -20.5t49.5 20.5t17.5 46.5h93q0 -29 -10 -55.5t-29.5 -47.5t-50 -33.5t-70.5 -12.5q-41 0 -71 12.5t-49.5 33.5t-29.5 47.5t-10 55.5h93z" />
    <glyph glyph-name="abreve" unicode="&#x103;" horiz-adv-x="504" 
d="M335 44q-19 -23 -58 -41t-87 -18q-29 0 -57.5 9t-52 27.5t-38 47.5t-14.5 68q0 40 15 71.5t42 53t65 32.5t84 11q14 0 31 -0.5t33 -1.5q18 -1 37 -2v11q0 35 -28 55t-73 20q-50 0 -80 -13t-53 -28l-54 80q14 10 32 20.5t42 19t55.5 14t73.5 5.5q45 0 81.5 -12.5t62.5 -35
t40 -54t14 -68.5v-315h-110zM335 212q-18 1 -35 2q-14 1 -29.5 1.5t-26.5 0.5q-57 0 -80 -22.5t-23 -51.5q0 -30 21.5 -47t63.5 -17q21 0 40.5 7t34.5 19t24.5 28t9.5 34v46zM183 682q0 -24 13.5 -44.5t48.5 -20.5t48.5 20.5t13.5 44.5h92q0 -27 -9.5 -52.5t-29 -45.5
t-48.5 -32t-67 -12t-67 12t-48.5 32t-29 45.5t-9.5 52.5h92z" />
    <glyph glyph-name="Aogonek" unicode="&#x104;" horiz-adv-x="646" 
d="M258 667h130l253 -667q-19 -19 -33 -42t-14 -40q0 -21 26 -21q14 0 26 4.5t24 12.5l29 -75q-26 -17 -56.5 -27t-56.5 -10q-52 0 -76.5 22t-24.5 58q0 30 18.5 60.5t44.5 57.5h-47l-58 169h-248l-58 -169h-132zM407 273l-88 259l-89 -259h177z" />
    <glyph glyph-name="aogonek" unicode="&#x105;" horiz-adv-x="504" 
d="M335 44q-19 -23 -58 -41t-87 -18q-29 0 -57.5 9t-52 27.5t-38 47.5t-14.5 68q0 40 15 71.5t42 53t65 32.5t84 11q14 0 31 -0.5t33 -1.5q18 -1 37 -2v11q0 35 -28 55t-73 20q-50 0 -80 -13t-53 -28l-54 80q14 10 32 20.5t42 19t55.5 14t73.5 5.5q45 0 81.5 -12.5t62.5 -35
t40 -54t14 -68.5v-315q-19 -18 -35.5 -40.5t-16.5 -39.5q0 -21 25 -21q16 0 29 5.5t26 13.5l28 -74q-25 -17 -54.5 -26.5t-55.5 -9.5q-51 0 -74.5 21.5t-23.5 56.5q0 29 18 58.5t43 55.5h-19zM335 212q-18 1 -35 2q-14 1 -29.5 1.5t-26.5 0.5q-57 0 -80 -22.5t-23 -51.5
q0 -30 21.5 -47t63.5 -17q21 0 40.5 7t34.5 19t24.5 28t9.5 34v46z" />
    <glyph glyph-name="Cacute" unicode="&#x106;" horiz-adv-x="680" 
d="M657 122q-15 -23 -41.5 -47t-62.5 -44.5t-79 -33.5t-91 -13q-75 0 -137 26t-107 72.5t-70 109.5t-25 138q0 73 25 137t70.5 112t108.5 76t139 28q49 0 90 -10.5t74.5 -28.5t59.5 -42.5t46 -52.5l-89 -79q-32 46 -74.5 74t-106.5 28q-49 0 -88 -19.5t-66.5 -52t-42 -76
t-14.5 -91.5t14.5 -90t41.5 -73t64.5 -49t84.5 -18q43 0 73.5 10t52 25t36 31.5t26.5 28.5zM392 873h146l-114 -156h-105z" />
    <glyph glyph-name="cacute" unicode="&#x107;" horiz-adv-x="492" 
d="M471 62q-33 -35 -78 -56t-105 -21t-107 18t-79 51t-49 79t-17 102q0 51 18.5 96.5t51.5 79.5t79.5 54t102.5 20q57 0 104 -20.5t80 -55.5l-75 -76q-20 23 -47 36t-62 13q-34 0 -59 -12.5t-41.5 -32.5t-24.5 -47t-8 -55q0 -27 8 -53t24.5 -47t41.5 -34t59 -13
q35 0 64 13.5t49 36.5zM274 682h126l-79 -142h-95z" />
    <glyph glyph-name="Ccircumflex" unicode="&#x108;" horiz-adv-x="680" 
d="M657 122q-15 -23 -41.5 -47t-62.5 -44.5t-79 -33.5t-91 -13q-75 0 -137 26t-107 72.5t-70 109.5t-25 138q0 73 25 137t70.5 112t108.5 76t139 28q49 0 90 -10.5t74.5 -28.5t59.5 -42.5t46 -52.5l-89 -79q-32 46 -74.5 74t-106.5 28q-49 0 -88 -19.5t-66.5 -52t-42 -76
t-14.5 -91.5t14.5 -90t41.5 -73t64.5 -49t84.5 -18q43 0 73.5 10t52 25t36 31.5t26.5 28.5zM332 873h111l110 -156h-104l-62 82l-61 -82h-104z" />
    <glyph glyph-name="ccircumflex" unicode="&#x109;" horiz-adv-x="492" 
d="M471 62q-33 -35 -78 -56t-105 -21t-107 18t-79 51t-49 79t-17 102q0 51 18.5 96.5t51.5 79.5t79.5 54t102.5 20q57 0 104 -20.5t80 -55.5l-75 -76q-20 23 -47 36t-62 13q-34 0 -59 -12.5t-41.5 -32.5t-24.5 -47t-8 -55q0 -27 8 -53t24.5 -47t41.5 -34t59 -13
q35 0 64 13.5t49 36.5zM231 682h111l104 -142h-104l-56 76l-55 -76h-104z" />
    <glyph glyph-name="Cdotaccent" unicode="&#x10a;" horiz-adv-x="680" 
d="M657 122q-15 -23 -41.5 -47t-62.5 -44.5t-79 -33.5t-91 -13q-75 0 -137 26t-107 72.5t-70 109.5t-25 138q0 73 25 137t70.5 112t108.5 76t139 28q49 0 90 -10.5t74.5 -28.5t59.5 -42.5t46 -52.5l-89 -79q-32 46 -74.5 74t-106.5 28q-49 0 -88 -19.5t-66.5 -52t-42 -76
t-14.5 -91.5t14.5 -90t41.5 -73t64.5 -49t84.5 -18q43 0 73.5 10t52 25t36 31.5t26.5 28.5zM314 857h129v-123h-129v123z" />
    <glyph glyph-name="cdotaccent" unicode="&#x10b;" horiz-adv-x="492" 
d="M471 62q-33 -35 -78 -56t-105 -21t-107 18t-79 51t-49 79t-17 102q0 51 18.5 96.5t51.5 79.5t79.5 54t102.5 20q57 0 104 -20.5t80 -55.5l-75 -76q-20 23 -47 36t-62 13q-34 0 -59 -12.5t-41.5 -32.5t-24.5 -47t-8 -55q0 -27 8 -53t24.5 -47t41.5 -34t59 -13
q35 0 64 13.5t49 36.5zM222 670h123v-117h-123v117z" />
    <glyph glyph-name="Ccaron" unicode="&#x10c;" horiz-adv-x="680" 
d="M657 122q-15 -23 -41.5 -47t-62.5 -44.5t-79 -33.5t-91 -13q-75 0 -137 26t-107 72.5t-70 109.5t-25 138q0 73 25 137t70.5 112t108.5 76t139 28q49 0 90 -10.5t74.5 -28.5t59.5 -42.5t46 -52.5l-89 -79q-32 46 -74.5 74t-106.5 28q-49 0 -88 -19.5t-66.5 -52t-42 -76
t-14.5 -91.5t14.5 -90t41.5 -73t64.5 -49t84.5 -18q43 0 73.5 10t52 25t36 31.5t26.5 28.5zM224 873h104l62 -82l61 82h104l-110 -156h-111z" />
    <glyph glyph-name="ccaron" unicode="&#x10d;" horiz-adv-x="492" 
d="M471 62q-33 -35 -78 -56t-105 -21t-107 18t-79 51t-49 79t-17 102q0 51 18.5 96.5t51.5 79.5t79.5 54t102.5 20q57 0 104 -20.5t80 -55.5l-75 -76q-20 23 -47 36t-62 13q-34 0 -59 -12.5t-41.5 -32.5t-24.5 -47t-8 -55q0 -27 8 -53t24.5 -47t41.5 -34t59 -13
q35 0 64 13.5t49 36.5zM124 682h104l56 -76l55 76h104l-104 -142h-111z" />
    <glyph glyph-name="Dcaron" unicode="&#x10e;" horiz-adv-x="726" 
d="M70 667h249q78 0 143 -20t112 -61t73 -105t26 -151q0 -83 -26.5 -144.5t-74 -103t-112.5 -62t-142 -20.5h-248v667zM307 112q114 0 174 55t60 161q0 105 -55.5 166t-178.5 61h-111v-443h111zM155 873h104l62 -82l61 82h104l-110 -156h-111z" />
    <glyph glyph-name="dcaron" unicode="&#x10f;" horiz-adv-x="557" 
d="M382 46q-9 -10 -22 -21t-30.5 -20t-39 -15t-48.5 -6q-38 0 -75 16t-66 47t-47 76t-18 103q0 55 16 96.5t40 70.5q20 24 44 40t48.5 26.5t47.5 15t40 4.5q23 0 38 -1.5t27 -4t22 -6.5t23 -9v209h117v-667h-114zM382 352q-17 14 -39.5 19.5t-57.5 5.5t-58 -13.5t-40 -35.5
q-15 -20 -23.5 -46.5t-8.5 -55.5q0 -60 30 -100t87 -40q30 0 51 11.5t34 29.5t19 39.5t6 41.5v144zM560 667h110l-34 -169h-76v169z" />
    <glyph glyph-name="Dcroat" unicode="&#x110;" horiz-adv-x="726" 
d="M70 287h-67v102h67v278h249q78 0 143 -20t112 -61t73 -105t26 -151q0 -83 -26.5 -144.5t-74 -103t-112.5 -62t-142 -20.5h-248v287zM310 113q114 0 174 55t60 161q0 105 -55.5 166t-178.5 61h-114v-167h155v-102h-155v-174h114z" />
    <glyph glyph-name="dcroat" unicode="&#x111;" horiz-adv-x="548" 
d="M373 46q-9 -10 -22 -21t-30.5 -20t-39 -15t-48.5 -6q-38 0 -75 15t-66 44t-47 73t-18 102q0 55 16 92.5t40 66.5q20 24 44 39.5t48.5 24.5t47.5 13t40 4q23 0 38 -1.5t27 -4t22 -6.5t23 -9v85h-171v79h171v66h117v-66h56v-79h-56v-522h-117v46zM373 331q-17 11 -40.5 18
t-56.5 7q-35 0 -58 -11t-40 -33q-15 -20 -23.5 -42.5t-8.5 -51.5q0 -60 30 -96t87 -36q30 0 51 11.5t34 29.5t19 39.5t6 41.5v123z" />
    <glyph glyph-name="Emacron" unicode="&#x112;" horiz-adv-x="568" 
d="M70 667h432v-111h-306v-157h225v-112h-225v-174h329v-113h-455v667zM134 844h315v-97h-315v97z" />
    <glyph glyph-name="emacron" unicode="&#x113;" horiz-adv-x="538" 
d="M499 68l-16.5 -16.5t-39 -28.5t-65 -27t-94.5 -12q-56 0 -102 19t-78.5 52.5t-50 80.5t-17.5 104q0 52 17.5 96.5t49 77.5t75 52t96.5 19q64 0 108.5 -23.5t71.5 -61.5t39 -86t12 -98v-17h-350q0 -26 11.5 -47t30 -36t42 -23t46.5 -8q34 0 59.5 6.5t43.5 15t29.5 18
t17.5 15.5zM384 284q0 18 -7 36t-20.5 32.5t-34.5 24t-48 9.5q-29 0 -51.5 -9.5t-37.5 -24t-23 -32.5t-8 -36h230zM142 649h261v-92h-261v92z" />
    <glyph glyph-name="Ebreve" unicode="&#x114;" horiz-adv-x="568" 
d="M70 667h432v-111h-306v-157h225v-112h-225v-174h329v-113h-455v667zM223 863q0 -26 17.5 -46.5t49.5 -20.5t49.5 20.5t17.5 46.5h93q0 -29 -10 -55.5t-29.5 -47.5t-50 -33.5t-70.5 -12.5q-41 0 -71 12.5t-49.5 33.5t-29.5 47.5t-10 55.5h93z" />
    <glyph glyph-name="ebreve" unicode="&#x115;" horiz-adv-x="538" 
d="M499 68l-16.5 -16.5t-39 -28.5t-65 -27t-94.5 -12q-56 0 -102 19t-78.5 52.5t-50 80.5t-17.5 104q0 52 17.5 96.5t49 77.5t75 52t96.5 19q64 0 108.5 -23.5t71.5 -61.5t39 -86t12 -98v-17h-350q0 -26 11.5 -47t30 -36t42 -23t46.5 -8q34 0 59.5 6.5t43.5 15t29.5 18
t17.5 15.5zM384 284q0 18 -7 36t-20.5 32.5t-34.5 24t-48 9.5q-29 0 -51.5 -9.5t-37.5 -24t-23 -32.5t-8 -36h230zM216 682q0 -24 13.5 -44.5t48.5 -20.5t48.5 20.5t13.5 44.5h92q0 -27 -9.5 -52.5t-29 -45.5t-48.5 -32t-67 -12t-67 12t-48.5 32t-29 45.5t-9.5 52.5h92z" />
    <glyph glyph-name="Edotaccent" unicode="&#x116;" horiz-adv-x="568" 
d="M70 667h432v-111h-306v-157h225v-112h-225v-174h329v-113h-455v667zM230 857h129v-123h-129v123z" />
    <glyph glyph-name="edotaccent" unicode="&#x117;" horiz-adv-x="538" 
d="M499 68l-16.5 -16.5t-39 -28.5t-65 -27t-94.5 -12q-56 0 -102 19t-78.5 52.5t-50 80.5t-17.5 104q0 52 17.5 96.5t49 77.5t75 52t96.5 19q64 0 108.5 -23.5t71.5 -61.5t39 -86t12 -98v-17h-350q0 -26 11.5 -47t30 -36t42 -23t46.5 -8q34 0 59.5 6.5t43.5 15t29.5 18
t17.5 15.5zM384 284q0 18 -7 36t-20.5 32.5t-34.5 24t-48 9.5q-29 0 -51.5 -9.5t-37.5 -24t-23 -32.5t-8 -36h230zM215 670h123v-117h-123v117z" />
    <glyph glyph-name="Eogonek" unicode="&#x118;" horiz-adv-x="568" 
d="M70 667h432v-111h-306v-157h225v-112h-225v-174h329v-113h-58q-19 -19 -33 -42t-14 -40q0 -21 26 -21q14 0 26 4.5t24 12.5l29 -75q-26 -17 -56.5 -27t-56.5 -10q-52 0 -76.5 22t-24.5 58q0 30 18.5 60.5t44.5 57.5h-304v667z" />
    <glyph glyph-name="eogonek" unicode="&#x119;" horiz-adv-x="538" 
d="M473 -156q-25 -17 -54.5 -26.5t-55.5 -9.5q-51 0 -74.5 21.5t-23.5 56.5q0 25 13.5 50.5t33.5 48.5q-7 0 -14 -0.5t-14 -0.5q-56 0 -102 20t-78.5 55t-50 81.5t-17.5 99.5q0 52 18 96.5t49.5 77.5t75.5 52t97 19q60 0 103.5 -23.5t71.5 -61.5t41 -86t13 -98v-17h-350
q0 -26 11.5 -47t30 -36t42 -23t46.5 -8q34 0 59.5 6.5t43.5 15t29.5 18t17.5 15.5l64 -72q-4 -4 -19 -16.5t-39 -30.5q-11 -8 -24 -19.5t-24.5 -25t-19.5 -28.5t-8 -28q0 -21 25 -21q16 0 29 5.5t26 13.5zM387 284q0 18 -7 35.5t-20.5 32t-34.5 23.5t-48 9t-50 -9t-39 -23.5
t-25 -32t-9 -35.5h233z" />
    <glyph glyph-name="Ecaron" unicode="&#x11a;" horiz-adv-x="568" 
d="M70 667h432v-111h-306v-157h225v-112h-225v-174h329v-113h-455v667zM130 873h104l62 -82l61 82h104l-110 -156h-111z" />
    <glyph glyph-name="ecaron" unicode="&#x11b;" horiz-adv-x="538" 
d="M499 68l-16.5 -16.5t-39 -28.5t-65 -27t-94.5 -12q-56 0 -102 19t-78.5 52.5t-50 80.5t-17.5 104q0 52 17.5 96.5t49 77.5t75 52t96.5 19q64 0 108.5 -23.5t71.5 -61.5t39 -86t12 -98v-17h-350q0 -26 11.5 -47t30 -36t42 -23t46.5 -8q34 0 59.5 6.5t43.5 15t29.5 18
t17.5 15.5zM384 284q0 18 -7 36t-20.5 32.5t-34.5 24t-48 9.5q-29 0 -51.5 -9.5t-37.5 -24t-23 -32.5t-8 -36h230zM115 682h104l56 -76l55 76h104l-104 -142h-111z" />
    <glyph glyph-name="Gcircumflex" unicode="&#x11c;" horiz-adv-x="723" 
d="M421 353h239v-276q-39 -37 -103 -65t-164 -28q-82 0 -146.5 27t-109.5 73.5t-69 109.5t-24 136t25 137t70.5 112t108.5 76t139 28q49 0 90 -10.5t74.5 -28.5t59.5 -42.5t46 -52.5l-89 -79q-32 46 -74.5 74t-106.5 28q-49 0 -88 -19.5t-66.5 -52t-42 -76t-14.5 -91.5
q0 -54 17.5 -97t48 -74t71 -47.5t85.5 -16.5q92 0 142 44v104h-119v107zM325 873h111l110 -156h-104l-62 82l-61 -82h-104z" />
    <glyph glyph-name="gcircumflex" unicode="&#x11d;" horiz-adv-x="555" 
d="M134 -76q28 -19 60.5 -27.5t76.5 -8.5q46 0 77 28t31 78v51q-24 -20 -52.5 -32.5t-75.5 -12.5q-51 0 -90.5 17t-67.5 47.5t-42.5 72t-14.5 91.5q0 52 18.5 98t53 80t83.5 53.5t110 19.5t112.5 -10t83.5 -21v-456q0 -49 -17 -87t-47 -64t-71 -39.5t-89 -13.5
q-37 0 -65.5 3.5t-51 9.5t-41 15t-34.5 21zM379 367q-14 5 -29 7.5t-47 2.5q-36 0 -63 -12t-46 -32t-28.5 -46.5t-9.5 -55.5q0 -54 27 -91t87 -37q54 0 81.5 23t27.5 73v168zM232 682h111l104 -142h-104l-56 76l-55 -76h-104z" />
    <glyph glyph-name="Gbreve" unicode="&#x11e;" horiz-adv-x="723" 
d="M421 353h239v-276q-39 -37 -103 -65t-164 -28q-82 0 -146.5 27t-109.5 73.5t-69 109.5t-24 136t25 137t70.5 112t108.5 76t139 28q49 0 90 -10.5t74.5 -28.5t59.5 -42.5t46 -52.5l-89 -79q-32 46 -74.5 74t-106.5 28q-49 0 -88 -19.5t-66.5 -52t-42 -76t-14.5 -91.5
q0 -54 17.5 -97t48 -74t71 -47.5t85.5 -16.5q92 0 142 44v104h-119v107zM312 863q0 -26 17.5 -46.5t49.5 -20.5t49.5 20.5t17.5 46.5h93q0 -29 -10 -55.5t-29.5 -47.5t-50 -33.5t-70.5 -12.5q-41 0 -71 12.5t-49.5 33.5t-29.5 47.5t-10 55.5h93z" />
    <glyph glyph-name="gbreve" unicode="&#x11f;" horiz-adv-x="555" 
d="M134 -76q28 -19 60.5 -27.5t76.5 -8.5q46 0 77 28t31 78v51q-24 -20 -52.5 -32.5t-75.5 -12.5q-51 0 -90.5 17t-67.5 47.5t-42.5 72t-14.5 91.5q0 52 18.5 98t53 80t83.5 53.5t110 19.5t112.5 -10t83.5 -21v-456q0 -49 -17 -87t-47 -64t-71 -39.5t-89 -13.5
q-37 0 -65.5 3.5t-51 9.5t-41 15t-34.5 21zM379 367q-14 5 -29 7.5t-47 2.5q-36 0 -63 -12t-46 -32t-28.5 -46.5t-9.5 -55.5q0 -54 27 -91t87 -37q54 0 81.5 23t27.5 73v168zM237 682q0 -24 13.5 -44.5t48.5 -20.5t48.5 20.5t13.5 44.5h92q0 -27 -9.5 -52.5t-29 -45.5
t-48.5 -32t-67 -12t-67 12t-48.5 32t-29 45.5t-9.5 52.5h92z" />
    <glyph glyph-name="Gdotaccent" unicode="&#x120;" horiz-adv-x="723" 
d="M421 353h239v-276q-39 -37 -103 -65t-164 -28q-82 0 -146.5 27t-109.5 73.5t-69 109.5t-24 136t25 137t70.5 112t108.5 76t139 28q49 0 90 -10.5t74.5 -28.5t59.5 -42.5t46 -52.5l-89 -79q-32 46 -74.5 74t-106.5 28q-49 0 -88 -19.5t-66.5 -52t-42 -76t-14.5 -91.5
q0 -54 17.5 -97t48 -74t71 -47.5t85.5 -16.5q92 0 142 44v104h-119v107zM318 857h129v-123h-129v123z" />
    <glyph glyph-name="gdotaccent" unicode="&#x121;" horiz-adv-x="555" 
d="M134 -76q28 -19 60.5 -27.5t76.5 -8.5q46 0 77 28t31 78v51q-24 -20 -52.5 -32.5t-75.5 -12.5q-51 0 -90.5 17t-67.5 47.5t-42.5 72t-14.5 91.5q0 52 18.5 98t53 80t83.5 53.5t110 19.5t112.5 -10t83.5 -21v-456q0 -49 -17 -87t-47 -64t-71 -39.5t-89 -13.5
q-37 0 -65.5 3.5t-51 9.5t-41 15t-34.5 21zM379 367q-14 5 -29 7.5t-47 2.5q-36 0 -63 -12t-46 -32t-28.5 -46.5t-9.5 -55.5q0 -54 27 -91t87 -37q54 0 81.5 23t27.5 73v168zM238 670h123v-117h-123v117z" />
    <glyph glyph-name="Gcommaaccent" unicode="&#x122;" horiz-adv-x="723" 
d="M421 353h239v-276q-39 -37 -103 -65t-164 -28q-82 0 -146.5 27t-109.5 73.5t-69 109.5t-24 136t25 137t70.5 112t108.5 76t139 28q49 0 90 -10.5t74.5 -28.5t59.5 -42.5t46 -52.5l-89 -79q-32 46 -74.5 74t-106.5 28q-49 0 -88 -19.5t-66.5 -52t-42 -76t-14.5 -91.5
q0 -54 17.5 -97t48 -74t71 -47.5t85.5 -16.5q92 0 142 44v104h-119v107zM320 -51h139l-88 -158h-104z" />
    <glyph glyph-name="gcommaaccent" unicode="&#x123;" horiz-adv-x="555" 
d="M134 -76q28 -19 60.5 -27.5t76.5 -8.5q46 0 77 28t31 78v51q-24 -20 -52.5 -32.5t-75.5 -12.5q-51 0 -90.5 17t-67.5 47.5t-42.5 72t-14.5 91.5q0 52 18.5 98t53 80t83.5 53.5t110 19.5t112.5 -10t83.5 -21v-456q0 -49 -17 -87t-47 -64t-71 -39.5t-89 -13.5
q-37 0 -65.5 3.5t-51 9.5t-41 15t-34.5 21zM379 367q-14 5 -29 7.5t-47 2.5q-36 0 -63 -12t-46 -32t-28.5 -46.5t-9.5 -55.5q0 -54 27 -91t87 -37q54 0 81.5 23t27.5 73v168zM310 682h95l-48 -142h-126z" />
    <glyph glyph-name="Hcircumflex" unicode="&#x124;" horiz-adv-x="723" 
d="M70 667h126v-268h331v268h126v-667h-126v287h-331v-287h-126v667zM305 873h111l110 -156h-104l-62 82l-61 -82h-104z" />
    <glyph glyph-name="hcircumflex" unicode="&#x125;" horiz-adv-x="551" 
d="M58 667h116v-246q18 20 52.5 39t88.5 19q43 0 77 -14t56.5 -39.5t34.5 -61.5t12 -79v-285h-118v284q0 45 -24.5 69.5t-63.5 24.5q-24 0 -45 -9.5t-36 -26.5t-23.5 -39.5t-8.5 -48.5v-254h-118v667zM172 873h111l110 -156h-104l-62 82l-61 -82h-104z" />
    <glyph glyph-name="Hbar" unicode="&#x126;" horiz-adv-x="723" 
d="M70 487h-70v88h70v92h125v-92h333v92h125v-92h70v-88h-70v-487h-125v287h-333v-287h-125v487zM528 399v88h-333v-88h333z" />
    <glyph glyph-name="hbar" unicode="&#x127;" horiz-adv-x="551" 
d="M58 522h-56v79h56v66h116v-66h172v-79h-172v-121q18 20 52.5 39t88.5 19q43 0 77 -14t56.5 -39.5t34.5 -61.5t12 -79v-265h-118v264q0 45 -24.5 69.5t-63.5 24.5q-24 0 -45 -9.5t-36 -26.5t-23.5 -39.5t-8.5 -48.5v-234h-118v522z" />
    <glyph glyph-name="Itilde" unicode="&#x128;" horiz-adv-x="266" 
d="M70 667h126v-667h-126v667zM-63 804q9 9 22 20t29.5 20t35.5 15t41 6t38 -6.5t30.5 -14.5t30 -14.5t36.5 -6.5q35 0 56.5 13t35.5 24l49 -75q-9 -9 -22 -20t-29 -20.5t-35 -16t-41 -6.5t-38 7t-31 15t-30.5 15t-36.5 7q-35 0 -56.5 -13t-35.5 -24z" />
    <glyph glyph-name="itilde" unicode="&#x129;" horiz-adv-x="244" 
d="M63 469h118v-469h-118v469zM-65 615q8 9 20.5 19t28 18.5t34 14.5t38.5 6q21 0 36 -6.5t29 -14t29 -14t35 -6.5q34 0 54 13t34 23l45 -70q-8 -9 -20.5 -19.5t-27.5 -19.5t-33.5 -15t-38.5 -6q-21 0 -36.5 6.5t-29.5 15t-29 15t-35 6.5q-34 0 -54 -13t-34 -23z" />
    <glyph glyph-name="Imacron" unicode="&#x12a;" horiz-adv-x="266" 
d="M70 667h126v-667h-126v667zM-20 844h315v-97h-315v97z" />
    <glyph glyph-name="imacron" unicode="&#x12b;" horiz-adv-x="244" 
d="M63 469h118v-469h-118v469zM-5 649h261v-92h-261v92z" />
    <glyph glyph-name="Ibreve" unicode="&#x12c;" horiz-adv-x="266" 
d="M70 667h126v-667h-126v667zM69 863q0 -26 17.5 -46.5t49.5 -20.5t49.5 20.5t17.5 46.5h93q0 -29 -10 -55.5t-29.5 -47.5t-50 -33.5t-70.5 -12.5q-41 0 -71 12.5t-49.5 33.5t-29.5 47.5t-10 55.5h93z" />
    <glyph glyph-name="ibreve" unicode="&#x12d;" horiz-adv-x="244" 
d="M63 469h118v-469h-118v469zM66 682q0 -24 13.5 -44.5t48.5 -20.5t48.5 20.5t13.5 44.5h92q0 -27 -9.5 -52.5t-29 -45.5t-48.5 -32t-67 -12t-67 12t-48.5 32t-29 45.5t-9.5 52.5h92z" />
    <glyph glyph-name="Iogonek" unicode="&#x12e;" horiz-adv-x="266" 
d="M70 667h126v-667q-19 -19 -33 -42t-14 -40q0 -21 26 -21q14 0 26 4.5t24 12.5l29 -75q-26 -17 -56.5 -27t-56.5 -10q-52 0 -76.5 22t-24.5 58q0 30 18.5 60.5t44.5 57.5h-33v667z" />
    <glyph glyph-name="iogonek" unicode="&#x12f;" horiz-adv-x="244" 
d="M63 469h118v-469q-19 -18 -35.5 -40.5t-16.5 -39.5q0 -21 25 -21q16 0 29 5.5t26 13.5l28 -74q-25 -17 -54.5 -26.5t-55.5 -9.5q-51 0 -74.5 21.5t-23.5 56.5q0 29 18 58.5t43 55.5h-27v469zM59 667h126v-124h-126v124z" />
    <glyph glyph-name="Idotaccent" unicode="&#x130;" horiz-adv-x="266" 
d="M70 667h126v-667h-126v667zM68 857h129v-123h-129v123z" />
    <glyph glyph-name="dotlessi" unicode="&#x131;" horiz-adv-x="244" 
d="M63 469h118v-469h-118v469z" />
    <glyph glyph-name="IJ" unicode="&#x132;" horiz-adv-x="791" 
d="M70 667h126v-667h-126v667zM381 157q32 -35 59 -46.5t62 -11.5q18 0 35.5 6.5t31.5 19.5t22.5 32.5t8.5 45.5v464h126v-471q0 -60 -19.5 -101t-50.5 -66t-70 -36t-78 -11q-78 0 -128.5 24.5t-86.5 70.5z" />
    <glyph glyph-name="ij" unicode="&#x133;" horiz-adv-x="475" 
d="M59 667h126v-124h-126v124zM63 469h118v-469h-118v469zM289 667h126v-124h-126v124zM188 -83q9 -5 22 -10.5t32 -5.5q23 0 37.5 19t14.5 56v493h118v-470q0 -35 -5.5 -70t-22 -64t-46.5 -47t-80 -18q-42 0 -69.5 12.5t-44.5 24.5z" />
    <glyph glyph-name="Jcircumflex" unicode="&#x134;" horiz-adv-x="508" 
d="M98 157q32 -35 59 -46.5t62 -11.5q18 0 35.5 6.5t31.5 19.5t22.5 32.5t8.5 45.5v464h126v-471q0 -60 -19.5 -101t-50.5 -66t-70 -36t-78 -11q-78 0 -128.5 24.5t-86.5 70.5zM326 873h111l110 -156h-104l-62 82l-61 -82h-104z" />
    <glyph glyph-name="jcircumflex" unicode="&#x135;" horiz-adv-x="244" 
d="M-43 -83q9 -5 22 -10.5t32 -5.5q23 0 37.5 19t14.5 56v493h118v-470q0 -35 -5.5 -70t-22 -64t-46.5 -47t-80 -18q-42 0 -69.5 12.5t-44.5 24.5zM71 682h111l104 -142h-104l-56 76l-55 -76h-104z" />
    <glyph glyph-name="Kcommaaccent" unicode="&#x136;" horiz-adv-x="621" 
d="M70 667h126v-274l247 274h143l-246 -273l273 -394h-152l-203 303l-62 -69v-234h-126v667zM246 -51h139l-88 -158h-104z" />
    <glyph glyph-name="kcommaaccent" unicode="&#x137;" horiz-adv-x="512" 
d="M58 667h118v-364l169 166h139l-176 -173l196 -296h-141l-136 216l-51 -50v-166h-118v667zM203 -51h126l-79 -142h-95z" />
    <glyph glyph-name="kgreenlandic" unicode="&#x138;" horiz-adv-x="512" 
d="M58 469h118v-166l169 166h139l-176 -173l196 -296h-141l-136 216l-51 -50v-166h-118v469z" />
    <glyph glyph-name="Lacute" unicode="&#x139;" horiz-adv-x="553" 
d="M70 667h126v-555h329v-112h-455v667zM153 873h146l-114 -156h-105z" />
    <glyph glyph-name="lacute" unicode="&#x13a;" horiz-adv-x="234" 
d="M58 667h118v-667h-118v667zM131 873h146l-114 -156h-105z" />
    <glyph glyph-name="Lcommaaccent" unicode="&#x13b;" horiz-adv-x="553" 
d="M70 667h126v-555h329v-112h-455v667zM233 -51h139l-88 -158h-104z" />
    <glyph glyph-name="lcommaaccent" unicode="&#x13c;" horiz-adv-x="234" 
d="M58 667h118v-667h-118v667zM53 -51h126l-79 -142h-95z" />
    <glyph glyph-name="Lcaron" unicode="&#x13d;" horiz-adv-x="553" 
d="M288 667h129l-34 -189h-95v189zM70 667h126v-555h329v-112h-455v667z" />
    <glyph glyph-name="lcaron" unicode="&#x13e;" horiz-adv-x="234" 
d="M58 667h118v-667h-118v667zM229 667h110l-34 -169h-76v169z" />
    <glyph glyph-name="Ldot" unicode="&#x13f;" horiz-adv-x="553" 
d="M70 667h126v-555h329v-112h-455v667zM341 443h129v-123h-129v123z" />
    <glyph glyph-name="ldot" unicode="&#x140;" horiz-adv-x="384" 
d="M58 667h118v-667h-118v667zM248 417h123v-117h-123v117z" />
    <glyph glyph-name="Lslash" unicode="&#x141;" horiz-adv-x="553" 
d="M70 252l-67 -42v109l67 42v306h126v-226l143 91v-110l-143 -90v-220h329v-112h-455v252z" />
    <glyph glyph-name="lslash" unicode="&#x142;" horiz-adv-x="234" 
d="M58 262l-55 -35v100l55 35v305h118v-228l55 36v-100l-55 -36v-339h-118v262z" />
    <glyph glyph-name="Nacute" unicode="&#x143;" horiz-adv-x="713" 
d="M70 667h127l323 -474v474h123v-667h-124l-326 480v-480h-123v667zM368 873h146l-114 -156h-105z" />
    <glyph glyph-name="nacute" unicode="&#x144;" horiz-adv-x="551" 
d="M58 469h113l3 -53q9 10 21.5 21t30 20.5t39.5 15.5t50 6q88 0 134 -52.5t46 -141.5v-285h-118v284q0 45 -24.5 69.5t-63.5 24.5q-24 0 -45 -9.5t-36 -26.5t-23.5 -39.5t-8.5 -48.5v-254h-118v469zM279 682h126l-79 -142h-95z" />
    <glyph glyph-name="Ncommaaccent" unicode="&#x145;" horiz-adv-x="713" 
d="M70 667h127l323 -474v474h123v-667h-124l-326 480v-480h-123v667zM310 -51h139l-88 -158h-104z" />
    <glyph glyph-name="ncommaaccent" unicode="&#x146;" horiz-adv-x="551" 
d="M58 469h113l3 -53q9 10 21.5 21t30 20.5t39.5 15.5t50 6q88 0 134 -52.5t46 -141.5v-285h-118v284q0 45 -24.5 69.5t-63.5 24.5q-24 0 -45 -9.5t-36 -26.5t-23.5 -39.5t-8.5 -48.5v-254h-118v469zM216 -51h126l-79 -142h-95z" />
    <glyph glyph-name="Ncaron" unicode="&#x147;" horiz-adv-x="713" 
d="M70 667h127l323 -474v474h123v-667h-124l-326 480v-480h-123v667zM194 873h104l62 -82l61 82h104l-110 -156h-111z" />
    <glyph glyph-name="ncaron" unicode="&#x148;" horiz-adv-x="551" 
d="M58 469h113l3 -53q9 10 21.5 21t30 20.5t39.5 15.5t50 6q88 0 134 -52.5t46 -141.5v-285h-118v284q0 45 -24.5 69.5t-63.5 24.5q-24 0 -45 -9.5t-36 -26.5t-23.5 -39.5t-8.5 -48.5v-254h-118v469zM122 682h104l56 -76l55 76h104l-104 -142h-111z" />
    <glyph glyph-name="napostrophe" unicode="&#x149;" horiz-adv-x="551" 
d="M58 469h113l3 -53q9 10 21.5 21t30 20.5t39.5 15.5t50 6q88 0 134 -52.5t46 -141.5v-285h-118v284q0 45 -24.5 69.5t-63.5 24.5q-24 0 -45 -9.5t-36 -26.5t-23.5 -39.5t-8.5 -48.5v-254h-118v469zM22 682h119l-39 -142h-88z" />
    <glyph glyph-name="Eng" unicode="&#x14a;" horiz-adv-x="713" 
d="M70 667h127l323 -474v474h123v-667q0 -35 -6.5 -71t-24 -64.5t-48.5 -46.5t-81 -18q-45 0 -73 12.5t-47 24.5l46 84q9 -5 23 -10.5t33 -5.5q25 0 39.5 19.5t14.5 57.5v18l-326 480v-480h-123v667z" />
    <glyph glyph-name="eng" unicode="&#x14b;" horiz-adv-x="551" 
d="M58 469h113l3 -53q9 10 21.5 21t30 20.5t39.5 15.5t50 6q43 0 77 -14t56.5 -39.5t34.5 -61.5t12 -79v-285q0 -35 -5.5 -70t-22 -64t-46.5 -47t-80 -18q-42 0 -69.5 12.5t-44.5 24.5l44 80q9 -5 22 -10.5t32 -5.5q23 0 37.5 19t14.5 56v307q0 45 -24.5 69.5t-63.5 24.5
q-24 0 -45 -9.5t-36 -26.5t-23.5 -39.5t-8.5 -48.5v-254h-118v469z" />
    <glyph glyph-name="Omacron" unicode="&#x14c;" horiz-adv-x="782" 
d="M391 -18q-73 0 -136 27.5t-110 75.5t-74 112t-27 137t27 137t73.5 111.5t110 75t136.5 27.5t136 -27.5t110 -75t74 -111.5t27 -137t-27 -137t-74 -112t-110 -75.5t-136 -27.5zM391 101q49 0 89 19t68 51.5t43 75.5t15 90q0 48 -15 90.5t-43 74.5t-68 50.5t-89 18.5
q-50 0 -89.5 -18.5t-67.5 -50.5t-43 -74.5t-15 -90.5q0 -47 15 -90t43 -75.5t67.5 -51.5t89.5 -19zM235 844h315v-97h-315v97z" />
    <glyph glyph-name="omacron" unicode="&#x14d;" horiz-adv-x="576" 
d="M36 235q0 51 18.5 96.5t51.5 79.5t79.5 54t102.5 20t102.5 -20t79.5 -54t51.5 -79.5t18.5 -96.5t-18.5 -96.5t-51.5 -80t-79.5 -54.5t-102.5 -20t-102.5 20t-79.5 54.5t-51.5 80t-18.5 96.5zM288 86q34 0 59 13.5t41.5 35.5t24.5 48t8 52q0 25 -8 51.5t-24.5 48t-41.5 35
t-59 13.5t-59 -13.5t-41.5 -35t-24.5 -48t-8 -51.5q0 -26 8 -52t24.5 -48t41.5 -35.5t59 -13.5zM159 650h261v-92h-261v92z" />
    <glyph glyph-name="Obreve" unicode="&#x14e;" horiz-adv-x="782" 
d="M391 -18q-73 0 -136 27.5t-110 75.5t-74 112t-27 137t27 137t73.5 111.5t110 75t136.5 27.5t136 -27.5t110 -75t74 -111.5t27 -137t-27 -137t-74 -112t-110 -75.5t-136 -27.5zM391 101q49 0 89 19t68 51.5t43 75.5t15 90q0 48 -15 90.5t-43 74.5t-68 50.5t-89 18.5
q-50 0 -89.5 -18.5t-67.5 -50.5t-43 -74.5t-15 -90.5q0 -47 15 -90t43 -75.5t67.5 -51.5t89.5 -19zM324 863q0 -26 17.5 -46.5t49.5 -20.5t49.5 20.5t17.5 46.5h93q0 -29 -10 -55.5t-29.5 -47.5t-50 -33.5t-70.5 -12.5q-41 0 -71 12.5t-49.5 33.5t-29.5 47.5t-10 55.5h93z
" />
    <glyph glyph-name="obreve" unicode="&#x14f;" horiz-adv-x="576" 
d="M36 235q0 51 18.5 96.5t51.5 79.5t79.5 54t102.5 20t102.5 -20t79.5 -54t51.5 -79.5t18.5 -96.5t-18.5 -96.5t-51.5 -80t-79.5 -54.5t-102.5 -20t-102.5 20t-79.5 54.5t-51.5 80t-18.5 96.5zM288 86q34 0 59 13.5t41.5 35.5t24.5 48t8 52q0 25 -8 51.5t-24.5 48t-41.5 35
t-59 13.5t-59 -13.5t-41.5 -35t-24.5 -48t-8 -51.5q0 -26 8 -52t24.5 -48t41.5 -35.5t59 -13.5zM227 682q0 -24 13.5 -44.5t48.5 -20.5t48.5 20.5t13.5 44.5h92q0 -27 -9.5 -52.5t-29 -45.5t-48.5 -32t-67 -12t-67 12t-48.5 32t-29 45.5t-9.5 52.5h92z" />
    <glyph glyph-name="Ohungarumlaut" unicode="&#x150;" horiz-adv-x="782" 
d="M391 -18q-73 0 -136 27.5t-110 75.5t-74 112t-27 137t27 137t73.5 111.5t110 75t136.5 27.5t136 -27.5t110 -75t74 -111.5t27 -137t-27 -137t-74 -112t-110 -75.5t-136 -27.5zM391 101q49 0 89 19t68 51.5t43 75.5t15 90q0 48 -15 90.5t-43 74.5t-68 50.5t-89 18.5
q-50 0 -89.5 -18.5t-67.5 -50.5t-43 -74.5t-15 -90.5q0 -47 15 -90t43 -75.5t67.5 -51.5t89.5 -19zM329 873h138l-114 -156h-97zM514 873h138l-114 -156h-97z" />
    <glyph glyph-name="ohungarumlaut" unicode="&#x151;" horiz-adv-x="576" 
d="M36 235q0 51 18.5 96.5t51.5 79.5t79.5 54t102.5 20t102.5 -20t79.5 -54t51.5 -79.5t18.5 -96.5t-18.5 -96.5t-51.5 -80t-79.5 -54.5t-102.5 -20t-102.5 20t-79.5 54.5t-51.5 80t-18.5 96.5zM288 86q34 0 59 13.5t41.5 35.5t24.5 48t8 52q0 25 -8 51.5t-24.5 48t-41.5 35
t-59 13.5t-59 -13.5t-41.5 -35t-24.5 -48t-8 -51.5q0 -26 8 -52t24.5 -48t41.5 -35.5t59 -13.5zM365 682h119l-79 -142h-88zM203 682h119l-79 -142h-88z" />
    <glyph glyph-name="OE" unicode="&#x152;" horiz-adv-x="1104" 
d="M606 83q-16 -23 -39.5 -41.5t-52 -31.5t-61.5 -20.5t-68 -7.5q-71 0 -133 27.5t-108.5 75.5t-73 112t-26.5 137t26.5 137t73 111.5t108.5 75t133 27.5q72 0 130.5 -28t90.5 -71v81h432v-111h-310v-157h229v-112h-229v-174h333v-113h-455v83zM391 101q49 0 88.5 19
t67.5 51.5t43 75.5t15 90q0 48 -15 90.5t-43 74.5t-68 50.5t-89 18.5q-50 0 -89.5 -18.5t-67.5 -50.5t-43 -74.5t-15 -90.5q0 -47 15 -90t43.5 -75.5t68 -51.5t89.5 -19z" />
    <glyph glyph-name="oe" unicode="&#x153;" horiz-adv-x="922" 
d="M883 68l-16.5 -16.5t-39 -28.5t-65 -27t-94.5 -12q-62 0 -110.5 24t-81.5 69q-30 -42 -79.5 -67.5t-108.5 -25.5q-56 0 -102.5 20t-79.5 54.5t-51.5 80t-18.5 96.5t18.5 96.5t51.5 79.5t79.5 54t102.5 20q58 0 106.5 -25t79.5 -65q32 43 78.5 66.5t105.5 23.5
q64 0 108.5 -23.5t71.5 -61.5t39 -86t12 -98v-17h-350q0 -26 11.5 -47t30 -36t42 -23t46.5 -8q34 0 59.5 6.5t43.5 15t29.5 18t17.5 15.5zM768 284q0 18 -7 36t-20.5 32.5t-34.5 24t-48 9.5q-29 0 -51.5 -9.5t-37.5 -24t-23 -32.5t-8 -36h230zM288 86q34 0 59 13.5
t41.5 35.5t24.5 48t8 52q0 25 -8 51.5t-24.5 48t-41.5 35t-59 13.5t-59 -13.5t-41.5 -35t-24.5 -48t-8 -51.5q0 -26 8 -52t24.5 -48t41.5 -35.5t59 -13.5z" />
    <glyph glyph-name="Racute" unicode="&#x154;" horiz-adv-x="586" 
d="M70 667h221q63 0 107 -19t71 -48.5t39.5 -64.5t12.5 -67q0 -63 -27.5 -111.5t-84.5 -77.5l154 -279h-142l-135 263h-95v-263h-121v667zM292 367q48 0 74.5 28t26.5 68q0 43 -28 70t-73 27h-101v-193h101zM279 873h146l-114 -156h-105z" />
    <glyph glyph-name="racute" unicode="&#x155;" horiz-adv-x="382" 
d="M58 469h113l3 -59q8 10 20.5 22t29.5 22t39.5 17t51.5 7q17 0 30.5 -2t27.5 -7l-24 -111q-12 5 -24.5 7t-29.5 2q-24 0 -46 -8t-38 -23t-25.5 -36t-9.5 -47v-253h-118v469zM217 682h126l-79 -142h-95z" />
    <glyph glyph-name="Rcommaaccent" unicode="&#x156;" horiz-adv-x="586" 
d="M70 667h221q63 0 107 -19t71 -48.5t39.5 -64.5t12.5 -67q0 -63 -27.5 -111.5t-84.5 -77.5l154 -279h-142l-135 263h-95v-263h-121v667zM292 367q48 0 74.5 28t26.5 68q0 43 -28 70t-73 27h-101v-193h101zM236 -51h139l-88 -158h-104z" />
    <glyph glyph-name="rcommaaccent" unicode="&#x157;" horiz-adv-x="382" 
d="M58 469h113l3 -59q8 10 20.5 22t29.5 22t39.5 17t51.5 7q17 0 30.5 -2t27.5 -7l-24 -111q-12 5 -24.5 7t-29.5 2q-24 0 -46 -8t-38 -23t-25.5 -36t-9.5 -47v-253h-118v469zM57 -51h126l-79 -142h-95z" />
    <glyph glyph-name="Rcaron" unicode="&#x158;" horiz-adv-x="586" 
d="M70 667h221q63 0 107 -19t71 -48.5t39.5 -64.5t12.5 -67q0 -63 -27.5 -111.5t-84.5 -77.5l154 -279h-142l-135 263h-95v-263h-121v667zM292 367q48 0 74.5 28t26.5 68q0 43 -28 70t-73 27h-101v-193h101zM108 873h104l62 -82l61 82h104l-110 -156h-111z" />
    <glyph glyph-name="rcaron" unicode="&#x159;" horiz-adv-x="382" 
d="M58 469h113l3 -59q8 10 20.5 22t29.5 22t39.5 17t51.5 7q17 0 30.5 -2t27.5 -7l-24 -111q-12 5 -24.5 7t-29.5 2q-24 0 -46 -8t-38 -23t-25.5 -36t-9.5 -47v-253h-118v469zM53 682h104l56 -76l55 76h104l-104 -142h-111z" />
    <glyph glyph-name="Sacute" unicode="&#x15a;" horiz-adv-x="593" 
d="M119 188q12 -14 28.5 -29.5t37 -29t46 -22.5t57.5 -9q59 0 87.5 27t28.5 65q0 21 -8 37.5t-27 29t-49.5 22.5t-75.5 19q-46 9 -79.5 28t-55.5 45t-33 57.5t-11 64.5q0 38 14 72.5t43 61t72.5 42.5t102.5 16q53 0 91 -12t63.5 -28t39.5 -31.5t20 -22.5l-83 -78
q-5 4 -16 14.5t-27.5 20.5t-39.5 18t-52 8q-26 0 -45 -7t-31.5 -18t-18.5 -24.5t-6 -25.5q0 -18 6.5 -32t22 -26t42.5 -21.5t68 -17.5q39 -8 75 -24t63.5 -41.5t44 -62t16.5 -87.5q0 -44 -18 -81t-50 -65t-76 -43.5t-96 -15.5q-50 0 -90.5 12t-73 30.5t-56 40.5t-39.5 42z
M309 873h146l-114 -156h-105z" />
    <glyph glyph-name="sacute" unicode="&#x15b;" horiz-adv-x="478" 
d="M106 134q22 -22 55.5 -36.5t76.5 -14.5q38 0 61 10t23 33q0 10 -4 18.5t-17 16.5t-36 16t-62 17q-24 6 -50 16t-48.5 27.5t-37 42t-14.5 58.5q0 35 17 62.5t44.5 46t62 28.5t69.5 10q62 0 105.5 -13t78.5 -39l-61 -83q-19 14 -50 25.5t-73 11.5t-58.5 -12.5t-16.5 -30.5
q0 -22 27.5 -34.5t85.5 -26.5q36 -8 64.5 -20t49 -30t31.5 -42.5t11 -58.5t-16 -61.5t-43.5 -46.5t-64 -29.5t-77.5 -10.5q-66 0 -119 18.5t-85 54.5zM250 682h126l-79 -142h-95z" />
    <glyph glyph-name="Scircumflex" unicode="&#x15c;" horiz-adv-x="593" 
d="M119 188q12 -14 28.5 -29.5t37 -29t46 -22.5t57.5 -9q59 0 87.5 27t28.5 65q0 21 -8 37.5t-27 29t-49.5 22.5t-75.5 19q-46 9 -79.5 28t-55.5 45t-33 57.5t-11 64.5q0 38 14 72.5t43 61t72.5 42.5t102.5 16q53 0 91 -12t63.5 -28t39.5 -31.5t20 -22.5l-83 -78
q-5 4 -16 14.5t-27.5 20.5t-39.5 18t-52 8q-26 0 -45 -7t-31.5 -18t-18.5 -24.5t-6 -25.5q0 -18 6.5 -32t22 -26t42.5 -21.5t68 -17.5q39 -8 75 -24t63.5 -41.5t44 -62t16.5 -87.5q0 -44 -18 -81t-50 -65t-76 -43.5t-96 -15.5q-50 0 -90.5 12t-73 30.5t-56 40.5t-39.5 42z
M242 873h111l110 -156h-104l-62 82l-61 -82h-104z" />
    <glyph glyph-name="scircumflex" unicode="&#x15d;" horiz-adv-x="478" 
d="M106 134q22 -22 55.5 -36.5t76.5 -14.5q38 0 61 10t23 33q0 10 -4 18.5t-17 16.5t-36 16t-62 17q-24 6 -50 16t-48.5 27.5t-37 42t-14.5 58.5q0 35 17 62.5t44.5 46t62 28.5t69.5 10q62 0 105.5 -13t78.5 -39l-61 -83q-19 14 -50 25.5t-73 11.5t-58.5 -12.5t-16.5 -30.5
q0 -22 27.5 -34.5t85.5 -26.5q36 -8 64.5 -20t49 -30t31.5 -42.5t11 -58.5t-16 -61.5t-43.5 -46.5t-64 -29.5t-77.5 -10.5q-66 0 -119 18.5t-85 54.5zM196 682h111l104 -142h-104l-56 76l-55 -76h-104z" />
    <glyph glyph-name="Scedilla" unicode="&#x15e;" horiz-adv-x="593" 
d="M119 188q12 -14 28.5 -29.5t37 -29t46 -22.5t57.5 -9q59 0 87.5 27t28.5 65q0 21 -8 37.5t-27 29t-49.5 22.5t-75.5 19q-46 9 -79.5 28t-55.5 45t-33 57.5t-11 64.5q0 38 14 72.5t43 61t72.5 42.5t102.5 16q53 0 91 -12t63.5 -28t39.5 -31.5t20 -22.5l-83 -78
q-5 4 -16 14.5t-27.5 20.5t-39.5 18t-52 8q-26 0 -45 -7t-31.5 -18t-18.5 -24.5t-6 -25.5q0 -18 6.5 -32t22 -26t42.5 -21.5t68 -17.5q39 -8 75 -24t63.5 -41.5t44 -62t16.5 -87.5q0 -44 -18 -81t-50 -65t-76 -43.5t-96 -15.5q-50 0 -90.5 12t-73 30.5t-56 40.5t-39.5 42z
M178 -147q19 -7 36.5 -9.5t33.5 -2.5q26 0 41 7.5t15 22.5q0 12 -12.5 20.5t-39.5 8.5q-17 0 -34 -3t-30 -8l11 68q18 5 37 8.5t48 3.5q54 0 85.5 -26t31.5 -67q0 -26 -11.5 -46t-30 -33.5t-42.5 -20t-49 -6.5q-24 0 -42.5 2t-32.5 5q-16 3 -28 7z" />
    <glyph glyph-name="scedilla" unicode="&#x15f;" horiz-adv-x="478" 
d="M106 134q22 -22 55.5 -36.5t76.5 -14.5q38 0 61 10t23 33q0 10 -4 18.5t-17 16.5t-36 16t-62 17q-24 6 -50 16t-48.5 27.5t-37 42t-14.5 58.5q0 35 17 62.5t44.5 46t62 28.5t69.5 10q62 0 105.5 -13t78.5 -39l-61 -83q-19 14 -50 25.5t-73 11.5t-58.5 -12.5t-16.5 -30.5
q0 -22 27.5 -34.5t85.5 -26.5q36 -8 64.5 -20t49 -30t31.5 -42.5t11 -58.5t-16 -61.5t-43.5 -46.5t-64 -29.5t-77.5 -10.5q-66 0 -119 18.5t-85 54.5zM128 -149q19 -7 36 -9.5t33 -2.5q58 0 58 32q0 12 -12.5 21t-41.5 9q-17 0 -33.5 -3t-29.5 -8l11 67q18 5 36.5 8.5
t47.5 3.5q54 0 84.5 -26t30.5 -67q0 -26 -11 -46t-29.5 -33.5t-42 -20t-48.5 -6.5q-24 0 -42.5 2t-32.5 5q-16 3 -27 7z" />
    <glyph glyph-name="Scaron" unicode="&#x160;" horiz-adv-x="593" 
d="M119 188q12 -14 28.5 -29.5t37 -29t46 -22.5t57.5 -9q59 0 87.5 27t28.5 65q0 21 -8 37.5t-27 29t-49.5 22.5t-75.5 19q-46 9 -79.5 28t-55.5 45t-33 57.5t-11 64.5q0 38 14 72.5t43 61t72.5 42.5t102.5 16q53 0 91 -12t63.5 -28t39.5 -31.5t20 -22.5l-83 -78
q-5 4 -16 14.5t-27.5 20.5t-39.5 18t-52 8q-26 0 -45 -7t-31.5 -18t-18.5 -24.5t-6 -25.5q0 -18 6.5 -32t22 -26t42.5 -21.5t68 -17.5q39 -8 75 -24t63.5 -41.5t44 -62t16.5 -87.5q0 -44 -18 -81t-50 -65t-76 -43.5t-96 -15.5q-50 0 -90.5 12t-73 30.5t-56 40.5t-39.5 42z
M133 873h104l62 -82l61 82h104l-110 -156h-111z" />
    <glyph glyph-name="scaron" unicode="&#x161;" horiz-adv-x="478" 
d="M106 134q22 -22 55.5 -36.5t76.5 -14.5q38 0 61 10t23 33q0 10 -4 18.5t-17 16.5t-36 16t-62 17q-24 6 -50 16t-48.5 27.5t-37 42t-14.5 58.5q0 35 17 62.5t44.5 46t62 28.5t69.5 10q62 0 105.5 -13t78.5 -39l-61 -83q-19 14 -50 25.5t-73 11.5t-58.5 -12.5t-16.5 -30.5
q0 -22 27.5 -34.5t85.5 -26.5q36 -8 64.5 -20t49 -30t31.5 -42.5t11 -58.5t-16 -61.5t-43.5 -46.5t-64 -29.5t-77.5 -10.5q-66 0 -119 18.5t-85 54.5zM95 682h104l56 -76l55 76h104l-104 -142h-111z" />
    <glyph glyph-name="Tcommaaccent" unicode="&#x162;" horiz-adv-x="624" 
d="M249 556h-226v111h578v-111h-226v-556h-126v556zM243 -51h139l-88 -158h-104z" />
    <glyph glyph-name="tcommaaccent" unicode="&#x163;" horiz-adv-x="402" 
d="M98 373h-80v96h80v152h118v-152h126v-96h-126v-205q0 -40 13.5 -61.5t43.5 -21.5q28 0 44.5 8t31.5 19l50 -73q-35 -29 -69 -41.5t-76 -12.5q-43 0 -73 12.5t-48.5 35.5t-26.5 55.5t-8 71.5v213zM186 -51h126l-79 -142h-95z" />
    <glyph glyph-name="Tcaron" unicode="&#x164;" horiz-adv-x="624" 
d="M249 556h-226v111h578v-111h-226v-556h-126v556zM146 873h104l62 -82l61 82h104l-110 -156h-111z" />
    <glyph glyph-name="tcaron" unicode="&#x165;" horiz-adv-x="402" 
d="M269 668h110l-34 -155h-76v155zM98 373h-80v96h80v152h118v-152h126v-96h-126v-205q0 -40 13.5 -61.5t43.5 -21.5q28 0 44.5 8t31.5 19l50 -73q-35 -29 -69 -41.5t-76 -12.5q-43 0 -73 12.5t-48.5 35.5t-26.5 55.5t-8 71.5v213z" />
    <glyph glyph-name="Tbar" unicode="&#x166;" horiz-adv-x="624" 
d="M249 255h-134v104h134v197h-226v111h578v-111h-226v-197h133v-104h-133v-255h-126v255z" />
    <glyph glyph-name="tbar" unicode="&#x167;" horiz-adv-x="402" 
d="M19 280h79v93h-80v96h80v152h118v-152h126v-96h-126v-93h126v-84h-126v-28q0 -40 13.5 -61.5t43.5 -21.5q28 0 44.5 8t31.5 19l50 -73q-35 -29 -69 -41.5t-76 -12.5q-43 0 -73 12.5t-48.5 35.5t-26.5 55.5t-8 71.5v36h-79v84z" />
    <glyph glyph-name="Utilde" unicode="&#x168;" horiz-adv-x="674" 
d="M65 667h126v-399q0 -38 7.5 -68.5t24.5 -52t45 -33t69 -11.5t69 11.5t45 33t24.5 52t7.5 68.5v399h126v-421q0 -56 -18 -104t-53 -83.5t-85.5 -56t-115.5 -20.5t-115.5 20.5t-85.5 56t-53 83.5t-18 104v421zM133 804q9 9 22 20t29.5 20t35.5 15t41 6t38 -6.5t30.5 -14.5
t30 -14.5t36.5 -6.5q35 0 56.5 13t35.5 24l49 -75q-9 -9 -22 -20t-29 -20.5t-35 -16t-41 -6.5t-38 7t-31 15t-30.5 15t-36.5 7q-35 0 -56.5 -13t-35.5 -24z" />
    <glyph glyph-name="utilde" unicode="&#x169;" horiz-adv-x="551" 
d="M56 469h118v-284q0 -45 24.5 -69.5t63.5 -24.5q24 0 45 9.5t36 26.5t23.5 39.5t8.5 48.5v254h118v-469h-113l-3 53q-9 -10 -22 -21t-30 -20.5t-39 -15.5t-50 -6q-88 0 -134 52.5t-46 141.5v285zM79 615q8 9 20.5 19t28 18.5t34 14.5t38.5 6q21 0 36 -6.5t29 -14t29 -14
t35 -6.5q34 0 54 13t34 23l45 -70q-8 -9 -20.5 -19.5t-27.5 -19.5t-33.5 -15t-38.5 -6q-21 0 -36.5 6.5t-29.5 15t-29 15t-35 6.5q-34 0 -54 -13t-34 -23z" />
    <glyph glyph-name="Umacron" unicode="&#x16a;" horiz-adv-x="674" 
d="M65 667h126v-399q0 -38 7.5 -68.5t24.5 -52t45 -33t69 -11.5t69 11.5t45 33t24.5 52t7.5 68.5v399h126v-421q0 -56 -18 -104t-53 -83.5t-85.5 -56t-115.5 -20.5t-115.5 20.5t-85.5 56t-53 83.5t-18 104v421zM181 844h315v-97h-315v97z" />
    <glyph glyph-name="umacron" unicode="&#x16b;" horiz-adv-x="551" 
d="M56 469h118v-284q0 -45 24.5 -69.5t63.5 -24.5q24 0 45 9.5t36 26.5t23.5 39.5t8.5 48.5v254h118v-469h-113l-3 53q-9 -10 -22 -21t-30 -20.5t-39 -15.5t-50 -6q-88 0 -134 52.5t-46 141.5v285zM142 649h261v-92h-261v92z" />
    <glyph glyph-name="Ubreve" unicode="&#x16c;" horiz-adv-x="674" 
d="M65 667h126v-399q0 -38 7.5 -68.5t24.5 -52t45 -33t69 -11.5t69 11.5t45 33t24.5 52t7.5 68.5v399h126v-421q0 -56 -18 -104t-53 -83.5t-85.5 -56t-115.5 -20.5t-115.5 20.5t-85.5 56t-53 83.5t-18 104v421zM272 863q0 -26 17.5 -46.5t49.5 -20.5t49.5 20.5t17.5 46.5h93
q0 -29 -10 -55.5t-29.5 -47.5t-50 -33.5t-70.5 -12.5q-41 0 -71 12.5t-49.5 33.5t-29.5 47.5t-10 55.5h93z" />
    <glyph glyph-name="ubreve" unicode="&#x16d;" horiz-adv-x="551" 
d="M56 469h118v-284q0 -45 24.5 -69.5t63.5 -24.5q24 0 45 9.5t36 26.5t23.5 39.5t8.5 48.5v254h118v-469h-113l-3 53q-9 -10 -22 -21t-30 -20.5t-39 -15.5t-50 -6q-88 0 -134 52.5t-46 141.5v285zM213 682q0 -24 13.5 -44.5t48.5 -20.5t48.5 20.5t13.5 44.5h92
q0 -27 -9.5 -52.5t-29 -45.5t-48.5 -32t-67 -12t-67 12t-48.5 32t-29 45.5t-9.5 52.5h92z" />
    <glyph glyph-name="Uring" unicode="&#x16e;" horiz-adv-x="674" 
d="M65 667h126v-399q0 -38 7.5 -68.5t24.5 -52t45 -33t69 -11.5t69 11.5t45 33t24.5 52t7.5 68.5v399h126v-421q0 -56 -18 -104t-53 -83.5t-85.5 -56t-115.5 -20.5t-115.5 20.5t-85.5 56t-53 83.5t-18 104v421zM205 803q0 28 10 51.5t28 40.5t42 26.5t51 9.5q28 0 52 -9.5
t42 -26.5t28 -40.5t10 -50.5q0 -28 -10 -51.5t-28 -40.5t-42 -26.5t-51 -9.5q-28 0 -52 9.5t-42 26.5t-28 40.5t-10 50.5zM337 751q23 0 36.5 14.5t13.5 38.5q0 23 -13.5 37.5t-37.5 14.5q-23 0 -36.5 -14.5t-13.5 -38.5q0 -23 13.5 -37.5t37.5 -14.5z" />
    <glyph glyph-name="uring" unicode="&#x16f;" horiz-adv-x="551" 
d="M56 469h118v-284q0 -45 24.5 -69.5t63.5 -24.5q24 0 45 9.5t36 26.5t23.5 39.5t8.5 48.5v254h118v-469h-113l-3 53q-9 -10 -22 -21t-30 -20.5t-39 -15.5t-50 -6q-88 0 -134 52.5t-46 141.5v285zM155 644q0 24 9.5 45t25 36t37 23.5t45.5 8.5t45.5 -8.5t37.5 -23.5
t25.5 -35.5t9.5 -44.5t-9.5 -45t-25 -36t-37 -23.5t-45.5 -8.5t-45.5 8.5t-37.5 23.5t-25.5 35.5t-9.5 44.5zM272 600q19 0 31.5 12.5t12.5 31.5q0 18 -12.5 30.5t-30.5 12.5q-19 0 -31.5 -12.5t-12.5 -30.5q0 -19 12.5 -31.5t30.5 -12.5z" />
    <glyph glyph-name="Uhungarumlaut" unicode="&#x170;" horiz-adv-x="674" 
d="M65 667h126v-399q0 -38 7.5 -68.5t24.5 -52t45 -33t69 -11.5t69 11.5t45 33t24.5 52t7.5 68.5v399h126v-421q0 -56 -18 -104t-53 -83.5t-85.5 -56t-115.5 -20.5t-115.5 20.5t-85.5 56t-53 83.5t-18 104v421zM255 873h138l-114 -156h-97zM440 873h138l-114 -156h-97z" />
    <glyph glyph-name="uhungarumlaut" unicode="&#x171;" horiz-adv-x="551" 
d="M56 469h118v-284q0 -45 24.5 -69.5t63.5 -24.5q24 0 45 9.5t36 26.5t23.5 39.5t8.5 48.5v254h118v-469h-113l-3 53q-9 -10 -22 -21t-30 -20.5t-39 -15.5t-50 -6q-88 0 -134 52.5t-46 141.5v285zM354 682h119l-79 -142h-88zM192 682h119l-79 -142h-88z" />
    <glyph glyph-name="Uogonek" unicode="&#x172;" horiz-adv-x="674" 
d="M65 667h126v-399q0 -38 7.5 -68.5t24.5 -52t45 -33t69 -11.5q82 0 115.5 44.5t33.5 120.5v399h123v-421q0 -51 -12 -88.5t-30 -64t-40 -44.5t-42 -30q-43 -27 -59 -48.5t-16 -44.5q0 -29 26 -29q14 0 26 4.5t24 12.5l29 -75q-26 -17 -56.5 -27t-56.5 -10q-52 0 -76.5 22
t-24.5 58q0 26 13.5 51.5t33.5 49.5h-17q-64 0 -113.5 21t-83.5 57t-51.5 83.5t-17.5 101.5v421z" />
    <glyph glyph-name="uogonek" unicode="&#x173;" horiz-adv-x="551" 
d="M56 469h118v-284q0 -45 24.5 -69.5t63.5 -24.5q24 0 45 9.5t36 26.5t23.5 39.5t8.5 48.5v254h118v-469q-19 -18 -35.5 -40.5t-16.5 -39.5q0 -21 25 -21q16 0 29 5.5t26 13.5l28 -74q-25 -17 -54.5 -26.5t-55.5 -9.5q-51 0 -74.5 21.5t-23.5 56.5q0 29 18 58.5t43 55.5
h-22l-3 53q-9 -10 -22 -21t-30 -20.5t-39 -15.5t-50 -6q-88 0 -134 52.5t-46 141.5v285z" />
    <glyph glyph-name="Wcircumflex" unicode="&#x174;" horiz-adv-x="880" 
d="M10 667h138l109 -499l129 480h114l130 -480l108 499h132l-175 -667h-132l-124 441l-126 -441h-130zM390 873h111l110 -156h-104l-62 82l-61 -82h-104z" />
    <glyph glyph-name="wcircumflex" unicode="&#x175;" horiz-adv-x="749" 
d="M9 469h130l90 -326l99 326h99l100 -326l89 326h124l-159 -469h-114l-96 283l-93 -283h-110zM326 682h111l104 -142h-104l-56 76l-55 -76h-104z" />
    <glyph glyph-name="Ycircumflex" unicode="&#x176;" horiz-adv-x="600" 
d="M236 293l-231 374h138l160 -266l160 266h132l-231 -374v-293h-128v293zM248 873h111l110 -156h-104l-62 82l-61 -82h-104z" />
    <glyph glyph-name="ycircumflex" unicode="&#x177;" horiz-adv-x="527" 
d="M77 -93q10 -8 22 -15.5t30 -7.5q24 0 39.5 20t32.5 62l15 38l-211 465h136l134 -321l118 321h129l-196 -469q-14 -35 -28 -72t-34.5 -68.5t-50.5 -51.5t-76 -20q-40 0 -66.5 9.5t-46.5 26.5zM214 682h111l104 -142h-104l-56 76l-55 -76h-104z" />
    <glyph glyph-name="Ydieresis" unicode="&#x178;" horiz-adv-x="600" 
d="M236 293l-231 374h138l160 -266l160 266h132l-231 -374v-293h-128v293zM347 854h123v-117h-123v117zM134 854h123v-117h-123v117z" />
    <glyph glyph-name="Zacute" unicode="&#x179;" horiz-adv-x="658" 
d="M53 110l393 446h-375v111h526v-111l-385 -446h393v-110h-552v110zM334 873h146l-114 -156h-105z" />
    <glyph glyph-name="zacute" unicode="&#x17a;" horiz-adv-x="472" 
d="M46 90l239 280h-232v99h379v-92l-247 -281h247v-96h-386v90zM259 682h126l-79 -142h-95z" />
    <glyph glyph-name="Zdotaccent" unicode="&#x17b;" horiz-adv-x="658" 
d="M53 110l393 446h-375v111h526v-111l-385 -446h393v-110h-552v110zM276 857h129v-123h-129v123z" />
    <glyph glyph-name="zdotaccent" unicode="&#x17c;" horiz-adv-x="472" 
d="M46 90l239 280h-232v99h379v-92l-247 -281h247v-96h-386v90zM191 670h123v-117h-123v117z" />
    <glyph glyph-name="Zcaron" unicode="&#x17d;" horiz-adv-x="658" 
d="M53 110l393 446h-375v111h526v-111l-385 -446h393v-110h-552v110zM174 873h104l62 -82l61 82h104l-110 -156h-111z" />
    <glyph glyph-name="zcaron" unicode="&#x17e;" horiz-adv-x="472" 
d="M46 90l239 280h-232v99h379v-92l-247 -281h247v-96h-386v90zM94 682h104l56 -76l55 76h104l-104 -142h-111z" />
    <glyph glyph-name="longs" unicode="&#x17f;" horiz-adv-x="233" 
d="M58 474q0 48 7.5 85.5t33.5 66.5q21 24 54.5 41.5t78.5 17.5q16 0 34 -2t37 -7t38 -14.5t37 -25.5l-55 -78q-27 20 -61.5 24.5t-60.5 -16.5q-19 -15 -22 -38t-4 -59l1 -469h-118v474z" />
    <glyph glyph-name="florin" unicode="&#x192;" horiz-adv-x="545" 
d="M-10 -61q16 -15 34 -21.5t34 -6.5q34 0 53 16.5t29 70.5l54 296h-87v98h105l13 73q7 40 21.5 73.5t37.5 58t56.5 38t79.5 13.5q43 0 77.5 -12t60.5 -41l-62 -85q-17 15 -35.5 21.5t-34.5 6.5q-34 0 -53 -17t-29 -71l-11 -58h100v-98h-118l-56 -311q-8 -40 -22 -73.5
t-38 -58t-58 -38t-82 -13.5q-11 0 -27 2t-34 7.5t-36.5 15t-35.5 23.5z" />
    <glyph glyph-name="Scommaaccent" unicode="&#x218;" horiz-adv-x="593" 
d="M119 188q12 -14 28.5 -29.5t37 -29t46 -22.5t57.5 -9q59 0 87.5 27t28.5 65q0 21 -8 37.5t-27 29t-49.5 22.5t-75.5 19q-46 9 -79.5 28t-55.5 45t-33 57.5t-11 64.5q0 38 14 72.5t43 61t72.5 42.5t102.5 16q53 0 91 -12t63.5 -28t39.5 -31.5t20 -22.5l-83 -78
q-5 4 -16 14.5t-27.5 20.5t-39.5 18t-52 8q-26 0 -45 -7t-31.5 -18t-18.5 -24.5t-6 -25.5q0 -18 6.5 -32t22 -26t42.5 -21.5t68 -17.5q39 -8 75 -24t63.5 -41.5t44 -62t16.5 -87.5q0 -44 -18 -81t-50 -65t-76 -43.5t-96 -15.5q-50 0 -90.5 12t-73 30.5t-56 40.5t-39.5 42z
M231 -51h139l-88 -158h-104z" />
    <glyph glyph-name="scommaaccent" unicode="&#x219;" horiz-adv-x="478" 
d="M106 134q22 -22 55.5 -36.5t76.5 -14.5q38 0 61 10t23 33q0 10 -4 18.5t-17 16.5t-36 16t-62 17q-24 6 -50 16t-48.5 27.5t-37 42t-14.5 58.5q0 35 17 62.5t44.5 46t62 28.5t69.5 10q62 0 105.5 -13t78.5 -39l-61 -83q-19 14 -50 25.5t-73 11.5t-58.5 -12.5t-16.5 -30.5
q0 -22 27.5 -34.5t85.5 -26.5q36 -8 64.5 -20t49 -30t31.5 -42.5t11 -58.5t-16 -61.5t-43.5 -46.5t-64 -29.5t-77.5 -10.5q-66 0 -119 18.5t-85 54.5zM189 -51h126l-79 -142h-95z" />
    <glyph glyph-name="uni021A" unicode="&#x21a;" horiz-adv-x="624" 
d="M249 556h-226v111h578v-111h-226v-556h-126v556zM243 -51h139l-88 -158h-104z" />
    <glyph glyph-name="uni021B" unicode="&#x21b;" horiz-adv-x="402" 
d="M98 373h-80v96h80v152h118v-152h126v-96h-126v-205q0 -40 13.5 -61.5t43.5 -21.5q28 0 44.5 8t31.5 19l50 -73q-35 -29 -69 -41.5t-76 -12.5q-43 0 -73 12.5t-48.5 35.5t-26.5 55.5t-8 71.5v213zM186 -51h126l-79 -142h-95z" />
    <glyph glyph-name="dotlessj" unicode="&#x237;" horiz-adv-x="244" 
d="M-43 -83q9 -5 22 -10.5t32 -5.5q23 0 37.5 19t14.5 56v493h118v-470q0 -35 -5.5 -70t-22 -64t-46.5 -47t-80 -18q-42 0 -69.5 12.5t-44.5 24.5z" />
    <glyph glyph-name="apostrophe" unicode="&#x2bc;" horiz-adv-x="116" 
d="M18 682h119l-39 -142h-88z" />
    <glyph glyph-name="circumflex" unicode="&#x2c6;" horiz-adv-x="449" 
d="M169 682h111l104 -142h-104l-56 76l-55 -76h-104z" />
    <glyph glyph-name="caron" unicode="&#x2c7;" horiz-adv-x="449" 
d="M65 682h104l56 -76l55 76h104l-104 -142h-111z" />
    <glyph glyph-name="uni02C9" unicode="&#x2c9;" horiz-adv-x="347" 
d="M43 649h261v-92h-261v92z" />
    <glyph glyph-name="breve" unicode="&#x2d8;" horiz-adv-x="460" 
d="M183 682q0 -24 13.5 -44.5t48.5 -20.5t48.5 20.5t13.5 44.5h92q0 -27 -9.5 -52.5t-29 -45.5t-48.5 -32t-67 -12t-67 12t-48.5 32t-29 45.5t-9.5 52.5h92z" />
    <glyph glyph-name="dotaccent" unicode="&#x2d9;" horiz-adv-x="259" 
d="M68 670h123v-117h-123v117z" />
    <glyph glyph-name="ring" unicode="&#x2da;" horiz-adv-x="315" 
d="M40 644q0 24 9.5 45t25 36t37 23.5t45.5 8.5t45.5 -8.5t37.5 -23.5t25.5 -35.5t9.5 -44.5t-9.5 -45t-25 -36t-37 -23.5t-45.5 -8.5t-45.5 8.5t-37.5 23.5t-25.5 35.5t-9.5 44.5zM157 600q19 0 31.5 12.5t12.5 31.5q0 18 -12.5 30.5t-30.5 12.5q-19 0 -31.5 -12.5
t-12.5 -30.5q0 -19 12.5 -31.5t30.5 -12.5z" />
    <glyph glyph-name="ogonek" unicode="&#x2db;" horiz-adv-x="298" 
d="M214 0q-19 -18 -35.5 -40.5t-16.5 -39.5q0 -21 25 -21q16 0 29 5.5t26 13.5l28 -74q-25 -17 -54.5 -26.5t-55.5 -9.5q-51 0 -74.5 21.5t-23.5 56.5q0 29 18 58.5t43 55.5h91z" />
    <glyph glyph-name="tilde" unicode="&#x2dc;" horiz-adv-x="462" 
d="M38 615q8 9 20.5 19t28 18.5t34 14.5t38.5 6q21 0 36 -6.5t29 -14t29 -14t35 -6.5q34 0 54 13t34 23l45 -70q-8 -9 -20.5 -19.5t-27.5 -19.5t-33.5 -15t-38.5 -6q-21 0 -36.5 6.5t-29.5 15t-29 15t-35 6.5q-34 0 -54 -13t-34 -23z" />
    <glyph glyph-name="hungarumlaut" unicode="&#x2dd;" horiz-adv-x="445" 
d="M268 682h119l-79 -142h-88zM106 682h119l-79 -142h-88z" />
    <glyph glyph-name="uni0394" unicode="&#x394;" horiz-adv-x="711" 
d="M38 113l255 554h125l255 -554v-113h-635v113zM549 113l-197 425l-191 -425h388z" />
    <glyph glyph-name="Omega" unicode="&#x3a9;" horiz-adv-x="822" 
d="M53 113h126q-56 46 -85.5 103t-29.5 135q0 73 27 134t73.5 105t110 69t136.5 25t136.5 -25t110 -69t73.5 -105t27 -134q0 -78 -29.5 -135t-85.5 -103h126v-113h-298v113q36 10 65 34t49.5 57t31 71.5t10.5 78.5q0 48 -15 87.5t-43 68t-68 44.5t-89 16h-2q-50 0 -89.5 -16
t-67.5 -44.5t-43 -68t-15 -87.5q0 -40 10.5 -78.5t31 -71.5t49.5 -57t65 -34v-113h-298v113z" />
    <glyph glyph-name="uni03BC" unicode="&#x3bc;" horiz-adv-x="551" 
d="M59 469h118v-284q0 -45 24.5 -69.5t63.5 -24.5q49 0 81 33.5t32 85.5v259h118v-469h-113l-3 48q-18 -20 -50 -39t-77 -19q-20 0 -36.5 5t-39.5 19v-214h-118v669z" />
    <glyph glyph-name="pi" unicode="&#x3c0;" horiz-adv-x="694" 
d="M153 373h-100v96h583v-96h-99v-215q0 -35 7.5 -48.5t33.5 -13.5t41 6l22 -91q-18 -8 -46 -12t-51 -4q-66 0 -95 40.5t-29 110.5l-1 227h-148v-373h-118v373z" />
    <glyph glyph-name="Wgrave" unicode="&#x1e80;" horiz-adv-x="880" 
d="M10 667h138l109 -499l129 480h114l130 -480l108 499h132l-175 -667h-132l-124 441l-126 -441h-130zM269 873h146l73 -156h-105z" />
    <glyph glyph-name="wgrave" unicode="&#x1e81;" horiz-adv-x="749" 
d="M9 469h130l90 -326l99 326h99l100 -326l89 326h124l-159 -469h-114l-96 283l-93 -283h-110zM253 682h126l48 -142h-95z" />
    <glyph glyph-name="Wacute" unicode="&#x1e82;" horiz-adv-x="880" 
d="M10 667h138l109 -499l129 480h114l130 -480l108 499h132l-175 -667h-132l-124 441l-126 -441h-130zM465 873h146l-114 -156h-105z" />
    <glyph glyph-name="wacute" unicode="&#x1e83;" horiz-adv-x="749" 
d="M9 469h130l90 -326l99 326h99l100 -326l89 326h124l-159 -469h-114l-96 283l-93 -283h-110zM376 682h126l-79 -142h-95z" />
    <glyph glyph-name="Wdieresis" unicode="&#x1e84;" horiz-adv-x="880" 
d="M10 667h138l109 -499l129 480h114l130 -480l108 499h132l-175 -667h-132l-124 441l-126 -441h-130zM487 854h123v-117h-123v117zM274 854h123v-117h-123v117z" />
    <glyph glyph-name="wdieresis" unicode="&#x1e85;" horiz-adv-x="749" 
d="M9 469h130l90 -326l99 326h99l100 -326l89 326h124l-159 -469h-114l-96 283l-93 -283h-110zM409 666h115v-109h-115v109zM224 666h115v-109h-115v109z" />
    <glyph glyph-name="Ygrave" unicode="&#x1ef2;" horiz-adv-x="600" 
d="M236 293l-231 374h138l160 -266l160 266h132l-231 -374v-293h-128v293zM149 873h146l73 -156h-105z" />
    <glyph glyph-name="ygrave" unicode="&#x1ef3;" horiz-adv-x="527" 
d="M77 -93q10 -8 22 -15.5t30 -7.5q24 0 39.5 20t32.5 62l15 38l-211 465h136l134 -321l118 321h129l-196 -469q-14 -35 -28 -72t-34.5 -68.5t-50.5 -51.5t-76 -20q-40 0 -66.5 9.5t-46.5 26.5zM151 682h126l48 -142h-95z" />
    <glyph glyph-name="endash" unicode="&#x2013;" horiz-adv-x="500" 
d="M0 336h500v-112h-500v112z" />
    <glyph glyph-name="emdash" unicode="&#x2014;" horiz-adv-x="1000" 
d="M0 336h1000v-112h-1000v112z" />
    <glyph glyph-name="emdash" unicode="&#x2015;" horiz-adv-x="1000" 
d="M0 336h1000v-112h-1000v112z" />
    <glyph glyph-name="quoteleft" unicode="&#x2018;" horiz-adv-x="268" 
d="M116 666h89l-22 -211h-135z" />
    <glyph glyph-name="quoteright" unicode="&#x2019;" horiz-adv-x="268" 
d="M85 666h135l-68 -211h-89z" />
    <glyph glyph-name="quotesinglbase" unicode="&#x201a;" horiz-adv-x="283" 
d="M90 139h135l-68 -211h-89z" />
    <glyph glyph-name="quotedblleft" unicode="&#x201c;" horiz-adv-x="458" 
d="M116 666h89l-22 -211h-135zM306 666h89l-22 -211h-135z" />
    <glyph glyph-name="quotedblright" unicode="&#x201d;" horiz-adv-x="458" 
d="M85 666h135l-68 -211h-89zM275 666h135l-68 -211h-89z" />
    <glyph glyph-name="quotedblbase" unicode="&#x201e;" horiz-adv-x="475" 
d="M90 139h135l-68 -211h-89zM283 139h135l-68 -211h-89z" />
    <glyph glyph-name="dagger" unicode="&#x2020;" horiz-adv-x="529" 
d="M207 383h-149v96h149v188h115v-188h149v-96h-149v-504h-115v504z" />
    <glyph glyph-name="daggerdbl" unicode="&#x2021;" horiz-adv-x="539" 
d="M212 67h-149v96h149v220h-149v96h149v188h115v-188h149v-96h-149v-220h149v-96h-149v-188h-115v188z" />
    <glyph glyph-name="bullet" unicode="&#x2022;" horiz-adv-x="438" 
d="M83 343q0 28 10.5 53t29 43.5t43.5 29t53 10.5t53 -10.5t43.5 -29t29 -43.5t10.5 -53t-10.5 -53t-29 -43.5t-43.5 -29t-53 -10.5t-53 10.5t-43.5 29t-29 43.5t-10.5 53z" />
    <glyph glyph-name="ellipsis" unicode="&#x2026;" horiz-adv-x="793" 
d="M325 138h143v-138h-143v138zM585 138h143v-138h-143v138zM68 138h143v-138h-143v138z" />
    <glyph glyph-name="perthousand" unicode="&#x2030;" horiz-adv-x="1306" 
d="M609 630h107l-406 -630h-107zM210 285q-69 0 -114 45.5t-45 135.5t45 135.5t114 45.5t114 -45.5t45 -135.5t-45 -135.5t-114 -45.5zM210 364q11 0 22 5t19.5 17t14 31.5t5.5 48.5t-5.5 48.5t-14 31.5t-19.5 17t-22 5t-22 -5t-19.5 -17t-14 -31.5t-5.5 -48.5t5.5 -48.5
t14 -31.5t19.5 -17t22 -5zM715 -6q-69 0 -114 45.5t-45 135.5t45 135.5t114 45.5t114 -45.5t45 -135.5t-45 -135.5t-114 -45.5zM715 73q11 0 22 5t19.5 17t14 31.5t5.5 48.5t-5.5 48.5t-14 31.5t-19.5 17t-22 5t-22 -5t-19.5 -17t-14 -31.5t-5.5 -48.5t5.5 -48.5t14 -31.5
t19.5 -17t22 -5zM1096 -6q-69 0 -114 45.5t-45 135.5t45 135.5t114 45.5t114 -45.5t45 -135.5t-45 -135.5t-114 -45.5zM1096 73q11 0 22 5t19.5 17t14 31.5t5.5 48.5t-5.5 48.5t-14 31.5t-19.5 17t-22 5t-22 -5t-19.5 -17t-14 -31.5t-5.5 -48.5t5.5 -48.5t14 -31.5t19.5 -17
t22 -5z" />
    <glyph glyph-name="guilsinglleft" unicode="&#x2039;" horiz-adv-x="340" 
d="M58 241l104 194h115l-99 -194l99 -194h-115z" />
    <glyph glyph-name="guilsinglright" unicode="&#x203a;" horiz-adv-x="340" 
d="M162 241l-99 194h115l104 -194l-104 -194h-115z" />
    <glyph glyph-name="fraction" unicode="&#x2044;" horiz-adv-x="195" 
d="M249 630h107l-406 -630h-107z" />
    <glyph glyph-name="zerosuperior" unicode="&#x2070;" 
d="M180 285q-69 0 -114 45.5t-45 135.5t45 135.5t114 45.5t114 -45.5t45 -135.5t-45 -135.5t-114 -45.5zM180 364q11 0 22 5t19.5 17t14 31.5t5.5 48.5t-5.5 48.5t-14 31.5t-19.5 17t-22 5t-22 -5t-19.5 -17t-14 -31.5t-5.5 -48.5t5.5 -48.5t14 -31.5t19.5 -17t22 -5z" />
    <glyph glyph-name="foursuperior" unicode="&#x2074;" 
d="M33 426l172 211h96v-211h41v-71h-41v-60h-87v60h-181v71zM214 426v122l-103 -122h103z" />
    <glyph glyph-name="fivesuperior" unicode="&#x2075;" 
d="M69 390q17 -14 40 -22t48 -8q9 0 19.5 1.5t20 6t15.5 13t6 22.5q0 21 -19 31.5t-43 10.5q-13 0 -28 -2.5t-29 -10.5l-44 35l38 170h199v-79h-131l-11 -52q18 5 37 5q24 0 46 -6.5t39.5 -19.5t27.5 -33.5t10 -47.5q0 -25 -10.5 -47.5t-30 -39t-47 -26t-61.5 -9.5
q-38 0 -74 11t-61 29z" />
    <glyph glyph-name="sixsuperior" unicode="&#x2076;" 
d="M271 554q-11 6 -27 10.5t-33 4.5q-34 0 -58 -21t-26 -53q17 9 37.5 13.5t38.5 4.5q23 0 45 -6t39 -19t27 -34t10 -51q0 -24 -10.5 -45.5t-29 -37.5t-44.5 -25.5t-56 -9.5q-28 0 -55 9.5t-48 29.5t-34 52t-13 76q0 43 12.5 78.5t35 61.5t54 40.5t70.5 14.5q35 0 60 -8.5
t36 -14.5zM127 429q0 -37 15.5 -55t39.5 -18q26 0 42 13t16 34q0 18 -13 31t-40 13q-17 0 -34.5 -6t-25.5 -12z" />
    <glyph glyph-name="sevensuperior" unicode="&#x2077;" 
d="M83 295q12 37 30.5 76t38 75t37.5 65t28 47h-172v79h269v-80q-11 -17 -29 -48.5t-37.5 -68t-36.5 -75t-26 -70.5h-102z" />
    <glyph glyph-name="eightsuperior" unicode="&#x2078;" 
d="M99 476q-51 26 -51 73q0 24 11 42.5t29 30.5t41.5 18.5t49.5 6.5q25 0 49 -6t42.5 -18.5t29.5 -31t11 -42.5q0 -23 -13.5 -42t-37.5 -31q29 -11 47.5 -31.5t18.5 -52.5q0 -27 -12 -47t-32 -33.5t-46.5 -20t-56.5 -6.5t-56.5 6.5t-46.5 20t-31.5 33.5t-11.5 47
q0 32 18.5 52.5t47.5 31.5zM181 446q-19 -5 -35.5 -18t-16.5 -34q0 -20 15.5 -29t34.5 -9q18 0 34 9t16 29q0 21 -15.5 34t-32.5 18zM177 505q17 5 32 14t15 28q0 18 -13.5 27t-31.5 9t-31.5 -9t-13.5 -27q0 -19 13 -28t30 -14z" />
    <glyph glyph-name="ninesuperior" unicode="&#x2079;" 
d="M85 378q11 -6 27.5 -10.5t39.5 -4.5q40 0 59 21t21 53q-17 -9 -37.5 -13.5t-38.5 -4.5q-23 0 -45 6t-39 19t-27 34t-10 51q0 24 10.5 45.5t29 37.5t44.5 25.5t56 9.5q28 0 55 -9.5t48 -30t34 -52t13 -75.5q0 -43 -11 -78.5t-33 -61.5t-55 -40.5t-78 -14.5
q-34 0 -58.5 8.5t-35.5 14.5zM232 503q0 37 -15.5 55t-39.5 18q-26 0 -42 -13t-16 -34q0 -18 13 -31t40 -13q17 0 34.5 6t25.5 12z" />
    <glyph glyph-name="zeroinferior" unicode="&#x2080;" 
d="M180 -6q-69 0 -114 45.5t-45 135.5t45 135.5t114 45.5t114 -45.5t45 -135.5t-45 -135.5t-114 -45.5zM180 73q11 0 22 5t19.5 17t14 31.5t5.5 48.5t-5.5 48.5t-14 31.5t-19.5 17t-22 5t-22 -5t-19.5 -17t-14 -31.5t-5.5 -48.5t5.5 -48.5t14 -31.5t19.5 -17t22 -5z" />
    <glyph glyph-name="oneinferior" unicode="&#x2081;" 
d="M173 242l-78 -39l-36 72l126 71h86v-342h-98v238z" />
    <glyph glyph-name="twoinferior" unicode="&#x2082;" 
d="M49 49q0 26 12.5 46.5t30.5 37.5t40 31t40 26.5t30.5 24.5t12.5 25q0 18 -11 25.5t-28 7.5q-23 0 -50 -11t-47 -24l-36 70q25 17 63 32.5t82 15.5q66 0 97 -30.5t31 -75.5q0 -36 -17 -58.5t-41 -39.5t-51 -32t-47 -36h157v-80h-268v45z" />
    <glyph glyph-name="threeinferior" unicode="&#x2083;" 
d="M74 104q18 -14 40.5 -23t47.5 -9q24 0 39 10t15 31q0 26 -19 34t-47 8q-13 0 -26 -2t-23 -5l-16 35l106 84h-133v79h240v-76l-77 -61q52 -10 71.5 -39t19.5 -67q0 -48 -40.5 -78.5t-108.5 -30.5q-42 0 -75.5 11.5t-57.5 30.5z" />
    <glyph glyph-name="fourinferior" unicode="&#x2084;" 
d="M33 135l172 211h96v-211h41v-71h-41v-60h-87v60h-181v71zM214 135v122l-103 -122h103z" />
    <glyph glyph-name="fiveinferior" unicode="&#x2085;" 
d="M69 99q17 -14 40 -22t48 -8q9 0 19.5 1.5t20 6t15.5 13t6 22.5q0 21 -19 31.5t-43 10.5q-13 0 -28 -2.5t-29 -10.5l-44 35l38 170h199v-79h-131l-11 -52q18 5 37 5q24 0 46 -6.5t39.5 -19.5t27.5 -33.5t10 -47.5q0 -25 -10.5 -47.5t-30 -39t-47 -26t-61.5 -9.5
q-38 0 -74 11t-61 29z" />
    <glyph glyph-name="sixinferior" unicode="&#x2086;" 
d="M271 263q-11 6 -27 10.5t-33 4.5q-34 0 -58 -21t-26 -53q17 9 37.5 13.5t38.5 4.5q23 0 45 -6t39 -19t27 -34t10 -51q0 -24 -10.5 -45.5t-29 -37.5t-44.5 -25.5t-56 -9.5q-28 0 -55 9.5t-48 29.5t-34 52t-13 76q0 43 12.5 78.5t35 61.5t54 40.5t70.5 14.5q35 0 60 -8.5
t36 -14.5zM127 138q0 -37 15.5 -55t39.5 -18q26 0 42 13t16 34q0 18 -13 31t-40 13q-17 0 -34.5 -6t-25.5 -12z" />
    <glyph glyph-name="seveninferior" unicode="&#x2087;" 
d="M83 4q12 37 30.5 76t38 75t37.5 65t28 47h-172v79h269v-80q-11 -17 -29 -48.5t-37.5 -68t-36.5 -75t-26 -70.5h-102z" />
    <glyph glyph-name="eightinferior" unicode="&#x2088;" 
d="M99 185q-51 26 -51 73q0 24 11 42.5t29 30.5t41.5 18.5t49.5 6.5q25 0 49 -6t42.5 -18.5t29.5 -31t11 -42.5q0 -23 -13.5 -42t-37.5 -31q29 -11 47.5 -31.5t18.5 -52.5q0 -27 -12 -47t-32 -33.5t-46.5 -20t-56.5 -6.5t-56.5 6.5t-46.5 20t-31.5 33.5t-11.5 47
q0 32 18.5 52.5t47.5 31.5zM181 155q-19 -5 -35.5 -18t-16.5 -34q0 -20 15.5 -29t34.5 -9q18 0 34 9t16 29q0 21 -15.5 34t-32.5 18zM177 214q17 5 32 14t15 28q0 18 -13.5 27t-31.5 9t-31.5 -9t-13.5 -27q0 -19 13 -28t30 -14z" />
    <glyph glyph-name="nineinferior" unicode="&#x2089;" 
d="M85 87q11 -6 27.5 -10.5t39.5 -4.5q40 0 59 21t21 53q-17 -9 -37.5 -13.5t-38.5 -4.5q-23 0 -45 6t-39 19t-27 34t-10 51q0 24 10.5 45.5t29 37.5t44.5 25.5t56 9.5q28 0 55 -9.5t48 -30t34 -52t13 -75.5q0 -43 -11 -78.5t-33 -61.5t-55 -40.5t-78 -14.5q-34 0 -58.5 8.5
t-35.5 14.5zM232 212q0 37 -15.5 55t-39.5 18q-26 0 -42 -13t-16 -34q0 -18 13 -31t40 -13q17 0 34.5 6t25.5 12z" />
    <glyph glyph-name="Euro" unicode="&#x20ac;" horiz-adv-x="545" 
d="M56 280h55q-1 10 -1 20v21v19t1 19h-78l23 74h66q12 47 33.5 86.5t52.5 68.5t71 45t90 16q61 0 102 -20.5t74 -52.5l-63 -80q-23 23 -47.5 33.5t-62.5 10.5q-52 0 -83 -29.5t-45 -77.5h189l-23 -74h-179q-1 -10 -1 -19v-19v-21t1 -20h192l-23 -74h-155q14 -48 45 -77
t82 -29q38 0 62.5 10.5t47.5 33.5l63 -80q-33 -32 -74 -52.5t-102 -20.5q-49 0 -89.5 16t-71 44.5t-52 68t-33.5 86.5h-90z" />
    <glyph glyph-name="afii61289" unicode="&#x2113;" horiz-adv-x="472" 
d="M131 437q0 71 9.5 119.5t28 78t45 42.5t61.5 13q51 0 84 -37.5t33 -106.5q0 -91 -48 -172.5t-136 -163.5v-20q0 -41 6 -66.5t16.5 -39.5t25 -19.5t31.5 -5.5q32 0 61.5 16.5t45.5 39.5l19 -20l21 -18q-27 -40 -65.5 -63t-90.5 -23q-70 0 -108 39.5t-38 127.5
q-13 -10 -24.5 -18t-24.5 -17q-5 11 -11.5 22t-13.5 22q19 13 37 27.5t36 30.5v212zM208 289q54 60 85.5 123.5t31.5 132.5q0 48 -16 67.5t-38 19.5q-26 0 -44.5 -33t-18.5 -109v-201z" />
    <glyph glyph-name="trademark" unicode="&#x2122;" horiz-adv-x="861" 
d="M433 667h80l106 -163l104 163h85l12 -383h-87l-7 249l-93 -152h-32l-89 142l-7 -239h-84zM161 584h-128v83h352v-83h-128v-300h-96v300z" />
    <glyph glyph-name="uni2126" unicode="&#x2126;" horiz-adv-x="822" 
d="M53 113h126q-56 46 -85.5 103t-29.5 135q0 73 27 134t73.5 105t110 69t136.5 25t136.5 -25t110 -69t73.5 -105t27 -134q0 -78 -29.5 -135t-85.5 -103h126v-113h-298v113q36 10 65 34t49.5 57t31 71.5t10.5 78.5q0 48 -15 87.5t-43 68t-68 44.5t-89 16h-2q-50 0 -89.5 -16
t-67.5 -44.5t-43 -68t-15 -87.5q0 -40 10.5 -78.5t31 -71.5t49.5 -57t65 -34v-113h-298v113z" />
    <glyph glyph-name="estimated" unicode="&#x212e;" horiz-adv-x="893" 
d="M195 138q0 -13 9 -22q48 -51 110 -79t135 -28q79 0 145 32.5t114 86.5h57q-26 -32 -60.5 -57.5t-75.5 -43.5t-87 -28t-94 -10q-83 0 -156 28.5t-127 77t-85.5 114t-31.5 140.5t31.5 140.5t85.5 114.5t127 77.5t156 28.5t156.5 -28.5t128 -77.5t86 -114.5t31.5 -140.5v-10
h-650q-5 0 -5 -4v-197zM698 358q4 0 4 7v197q0 13 -9 24q-48 48 -110 75t-134 27q-71 0 -134 -29t-110 -77q-5 -4 -7.5 -10.5t-2.5 -13.5v-193q0 -7 5 -7h498z" />
    <glyph glyph-name="onethird" unicode="&#x2153;" horiz-adv-x="925" 
d="M182 533l-78 -39l-36 72l126 71h86v-342h-98v238zM598 630h107l-406 -630h-107zM618 104q18 -14 40.5 -23t47.5 -9q24 0 39 10t15 31q0 26 -19 34t-47 8q-13 0 -26 -2t-23 -5l-16 35l106 84h-133v79h240v-76l-77 -61q52 -10 71.5 -39t19.5 -67q0 -48 -40.5 -78.5
t-108.5 -30.5q-42 0 -75.5 11.5t-57.5 30.5z" />
    <glyph glyph-name="twothirds" unicode="&#x2154;" horiz-adv-x="925" 
d="M56 340q0 26 12.5 46.5t30.5 37.5t40 31t40 26.5t30.5 24.5t12.5 25q0 18 -11 25.5t-28 7.5q-23 0 -50 -11t-47 -24l-36 70q25 17 63 32.5t82 15.5q66 0 97 -30.5t31 -75.5q0 -36 -17 -58.5t-41 -39.5t-51 -32t-47 -36h157v-80h-268v45zM616 630h107l-406 -630h-107z
M636 104q18 -14 40.5 -23t47.5 -9q24 0 39 10t15 31q0 26 -19 34t-47 8q-13 0 -26 -2t-23 -5l-16 35l106 84h-133v79h240v-76l-77 -61q52 -10 71.5 -39t19.5 -67q0 -48 -40.5 -78.5t-108.5 -30.5q-42 0 -75.5 11.5t-57.5 30.5z" />
    <glyph glyph-name="onefifth" unicode="&#x2155;" horiz-adv-x="925" 
d="M183 533l-78 -39l-36 72l126 71h86v-342h-98v238zM599 630h107l-406 -630h-107zM614 99q17 -14 40 -22t48 -8q9 0 19.5 1.5t20 6t15.5 13t6 22.5q0 21 -19 31.5t-43 10.5q-13 0 -28 -2.5t-29 -10.5l-44 35l38 170h199v-79h-131l-11 -52q18 5 37 5q24 0 46 -6.5
t39.5 -19.5t27.5 -33.5t10 -47.5q0 -25 -10.5 -47.5t-30 -39t-47 -26t-61.5 -9.5q-38 0 -74 11t-61 29z" />
    <glyph glyph-name="twofifths" unicode="&#x2156;" horiz-adv-x="925" 
d="M57 340q0 26 12.5 46.5t30.5 37.5t40 31t40 26.5t30.5 24.5t12.5 25q0 18 -11 25.5t-28 7.5q-23 0 -50 -11t-47 -24l-36 70q25 17 63 32.5t82 15.5q66 0 97 -30.5t31 -75.5q0 -36 -17 -58.5t-41 -39.5t-51 -32t-47 -36h157v-80h-268v45zM617 630h107l-406 -630h-107z
M632 99q17 -14 40 -22t48 -8q9 0 19.5 1.5t20 6t15.5 13t6 22.5q0 21 -19 31.5t-43 10.5q-13 0 -28 -2.5t-29 -10.5l-44 35l38 170h199v-79h-131l-11 -52q18 5 37 5q24 0 46 -6.5t39.5 -19.5t27.5 -33.5t10 -47.5q0 -25 -10.5 -47.5t-30 -39t-47 -26t-61.5 -9.5
q-38 0 -74 11t-61 29z" />
    <glyph glyph-name="threefifths" unicode="&#x2157;" horiz-adv-x="925" 
d="M97 395q18 -14 40.5 -23t47.5 -9q24 0 39 10t15 31q0 26 -19 34t-47 8q-13 0 -26 -2t-23 -5l-16 35l106 84h-133v79h240v-76l-77 -61q52 -10 71.5 -39t19.5 -67q0 -48 -40.5 -78.5t-108.5 -30.5q-42 0 -75.5 11.5t-57.5 30.5zM617 630h107l-406 -630h-107zM632 99
q17 -14 40 -22t48 -8q9 0 19.5 1.5t20 6t15.5 13t6 22.5q0 21 -19 31.5t-43 10.5q-13 0 -28 -2.5t-29 -10.5l-44 35l38 170h199v-79h-131l-11 -52q18 5 37 5q24 0 46 -6.5t39.5 -19.5t27.5 -33.5t10 -47.5q0 -25 -10.5 -47.5t-30 -39t-47 -26t-61.5 -9.5q-38 0 -74 11
t-61 29z" />
    <glyph glyph-name="fourfifths" unicode="&#x2158;" horiz-adv-x="925" 
d="M44 426l172 211h96v-211h41v-71h-41v-60h-87v60h-181v71zM225 426v122l-103 -122h103zM620 630h107l-406 -630h-107zM635 99q17 -14 40 -22t48 -8q9 0 19.5 1.5t20 6t15.5 13t6 22.5q0 21 -19 31.5t-43 10.5q-13 0 -28 -2.5t-29 -10.5l-44 35l38 170h199v-79h-131
l-11 -52q18 5 37 5q24 0 46 -6.5t39.5 -19.5t27.5 -33.5t10 -47.5q0 -25 -10.5 -47.5t-30 -39t-47 -26t-61.5 -9.5q-38 0 -74 11t-61 29z" />
    <glyph glyph-name="onesixth" unicode="&#x2159;" horiz-adv-x="925" 
d="M186 533l-78 -39l-36 72l126 71h86v-342h-98v238zM602 630h107l-406 -630h-107zM799 263q-11 6 -27 10.5t-33 4.5q-34 0 -58 -21t-26 -53q17 9 37.5 13.5t38.5 4.5q23 0 45 -6t39 -19t27 -34t10 -51q0 -24 -10.5 -45.5t-29 -37.5t-44.5 -25.5t-56 -9.5q-28 0 -55 9.5
t-48 29.5t-34 52t-13 76q0 43 12.5 78.5t35 61.5t54 40.5t70.5 14.5q35 0 60 -8.5t36 -14.5zM655 138q0 -37 15.5 -55t39.5 -18q26 0 42 13t16 34q0 18 -13 31t-40 13q-17 0 -34.5 -6t-25.5 -12z" />
    <glyph glyph-name="fivesixths" unicode="&#x215a;" horiz-adv-x="925" 
d="M99 390q17 -14 40 -22t48 -8q9 0 19.5 1.5t20 6t15.5 13t6 22.5q0 21 -19 31.5t-43 10.5q-13 0 -28 -2.5t-29 -10.5l-44 35l38 170h199v-79h-131l-11 -52q18 5 37 5q24 0 46 -6.5t39.5 -19.5t27.5 -33.5t10 -47.5q0 -25 -10.5 -47.5t-30 -39t-47 -26t-61.5 -9.5
q-38 0 -74 11t-61 29zM619 630h107l-406 -630h-107zM816 263q-11 6 -27 10.5t-33 4.5q-34 0 -58 -21t-26 -53q17 9 37.5 13.5t38.5 4.5q23 0 45 -6t39 -19t27 -34t10 -51q0 -24 -10.5 -45.5t-29 -37.5t-44.5 -25.5t-56 -9.5q-28 0 -55 9.5t-48 29.5t-34 52t-13 76
q0 43 12.5 78.5t35 61.5t54 40.5t70.5 14.5q35 0 60 -8.5t36 -14.5zM672 138q0 -37 15.5 -55t39.5 -18q26 0 42 13t16 34q0 18 -13 31t-40 13q-17 0 -34.5 -6t-25.5 -12z" />
    <glyph glyph-name="oneeighth" unicode="&#x215b;" horiz-adv-x="925" 
d="M175 533l-78 -39l-36 72l126 71h86v-342h-98v238zM591 630h107l-406 -630h-107zM636 185q-51 26 -51 73q0 24 11 42.5t29 30.5t41.5 18.5t49.5 6.5q25 0 49 -6t42.5 -18.5t29.5 -31t11 -42.5q0 -23 -13.5 -42t-37.5 -31q29 -11 47.5 -31.5t18.5 -52.5q0 -27 -12 -47
t-32 -33.5t-46.5 -20t-56.5 -6.5t-56.5 6.5t-46.5 20t-31.5 33.5t-11.5 47q0 32 18.5 52.5t47.5 31.5zM718 155q-19 -5 -35.5 -18t-16.5 -34q0 -20 15.5 -29t34.5 -9q18 0 34 9t16 29q0 21 -15.5 34t-32.5 18zM714 214q17 5 32 14t15 28q0 18 -13.5 27t-31.5 9t-31.5 -9
t-13.5 -27q0 -19 13 -28t30 -14z" />
    <glyph glyph-name="threeeighths" unicode="&#x215c;" horiz-adv-x="925" 
d="M89 395q18 -14 40.5 -23t47.5 -9q24 0 39 10t15 31q0 26 -19 34t-47 8q-13 0 -26 -2t-23 -5l-16 35l106 84h-133v79h240v-76l-77 -61q52 -10 71.5 -39t19.5 -67q0 -48 -40.5 -78.5t-108.5 -30.5q-42 0 -75.5 11.5t-57.5 30.5zM609 630h107l-406 -630h-107zM654 185
q-51 26 -51 73q0 24 11 42.5t29 30.5t41.5 18.5t49.5 6.5q25 0 49 -6t42.5 -18.5t29.5 -31t11 -42.5q0 -23 -13.5 -42t-37.5 -31q29 -11 47.5 -31.5t18.5 -52.5q0 -27 -12 -47t-32 -33.5t-46.5 -20t-56.5 -6.5t-56.5 6.5t-46.5 20t-31.5 33.5t-11.5 47q0 32 18.5 52.5
t47.5 31.5zM736 155q-19 -5 -35.5 -18t-16.5 -34q0 -20 15.5 -29t34.5 -9q18 0 34 9t16 29q0 21 -15.5 34t-32.5 18zM732 214q17 5 32 14t15 28q0 18 -13.5 27t-31.5 9t-31.5 -9t-13.5 -27q0 -19 13 -28t30 -14z" />
    <glyph glyph-name="fiveeighths" unicode="&#x215d;" horiz-adv-x="925" 
d="M88 390q17 -14 40 -22t48 -8q9 0 19.5 1.5t20 6t15.5 13t6 22.5q0 21 -19 31.5t-43 10.5q-13 0 -28 -2.5t-29 -10.5l-44 35l38 170h199v-79h-131l-11 -52q18 5 37 5q24 0 46 -6.5t39.5 -19.5t27.5 -33.5t10 -47.5q0 -25 -10.5 -47.5t-30 -39t-47 -26t-61.5 -9.5
q-38 0 -74 11t-61 29zM608 630h107l-406 -630h-107zM653 185q-51 26 -51 73q0 24 11 42.5t29 30.5t41.5 18.5t49.5 6.5q25 0 49 -6t42.5 -18.5t29.5 -31t11 -42.5q0 -23 -13.5 -42t-37.5 -31q29 -11 47.5 -31.5t18.5 -52.5q0 -27 -12 -47t-32 -33.5t-46.5 -20t-56.5 -6.5
t-56.5 6.5t-46.5 20t-31.5 33.5t-11.5 47q0 32 18.5 52.5t47.5 31.5zM735 155q-19 -5 -35.5 -18t-16.5 -34q0 -20 15.5 -29t34.5 -9q18 0 34 9t16 29q0 21 -15.5 34t-32.5 18zM731 214q17 5 32 14t15 28q0 18 -13.5 27t-31.5 9t-31.5 -9t-13.5 -27q0 -19 13 -28t30 -14z" />
    <glyph glyph-name="seveneighths" unicode="&#x215e;" horiz-adv-x="925" 
d="M107 295q12 37 30.5 76t38 75t37.5 65t28 47h-172v79h269v-80q-11 -17 -29 -48.5t-37.5 -68t-36.5 -75t-26 -70.5h-102zM583 630h107l-406 -630h-107zM628 185q-51 26 -51 73q0 24 11 42.5t29 30.5t41.5 18.5t49.5 6.5q25 0 49 -6t42.5 -18.5t29.5 -31t11 -42.5
q0 -23 -13.5 -42t-37.5 -31q29 -11 47.5 -31.5t18.5 -52.5q0 -27 -12 -47t-32 -33.5t-46.5 -20t-56.5 -6.5t-56.5 6.5t-46.5 20t-31.5 33.5t-11.5 47q0 32 18.5 52.5t47.5 31.5zM710 155q-19 -5 -35.5 -18t-16.5 -34q0 -20 15.5 -29t34.5 -9q18 0 34 9t16 29q0 21 -15.5 34
t-32.5 18zM706 214q17 5 32 14t15 28q0 18 -13.5 27t-31.5 9t-31.5 -9t-13.5 -27q0 -19 13 -28t30 -14z" />
    <glyph glyph-name="partialdiff" unicode="&#x2202;" horiz-adv-x="549" 
d="M108 600q10 6 28.5 14t42.5 15.5t51.5 13t55.5 5.5q56 0 98 -20.5t69.5 -57.5t41.5 -87t14 -109q0 -68 -15.5 -137.5t-49.5 -126t-87 -92.5t-129 -36q-46 0 -80.5 13t-58 37t-35.5 57.5t-12 73.5q0 45 17 88.5t48 78.5t75 56.5t98 21.5q42 0 69 -8.5t49 -21.5v13
q0 27 -7.5 53.5t-22.5 47.5t-38.5 34t-56.5 13q-24 0 -45.5 -5.5t-38.5 -11.5q-19 -7 -35 -16zM384 266q-18 12 -45.5 24t-72.5 12q-24 0 -44 -10t-34.5 -27.5t-23 -40.5t-8.5 -48q0 -42 22.5 -66.5t63.5 -24.5q23 0 45.5 8.5t41.5 29t33 55.5t22 88z" />
    <glyph glyph-name="Delta" unicode="&#x2206;" horiz-adv-x="711" 
d="M38 113l255 554h125l255 -554v-113h-635v113zM549 113l-197 425l-191 -425h388z" />
    <glyph glyph-name="product" unicode="&#x220f;" horiz-adv-x="761" 
d="M132 556h-109v111h715v-111h-109v-678h-125v678h-247v-678h-125v678z" />
    <glyph glyph-name="summation" unicode="&#x2211;" horiz-adv-x="578" 
d="M43 -8l198 289l-198 275v111h492v-111h-348l195 -275l-196 -289h349v-113h-492v113z" />
    <glyph glyph-name="minus" unicode="&#x2212;" horiz-adv-x="545" 
d="M74 371h398v-99h-398v99z" />
    <glyph glyph-name="uni2215" unicode="&#x2215;" horiz-adv-x="201" 
d="M252 630h107l-406 -630h-107z" />
    <glyph glyph-name="uni2219" unicode="&#x2219;" horiz-adv-x="259" 
d="M68 413h123v-117h-123v117z" />
    <glyph glyph-name="radical" unicode="&#x221a;" horiz-adv-x="592" 
d="M101 280h-77v111h151l113 -246l177 587h116l-218 -732h-124z" />
    <glyph glyph-name="infinity" unicode="&#x221e;" horiz-adv-x="689" 
d="M345 191q-19 -28 -55 -49t-81 -21q-39 0 -71.5 13.5t-55.5 39t-36 61t-13 79.5t13 79.5t36 61t55.5 39t71.5 13.5q45 0 81 -21.5t55 -49.5q19 28 55.5 49.5t81.5 21.5q38 0 70 -13.5t55 -39t36 -61t13 -79.5t-13 -79.5t-36 -61t-55.5 -39t-71.5 -13.5q-45 0 -80.5 21.5
t-54.5 48.5zM389 314q11 -40 37 -64t52 -24q36 0 55.5 27.5t19.5 60.5t-19.5 60.5t-55.5 27.5q-26 0 -52 -24t-37 -64zM300 314q-11 40 -37 64t-52 24q-36 0 -55.5 -27.5t-19.5 -60.5t19.5 -60.5t55.5 -27.5q26 0 52 24t37 64z" />
    <glyph glyph-name="integral" unicode="&#x222b;" horiz-adv-x="539" 
d="M58 5q16 -11 34.5 -18t37.5 -7q14 0 26.5 4t23.5 13q19 15 22.5 38t3.5 59v375q0 52 7.5 90t33.5 67q21 24 54.5 41.5t78.5 17.5q16 0 34 -2t37 -7t38 -14.5t37 -25.5l-55 -78q-16 11 -34.5 18t-37.5 7q-14 0 -26.5 -4t-23.5 -13q-19 -15 -22.5 -38t-3.5 -59v-380
q0 -48 -7.5 -85.5t-33.5 -66.5q-21 -24 -54.5 -41.5t-78.5 -17.5q-16 0 -34 1.5t-37 7t-38 15t-37 25.5z" />
    <glyph glyph-name="approxequal" unicode="&#x2248;" horiz-adv-x="545" 
d="M61 415q9 10 23 21.5t31 21t37 16t42 6.5q23 0 40 -7t32.5 -16t32 -16t38.5 -7q18 0 33 4.5t26.5 10.5t20.5 13t17 12l50 -76q-9 -10 -22.5 -22t-30.5 -22t-37 -16.5t-42 -6.5q-23 0 -40 7.5t-33 16.5t-32.5 16.5t-38.5 7.5q-37 0 -59.5 -14.5t-37.5 -25.5zM61 241
q9 10 23 21.5t31 21t37 16t42 6.5q23 0 40 -7t32.5 -16t32 -16t38.5 -7q18 0 33 4.5t26.5 10.5t20.5 13t17 12l50 -76q-9 -10 -22.5 -22t-30.5 -22t-37 -16.5t-42 -6.5q-23 0 -40 7.5t-33 16.5t-32.5 16.5t-38.5 7.5q-37 0 -59.5 -14.5t-37.5 -25.5z" />
    <glyph glyph-name="notequal" unicode="&#x2260;" horiz-adv-x="545" 
d="M151 187h-74v99h130l39 69h-169v99h224l63 111l72 -36l-42 -75h75v-99h-131l-39 -69h170v-99h-226l-65 -116l-72 36z" />
    <glyph glyph-name="lessequal" unicode="&#x2264;" horiz-adv-x="545" 
d="M56 397l357 187l43 -85l-267 -138l267 -138l-43 -85l-357 187v72zM51 99h398v-99h-398v99z" />
    <glyph glyph-name="greaterequal" unicode="&#x2265;" horiz-adv-x="545" 
d="M89 223l267 138l-267 138l43 85l357 -187v-72l-357 -187zM96 99h398v-99h-398v99z" />
    <glyph glyph-name="lozenge" unicode="&#x25ca;" horiz-adv-x="588" 
d="M33 333l199 334h124l199 -334l-199 -334h-124zM429 333l-135 236l-135 -236l135 -236z" />
    <glyph glyph-name="fi" unicode="&#xf001;" horiz-adv-x="565" 
d="M93 373h-80v96h80v5q0 61 19.5 101.5t52 65t75 34.5t89.5 10q18 0 40.5 -3t46.5 -9t48.5 -15.5t45.5 -22.5l-49 -89q-23 14 -60 26t-73 12q-62 0 -90 -21t-28 -69v-25h292v-469h-118v373h-173v-373h-118v373z" />
    <glyph glyph-name="fl" unicode="&#xf002;" horiz-adv-x="570" 
d="M93 373h-80v96h80v14q0 58 17.5 96.5t48 62t71 33.5t85.5 10q36 0 69 -6t59 -14.5t44 -17t25 -12.5v-635h-118v572q-13 5 -36.5 8.5t-44.5 3.5q-58 0 -80.5 -22t-22.5 -77v-16h121v-96h-120v-373h-118v373z" />
    <glyph glyph-name="oneseventh" unicode="&#xf506;" horiz-adv-x="925" 
d="M181 533l-78 -39l-36 72l126 71h86v-342h-98v238zM597 630h107l-406 -630h-107zM626 4q12 37 30.5 76t38 75t37.5 65t28 47h-172v79h269v-80q-11 -17 -29 -48.5t-37.5 -68t-36.5 -75t-26 -70.5h-102z" />
    <glyph glyph-name="twosevenths" unicode="&#xf507;" horiz-adv-x="925" 
d="M55 340q0 26 12.5 46.5t30.5 37.5t40 31t40 26.5t30.5 24.5t12.5 25q0 18 -11 25.5t-28 7.5q-23 0 -50 -11t-47 -24l-36 70q25 17 63 32.5t82 15.5q66 0 97 -30.5t31 -75.5q0 -36 -17 -58.5t-41 -39.5t-51 -32t-47 -36h157v-80h-268v45zM615 630h107l-406 -630h-107z
M644 4q12 37 30.5 76t38 75t37.5 65t28 47h-172v79h269v-80q-11 -17 -29 -48.5t-37.5 -68t-36.5 -75t-26 -70.5h-102z" />
    <glyph glyph-name="threesevenths" unicode="&#xf508;" horiz-adv-x="925" 
d="M95 395q18 -14 40.5 -23t47.5 -9q24 0 39 10t15 31q0 26 -19 34t-47 8q-13 0 -26 -2t-23 -5l-16 35l106 84h-133v79h240v-76l-77 -61q52 -10 71.5 -39t19.5 -67q0 -48 -40.5 -78.5t-108.5 -30.5q-42 0 -75.5 11.5t-57.5 30.5zM615 630h107l-406 -630h-107zM644 4
q12 37 30.5 76t38 75t37.5 65t28 47h-172v79h269v-80q-11 -17 -29 -48.5t-37.5 -68t-36.5 -75t-26 -70.5h-102z" />
    <glyph glyph-name="foursevenths" unicode="&#xf509;" horiz-adv-x="925" 
d="M42 426l172 211h96v-211h41v-71h-41v-60h-87v60h-181v71zM223 426v122l-103 -122h103zM618 630h107l-406 -630h-107zM647 4q12 37 30.5 76t38 75t37.5 65t28 47h-172v79h269v-80q-11 -17 -29 -48.5t-37.5 -68t-36.5 -75t-26 -70.5h-102z" />
    <glyph glyph-name="fivesevenths" unicode="&#xf50a;" horiz-adv-x="925" 
d="M94 390q17 -14 40 -22t48 -8q9 0 19.5 1.5t20 6t15.5 13t6 22.5q0 21 -19 31.5t-43 10.5q-13 0 -28 -2.5t-29 -10.5l-44 35l38 170h199v-79h-131l-11 -52q18 5 37 5q24 0 46 -6.5t39.5 -19.5t27.5 -33.5t10 -47.5q0 -25 -10.5 -47.5t-30 -39t-47 -26t-61.5 -9.5
q-38 0 -74 11t-61 29zM614 630h107l-406 -630h-107zM643 4q12 37 30.5 76t38 75t37.5 65t28 47h-172v79h269v-80q-11 -17 -29 -48.5t-37.5 -68t-36.5 -75t-26 -70.5h-102z" />
    <glyph glyph-name="sixsevenths" unicode="&#xf50b;" horiz-adv-x="925" 
d="M282 554q-11 6 -27 10.5t-33 4.5q-34 0 -58 -21t-26 -53q17 9 37.5 13.5t38.5 4.5q23 0 45 -6t39 -19t27 -34t10 -51q0 -24 -10.5 -45.5t-29 -37.5t-44.5 -25.5t-56 -9.5q-28 0 -55 9.5t-48 29.5t-34 52t-13 76q0 43 12.5 78.5t35 61.5t54 40.5t70.5 14.5q35 0 60 -8.5
t36 -14.5zM138 429q0 -37 15.5 -55t39.5 -18q26 0 42 13t16 34q0 18 -13 31t-40 13q-17 0 -34.5 -6t-25.5 -12zM620 630h107l-406 -630h-107zM649 4q12 37 30.5 76t38 75t37.5 65t28 47h-172v79h269v-80q-11 -17 -29 -48.5t-37.5 -68t-36.5 -75t-26 -70.5h-102z" />
    <glyph glyph-name="oneninth" unicode="&#xf50c;" horiz-adv-x="925" 
d="M176 533l-78 -39l-36 72l126 71h86v-342h-98v238zM592 630h107l-406 -630h-107zM623 87q11 -6 27.5 -10.5t39.5 -4.5q40 0 59 21t21 53q-17 -9 -37.5 -13.5t-38.5 -4.5q-23 0 -45 6t-39 19t-27 34t-10 51q0 24 10.5 45.5t29 37.5t44.5 25.5t56 9.5q28 0 55 -9.5t48 -30
t34 -52t13 -75.5q0 -43 -11 -78.5t-33 -61.5t-55 -40.5t-78 -14.5q-34 0 -58.5 8.5t-35.5 14.5zM770 212q0 37 -15.5 55t-39.5 18q-26 0 -42 -13t-16 -34q0 -18 13 -31t40 -13q17 0 34.5 6t25.5 12z" />
    <glyph glyph-name="twoninths" unicode="&#xf50d;" horiz-adv-x="925" 
d="M50 340q0 26 12.5 46.5t30.5 37.5t40 31t40 26.5t30.5 24.5t12.5 25q0 18 -11 25.5t-28 7.5q-23 0 -50 -11t-47 -24l-36 70q25 17 63 32.5t82 15.5q66 0 97 -30.5t31 -75.5q0 -36 -17 -58.5t-41 -39.5t-51 -32t-47 -36h157v-80h-268v45zM610 630h107l-406 -630h-107z
M641 87q11 -6 27.5 -10.5t39.5 -4.5q40 0 59 21t21 53q-17 -9 -37.5 -13.5t-38.5 -4.5q-23 0 -45 6t-39 19t-27 34t-10 51q0 24 10.5 45.5t29 37.5t44.5 25.5t56 9.5q28 0 55 -9.5t48 -30t34 -52t13 -75.5q0 -43 -11 -78.5t-33 -61.5t-55 -40.5t-78 -14.5q-34 0 -58.5 8.5
t-35.5 14.5zM788 212q0 37 -15.5 55t-39.5 18q-26 0 -42 -13t-16 -34q0 -18 13 -31t40 -13q17 0 34.5 6t25.5 12z" />
    <glyph glyph-name="fourninths" unicode="&#xf50e;" horiz-adv-x="925" 
d="M36 426l172 211h96v-211h41v-71h-41v-60h-87v60h-181v71zM217 426v122l-103 -122h103zM612 630h107l-406 -630h-107zM643 87q11 -6 27.5 -10.5t39.5 -4.5q40 0 59 21t21 53q-17 -9 -37.5 -13.5t-38.5 -4.5q-23 0 -45 6t-39 19t-27 34t-10 51q0 24 10.5 45.5t29 37.5
t44.5 25.5t56 9.5q28 0 55 -9.5t48 -30t34 -52t13 -75.5q0 -43 -11 -78.5t-33 -61.5t-55 -40.5t-78 -14.5q-34 0 -58.5 8.5t-35.5 14.5zM790 212q0 37 -15.5 55t-39.5 18q-26 0 -42 -13t-16 -34q0 -18 13 -31t40 -13q17 0 34.5 6t25.5 12z" />
    <glyph glyph-name="fiveninths" unicode="&#xf50f;" horiz-adv-x="925" 
d="M88 390q17 -14 40 -22t48 -8q9 0 19.5 1.5t20 6t15.5 13t6 22.5q0 21 -19 31.5t-43 10.5q-13 0 -28 -2.5t-29 -10.5l-44 35l38 170h199v-79h-131l-11 -52q18 5 37 5q24 0 46 -6.5t39.5 -19.5t27.5 -33.5t10 -47.5q0 -25 -10.5 -47.5t-30 -39t-47 -26t-61.5 -9.5
q-38 0 -74 11t-61 29zM608 630h107l-406 -630h-107zM639 87q11 -6 27.5 -10.5t39.5 -4.5q40 0 59 21t21 53q-17 -9 -37.5 -13.5t-38.5 -4.5q-23 0 -45 6t-39 19t-27 34t-10 51q0 24 10.5 45.5t29 37.5t44.5 25.5t56 9.5q28 0 55 -9.5t48 -30t34 -52t13 -75.5
q0 -43 -11 -78.5t-33 -61.5t-55 -40.5t-78 -14.5q-34 0 -58.5 8.5t-35.5 14.5zM786 212q0 37 -15.5 55t-39.5 18q-26 0 -42 -13t-16 -34q0 -18 13 -31t40 -13q17 0 34.5 6t25.5 12z" />
    <glyph glyph-name="sevenninths" unicode="&#xf510;" horiz-adv-x="925" 
d="M98 295q12 37 30.5 76t38 75t37.5 65t28 47h-172v79h269v-80q-11 -17 -29 -48.5t-37.5 -68t-36.5 -75t-26 -70.5h-102zM574 630h107l-406 -630h-107zM605 87q11 -6 27.5 -10.5t39.5 -4.5q40 0 59 21t21 53q-17 -9 -37.5 -13.5t-38.5 -4.5q-23 0 -45 6t-39 19t-27 34
t-10 51q0 24 10.5 45.5t29 37.5t44.5 25.5t56 9.5q28 0 55 -9.5t48 -30t34 -52t13 -75.5q0 -43 -11 -78.5t-33 -61.5t-55 -40.5t-78 -14.5q-34 0 -58.5 8.5t-35.5 14.5zM752 212q0 37 -15.5 55t-39.5 18q-26 0 -42 -13t-16 -34q0 -18 13 -31t40 -13q17 0 34.5 6t25.5 12z
" />
    <glyph glyph-name="eightninths" unicode="&#xf511;" horiz-adv-x="925" 
d="M105 476q-51 26 -51 73q0 24 11 42.5t29 30.5t41.5 18.5t49.5 6.5q25 0 49 -6t42.5 -18.5t29.5 -31t11 -42.5q0 -23 -13.5 -42t-37.5 -31q29 -11 47.5 -31.5t18.5 -52.5q0 -27 -12 -47t-32 -33.5t-46.5 -20t-56.5 -6.5t-56.5 6.5t-46.5 20t-31.5 33.5t-11.5 47
q0 32 18.5 52.5t47.5 31.5zM187 446q-19 -5 -35.5 -18t-16.5 -34q0 -20 15.5 -29t34.5 -9q18 0 34 9t16 29q0 21 -15.5 34t-32.5 18zM183 505q17 5 32 14t15 28q0 18 -13.5 27t-31.5 9t-31.5 -9t-13.5 -27q0 -19 13 -28t30 -14zM615 630h107l-406 -630h-107zM646 87
q11 -6 27.5 -10.5t39.5 -4.5q40 0 59 21t21 53q-17 -9 -37.5 -13.5t-38.5 -4.5q-23 0 -45 6t-39 19t-27 34t-10 51q0 24 10.5 45.5t29 37.5t44.5 25.5t56 9.5q28 0 55 -9.5t48 -30t34 -52t13 -75.5q0 -43 -11 -78.5t-33 -61.5t-55 -40.5t-78 -14.5q-34 0 -58.5 8.5
t-35.5 14.5zM793 212q0 37 -15.5 55t-39.5 18q-26 0 -42 -13t-16 -34q0 -18 13 -31t40 -13q17 0 34.5 6t25.5 12z" />
    <glyph glyph-name="zero.alt" unicode="&#xf800;" horiz-adv-x="579" 
d="M289 -16q-61 0 -107 25t-77 69.5t-46.5 107t-15.5 137.5q0 73 15.5 133t46.5 102.5t77.5 66t107.5 23.5t107 -23.5t77 -66t46.5 -102.5t15.5 -133q0 -75 -15.5 -137.5t-46.5 -107t-77.5 -69.5t-107.5 -25zM290 92q31 0 54.5 18t39 49t23.5 73t8 91q0 47 -8 87t-24 68.5
t-39.5 44.5t-54.5 16t-54.5 -16t-39 -44.5t-23.5 -68.5t-8 -87q0 -49 8 -91t24 -73t39.5 -49t54.5 -18z" />
    <glyph glyph-name="one.alt" unicode="&#xf801;" horiz-adv-x="438" 
d="M82 103h108v398l-121 -64l-49 92l185 101h103v-527h104v-103h-330v103z" />
    <glyph glyph-name="two.alt" unicode="&#xf802;" horiz-adv-x="504" 
d="M55 79q0 43 14.5 78t37.5 64.5t51 54.5t56 49t49.5 41t36.5 32.5t22.5 31.5t7.5 37q0 13 -4.5 27t-15 24.5t-27.5 17.5t-43 7q-23 0 -41.5 -7t-33 -18t-25 -24t-17.5 -25l-88 63q12 20 30 40.5t44 37.5t61 27.5t80 10.5q54 0 93 -14.5t64 -38.5t37 -54.5t12 -62.5
q0 -34 -11 -63t-29 -54t-41 -47t-47 -42q-29 -24 -54.5 -44t-44.5 -39t-30 -38.5t-11 -43.5h272v-107h-405v79z" />
    <glyph glyph-name="three.alt" unicode="&#xf803;" horiz-adv-x="514" 
d="M83 138q27 -24 59.5 -38.5t74.5 -14.5q54 0 86 29.5t32 77.5q0 21 -5.5 39.5t-18.5 32t-34 21.5t-51 8q-14 0 -29 -3t-27 -6l-35 56l161 181h-236v108h377v-90l-140 -164q84 -10 123.5 -60t39.5 -124q0 -49 -18.5 -88t-51.5 -66t-77 -41t-95 -14q-68 0 -118 20.5
t-85 52.5z" />
    <glyph glyph-name="four.alt" unicode="&#xf804;" horiz-adv-x="534" 
d="M40 220l275 410h118v-409h65v-100h-65v-121h-113v121h-280v99zM320 221v243l-166 -243h166z" />
    <glyph glyph-name="five.alt" unicode="&#xf805;" horiz-adv-x="517" 
d="M81 139q27 -24 58 -38t79 -14q32 0 54.5 9.5t37 26t21 37.5t6.5 44q0 15 -5.5 33.5t-19.5 34.5t-38.5 27t-61.5 11q-34 0 -54 -6.5t-37 -12.5l-60 46l63 292h327v-110h-242l-25 -121q7 3 24 6t41 3q46 0 84.5 -14t66.5 -39.5t43.5 -62.5t15.5 -82q0 -44 -13 -85
t-42.5 -72.5t-77 -50.5t-115.5 -19q-67 0 -114 20t-82 52z" />
    <glyph glyph-name="six.alt" unicode="&#xf806;" horiz-adv-x="539" 
d="M439 513q-13 8 -30 15q-14 6 -34 11t-44 5q-36 0 -65 -15.5t-50 -41t-32.5 -57.5t-11.5 -66q22 13 53 28.5t79 15.5q43 0 79.5 -14t62 -40.5t40 -64.5t14.5 -87q0 -44 -14 -84t-41 -70t-67.5 -48t-92.5 -18q-50 0 -92.5 18t-73.5 56t-48.5 96.5t-17.5 139.5
q0 78 18 143.5t53 113t87 73.5t121 26q28 0 52 -4.5t44.5 -11t36 -13.5t25.5 -13zM171 269q0 -53 9 -88.5t24.5 -56.5t36.5 -30t44 -9q47 0 75.5 33.5t28.5 87.5q0 46 -26.5 73.5t-69.5 27.5q-45 0 -74.5 -13t-47.5 -25z" />
    <glyph glyph-name="seven.alt" unicode="&#xf807;" horiz-adv-x="474" 
d="M91 0q21 67 51 144.5t62 150t62 132.5t50 92h-287v111h408v-106q-13 -21 -31.5 -57t-39.5 -81.5t-42.5 -97t-41.5 -103t-36.5 -99.5t-26.5 -86h-128z" />
    <glyph glyph-name="eight.alt" unicode="&#xf808;" horiz-adv-x="560" 
d="M280 391q40 11 64 37.5t24 55.5q0 33 -24.5 54.5t-63.5 21.5q-37 0 -62.5 -22t-25.5 -57q0 -26 24 -52.5t64 -37.5zM278 294q-23 -5 -44 -15.5t-36.5 -25t-25 -33.5t-9.5 -40q0 -27 10.5 -45.5t27.5 -30.5t38 -17.5t41 -5.5t41 5.5t38 17.5t27.5 30.5t10.5 45.5
q0 21 -10 40t-26.5 33.5t-38 25t-44.5 15.5zM160 349q-31 18 -55 53.5t-24 78.5q0 37 14.5 68t40.5 53t62.5 34t81.5 12q49 0 86 -12t62 -33.5t38 -51.5t13 -65q0 -47 -25 -81.5t-57 -51.5q57 -24 88.5 -68.5t31.5 -105.5q0 -32 -13 -66.5t-41.5 -63t-73.5 -47t-109 -18.5
q-65 0 -110 18t-73.5 46t-41 62.5t-12.5 66.5q0 61 32 105t85 67z" />
    <glyph glyph-name="nine.alt" unicode="&#xf809;" horiz-adv-x="543" 
d="M106 121q17 -10 37 -17q17 -6 39.5 -11t46.5 -5q36 0 62.5 14.5t45 39t28 56t10.5 65.5q-16 -13 -47.5 -28t-87.5 -15q-44 0 -80 16.5t-62 45t-40.5 66t-14.5 80.5q0 44 14.5 84t42.5 70t68.5 48t93.5 18q50 0 92.5 -18t73.5 -56t48.5 -96.5t17.5 -139.5
q0 -77 -16 -141.5t-49 -112t-83 -74t-119 -26.5q-28 0 -54 4.5t-48 11t-39.5 13.5t-27.5 13zM376 361q0 53 -9 88.5t-24.5 56.5t-36.5 30t-44 9q-47 0 -77.5 -32t-30.5 -86q0 -44 27.5 -73t74.5 -29q49 0 75.5 12t44.5 24z" />
    <glyph glyph-name="zero.sups" unicode="&#xf80a;" 
d="M180 375q-69 0 -114 45.5t-45 135.5t45 135.5t114 45.5t114 -45.5t45 -135.5t-45 -135.5t-114 -45.5zM180 454q11 0 22 5t19.5 17t14 31.5t5.5 48.5t-5.5 48.5t-14 31.5t-19.5 17t-22 5t-22 -5t-19.5 -17t-14 -31.5t-5.5 -48.5t5.5 -48.5t14 -31.5t19.5 -17t22 -5z" />
    <glyph glyph-name="one.sups" unicode="&#xf80b;" 
d="M173 623l-78 -39l-36 72l126 71h86v-342h-98v238z" />
    <glyph glyph-name="two.sups" unicode="&#xf80c;" 
d="M49 430q0 26 12.5 46.5t30.5 37.5t40 31t40 26.5t30.5 24.5t12.5 25q0 18 -11 25.5t-28 7.5q-23 0 -50 -11t-47 -24l-36 70q25 17 63 32.5t82 15.5q66 0 97 -30.5t31 -75.5q0 -36 -17 -58.5t-41 -39.5t-51 -32t-47 -36h157v-80h-268v45z" />
    <glyph glyph-name="three.sups" unicode="&#xf80d;" 
d="M74 485q18 -14 40.5 -23t47.5 -9q24 0 39 10t15 31q0 26 -19 34t-47 8q-13 0 -26 -2t-23 -5l-16 35l106 84h-133v79h240v-76l-77 -61q52 -10 71.5 -39t19.5 -67q0 -48 -40.5 -78.5t-108.5 -30.5q-42 0 -75.5 11.5t-57.5 30.5z" />
    <glyph glyph-name="four.sups" unicode="&#xf80e;" 
d="M33 516l172 211h96v-211h41v-71h-41v-60h-87v60h-181v71zM214 516v122l-103 -122h103z" />
    <glyph glyph-name="five.sups" unicode="&#xf80f;" 
d="M69 480q17 -14 40 -22t48 -8q9 0 19.5 1.5t20 6t15.5 13t6 22.5q0 21 -19 31.5t-43 10.5q-13 0 -28 -2.5t-29 -10.5l-44 35l38 170h199v-79h-131l-11 -52q18 5 37 5q24 0 46 -6.5t39.5 -19.5t27.5 -33.5t10 -47.5q0 -25 -10.5 -47.5t-30 -39t-47 -26t-61.5 -9.5
q-38 0 -74 11t-61 29z" />
    <glyph glyph-name="six.sups" unicode="&#xf810;" 
d="M271 644q-11 6 -27 10.5t-33 4.5q-34 0 -58 -21t-26 -53q17 9 37.5 13.5t38.5 4.5q23 0 45 -6t39 -19t27 -34t10 -51q0 -24 -10.5 -45.5t-29 -37.5t-44.5 -25.5t-56 -9.5q-28 0 -55 9.5t-48 29.5t-34 52t-13 76q0 43 12.5 78.5t35 61.5t54 40.5t70.5 14.5q35 0 60 -8.5
t36 -14.5zM127 519q0 -37 15.5 -55t39.5 -18q26 0 42 13t16 34q0 18 -13 31t-40 13q-17 0 -34.5 -6t-25.5 -12z" />
    <glyph glyph-name="seven.sups" unicode="&#xf811;" 
d="M83 385q12 37 30.5 76t38 75t37.5 65t28 47h-172v79h269v-80q-11 -17 -29 -48.5t-37.5 -68t-36.5 -75t-26 -70.5h-102z" />
    <glyph glyph-name="eight.sups" unicode="&#xf812;" 
d="M99 566q-51 26 -51 73q0 24 11 42.5t29 30.5t41.5 18.5t49.5 6.5q25 0 49 -6t42.5 -18.5t29.5 -31t11 -42.5q0 -23 -13.5 -42t-37.5 -31q29 -11 47.5 -31.5t18.5 -52.5q0 -27 -12 -47t-32 -33.5t-46.5 -20t-56.5 -6.5t-56.5 6.5t-46.5 20t-31.5 33.5t-11.5 47
q0 32 18.5 52.5t47.5 31.5zM181 536q-19 -5 -35.5 -18t-16.5 -34q0 -20 15.5 -29t34.5 -9q18 0 34 9t16 29q0 21 -15.5 34t-32.5 18zM177 595q17 5 32 14t15 28q0 18 -13.5 27t-31.5 9t-31.5 -9t-13.5 -27q0 -19 13 -28t30 -14z" />
    <glyph glyph-name="nine.sups" unicode="&#xf813;" 
d="M85 468q11 -6 27.5 -10.5t39.5 -4.5q40 0 59 21t21 53q-17 -9 -37.5 -13.5t-38.5 -4.5q-23 0 -45 6t-39 19t-27 34t-10 51q0 24 10.5 45.5t29 37.5t44.5 25.5t56 9.5q28 0 55 -9.5t48 -30t34 -52t13 -75.5q0 -43 -11 -78.5t-33 -61.5t-55 -40.5t-78 -14.5
q-34 0 -58.5 8.5t-35.5 14.5zM232 593q0 37 -15.5 55t-39.5 18q-26 0 -42 -13t-16 -34q0 -18 13 -31t40 -13q17 0 34.5 6t25.5 12z" />
    <glyph glyph-name="zero.sinf" unicode="&#xf814;" 
d="M180 -96q-69 0 -114 45.5t-45 135.5t45 135.5t114 45.5t114 -45.5t45 -135.5t-45 -135.5t-114 -45.5zM180 -17q11 0 22 5t19.5 17t14 31.5t5.5 48.5t-5.5 48.5t-14 31.5t-19.5 17t-22 5t-22 -5t-19.5 -17t-14 -31.5t-5.5 -48.5t5.5 -48.5t14 -31.5t19.5 -17t22 -5z" />
    <glyph glyph-name="one.sinf" unicode="&#xf815;" 
d="M173 152l-78 -39l-36 72l126 71h86v-342h-98v238z" />
    <glyph glyph-name="two.sinf" unicode="&#xf816;" 
d="M49 -41q0 26 12.5 46.5t30.5 37.5t40 31t40 26.5t30.5 24.5t12.5 25q0 18 -11 25.5t-28 7.5q-23 0 -50 -11t-47 -24l-36 70q25 17 63 32.5t82 15.5q66 0 97 -30.5t31 -75.5q0 -36 -17 -58.5t-41 -39.5t-51 -32t-47 -36h157v-80h-268v45z" />
    <glyph glyph-name="three.sinf" unicode="&#xf817;" 
d="M74 14q18 -14 40.5 -23t47.5 -9q24 0 39 10t15 31q0 26 -19 34t-47 8q-13 0 -26 -2t-23 -5l-16 35l106 84h-133v79h240v-76l-77 -61q52 -10 71.5 -39t19.5 -67q0 -48 -40.5 -78.5t-108.5 -30.5q-42 0 -75.5 11.5t-57.5 30.5z" />
    <glyph glyph-name="four.sinf" unicode="&#xf818;" 
d="M33 45l172 211h96v-211h41v-71h-41v-60h-87v60h-181v71zM214 45v122l-103 -122h103z" />
    <glyph glyph-name="five.sinf" unicode="&#xf819;" 
d="M69 9q17 -14 40 -22t48 -8q9 0 19.5 1.5t20 6t15.5 13t6 22.5q0 21 -19 31.5t-43 10.5q-13 0 -28 -2.5t-29 -10.5l-44 35l38 170h199v-79h-131l-11 -52q18 5 37 5q24 0 46 -6.5t39.5 -19.5t27.5 -33.5t10 -47.5q0 -25 -10.5 -47.5t-30 -39t-47 -26t-61.5 -9.5
q-38 0 -74 11t-61 29z" />
    <glyph glyph-name="six.sinf" unicode="&#xf81a;" 
d="M271 173q-11 6 -27 10.5t-33 4.5q-34 0 -58 -21t-26 -53q17 9 37.5 13.5t38.5 4.5q23 0 45 -6t39 -19t27 -34t10 -51q0 -24 -10.5 -45.5t-29 -37.5t-44.5 -25.5t-56 -9.5q-28 0 -55 9.5t-48 29.5t-34 52t-13 76q0 43 12.5 78.5t35 61.5t54 40.5t70.5 14.5q35 0 60 -8.5
t36 -14.5zM127 48q0 -37 15.5 -55t39.5 -18q26 0 42 13t16 34q0 18 -13 31t-40 13q-17 0 -34.5 -6t-25.5 -12z" />
    <glyph glyph-name="seven.sinf" unicode="&#xf81b;" 
d="M83 -86q12 37 30.5 76t38 75t37.5 65t28 47h-172v79h269v-80q-11 -17 -29 -48.5t-37.5 -68t-36.5 -75t-26 -70.5h-102z" />
    <glyph glyph-name="eight.sinf" unicode="&#xf81c;" 
d="M99 95q-51 26 -51 73q0 24 11 42.5t29 30.5t41.5 18.5t49.5 6.5q25 0 49 -6t42.5 -18.5t29.5 -31t11 -42.5q0 -23 -13.5 -42t-37.5 -31q29 -11 47.5 -31.5t18.5 -52.5q0 -27 -12 -47t-32 -33.5t-46.5 -20t-56.5 -6.5t-56.5 6.5t-46.5 20t-31.5 33.5t-11.5 47
q0 32 18.5 52.5t47.5 31.5zM181 65q-19 -5 -35.5 -18t-16.5 -34q0 -20 15.5 -29t34.5 -9q18 0 34 9t16 29q0 21 -15.5 34t-32.5 18zM177 124q17 5 32 14t15 28q0 18 -13.5 27t-31.5 9t-31.5 -9t-13.5 -27q0 -19 13 -28t30 -14z" />
    <glyph glyph-name="nine.sinf" unicode="&#xf81d;" 
d="M85 -3q11 -6 27.5 -10.5t39.5 -4.5q40 0 59 21t21 53q-17 -9 -37.5 -13.5t-38.5 -4.5q-23 0 -45 6t-39 19t-27 34t-10 51q0 24 10.5 45.5t29 37.5t44.5 25.5t56 9.5q28 0 55 -9.5t48 -30t34 -52t13 -75.5q0 -43 -11 -78.5t-33 -61.5t-55 -40.5t-78 -14.5q-34 0 -58.5 8.5
t-35.5 14.5zM232 122q0 37 -15.5 55t-39.5 18q-26 0 -42 -13t-16 -34q0 -18 13 -31t40 -13q17 0 34.5 6t25.5 12z" />
    <glyph glyph-name="hungarumlaut.cap" horiz-adv-x="498" 
d="M124 873h138l-114 -156h-97zM309 873h138l-114 -156h-97z" />
    <glyph glyph-name="dieresis.cap" horiz-adv-x="322" 
d="M206 854h123v-117h-123v117zM-7 854h123v-117h-123v117z" />
    <glyph glyph-name="dotaccent.cap" horiz-adv-x="215" 
d="M43 857h129v-123h-129v123z" />
    <glyph glyph-name="circumflex.cap" horiz-adv-x="417" 
d="M153 873h111l110 -156h-104l-62 82l-61 -82h-104z" />
    <glyph glyph-name="acute.cap" horiz-adv-x="305" 
d="M116 873h146l-114 -156h-105z" />
    <glyph glyph-name="grave.cap" horiz-adv-x="305" 
d="M43 873h146l73 -156h-105z" />
    <glyph glyph-name="breve.cap" horiz-adv-x="406" 
d="M136 863q0 -26 17.5 -46.5t49.5 -20.5t49.5 20.5t17.5 46.5h93q0 -29 -10 -55.5t-29.5 -47.5t-50 -33.5t-70.5 -12.5q-41 0 -71 12.5t-49.5 33.5t-29.5 47.5t-10 55.5h93z" />
    <glyph glyph-name="commaaccent.cap" horiz-adv-x="238" 
d="M76 -51h139l-88 -158h-104z" />
    <glyph glyph-name="caron.alt" horiz-adv-x="374" 
d="M112 667h110l-34 -169h-76v169z" />
    <glyph glyph-name="commaaccent" horiz-adv-x="181" 
d="M53 -51h126l-79 -142h-95z" />
    <glyph glyph-name="revcommaaccent" horiz-adv-x="181" 
d="M84 682h95l-48 -142h-126z" />
    <glyph glyph-name="at.alt" horiz-adv-x="797" 
d="M316 328h-261q-3 92 25.5 157.5t77 107.5t111.5 61.5t128 19.5q76 0 141.5 -23t113.5 -68.5t75 -113t27 -155.5q0 -87 -18.5 -149t-52.5 -102.5t-81 -59.5t-105 -19q-35 0 -60.5 7t-43 17.5t-29 22.5t-18.5 22q-18 -23 -37.5 -36.5t-39 -20.5t-38.5 -9.5t-36 -2.5
q-31 0 -61.5 8.5t-54.5 26t-39 45t-15 65.5q0 79 53 116t144 37q10 0 24 -0.5t27.5 -1t25 -1.5t17.5 -1v50zM316 415v89h109v-89h110v-87h-110v-166q0 -43 19.5 -63.5t63.5 -20.5q74 0 108.5 65t34.5 181q0 67 -20.5 116t-55 80.5t-81 46.5t-97.5 15q-57 0 -100 -17t-72 -42
t-43.5 -54t-14.5 -54h149zM316 194q-6 0 -17 0.5t-23 1t-24.5 1t-21.5 0.5q-51 0 -74 -18.5t-23 -44.5t19.5 -41t60.5 -15q34 0 63.5 15t39.5 41v60z" />
    <glyph glyph-name="macron.cap" horiz-adv-x="361" 
d="M23 844h315v-97h-315v97z" />
    <glyph glyph-name="caron.cap" horiz-adv-x="417" 
d="M43 873h104l62 -82l61 82h104l-110 -156h-111z" />
    <glyph glyph-name="ring.cap" horiz-adv-x="315" 
d="M26 803q0 28 10 51.5t28 40.5t42 26.5t51 9.5q28 0 52 -9.5t42 -26.5t28 -40.5t10 -50.5q0 -28 -10 -51.5t-28 -40.5t-42 -26.5t-51 -9.5q-28 0 -52 9.5t-42 26.5t-28 40.5t-10 50.5zM158 751q23 0 36.5 14.5t13.5 38.5q0 23 -13.5 37.5t-37.5 14.5q-23 0 -36.5 -14.5
t-13.5 -38.5q0 -23 13.5 -37.5t37.5 -14.5z" />
    <glyph glyph-name="ogonek.cap" horiz-adv-x="298" 
d="M215 0q-19 -19 -33 -42t-14 -40q0 -21 26 -21q14 0 26 4.5t24 12.5l29 -75q-26 -17 -56.5 -27t-56.5 -10q-52 0 -76.5 22t-24.5 58q0 30 18.5 60.5t44.5 57.5h93z" />
    <glyph glyph-name="tilde.cap" horiz-adv-x="490" 
d="M43 804q9 9 22 20t29.5 20t35.5 15t41 6t38 -6.5t30.5 -14.5t30 -14.5t36.5 -6.5q35 0 56.5 13t35.5 24l49 -75q-9 -9 -22 -20t-29 -20.5t-35 -16t-41 -6.5t-38 7t-31 15t-30.5 15t-36.5 7q-35 0 -56.5 -13t-35.5 -24z" />
    <glyph glyph-name="cedilla.cap" horiz-adv-x="356" 
d="M104 -147q19 -7 36.5 -9.5t33.5 -2.5q26 0 41 7.5t15 22.5q0 12 -12.5 20.5t-39.5 8.5q-17 0 -34 -3t-30 -8l11 68q18 5 37 8.5t48 3.5q54 0 85.5 -26t31.5 -67q0 -26 -11.5 -46t-30 -33.5t-42.5 -20t-49 -6.5q-24 0 -42.5 2t-32.5 5q-16 3 -28 7z" />
    <glyph glyph-name="i.locl" horiz-adv-x="244" 
d="M59 667h126v-124h-126v124zM63 469h118v-469h-118v469z" />
    <glyph glyph-name="kgreenlandic.case" horiz-adv-x="748" 
d="M70 667h126v-274l247 274h143l-246 -273l273 -394h-152l-203 303l-62 -69v-234h-126v667zM636 666h89l-22 -211h-135z" />
    <glyph glyph-name="napostrophe.case" horiz-adv-x="841" 
d="M198 667h127l323 -474v474h123v-667h-124l-326 480v-480h-123v667zM22 682h119l-39 -142h-88z" />
    </font>
</defs>
</svg>
